<ttFont>
<head>
    <!-- Most of this table will be recalculated by the compiler -->
    <tableVersion value="1.0"/>
    <fontRevision value="5.0"/>
    <checkSumAdjustment value="0x34161220"/>
    <magicNumber value="0x5f0f3cf5"/>
    <flags value="00000000 00011010"/>
    <unitsPerEm value="2048"/>
    <created value="Thu Dec 29 09:31:06 1994"/>
    <modified value="Sat Feb  3 01:51:20 2007"/>
    <xMin value="-229"/>
    <yMin value="-621"/>
    <xMax value="2518"/>
    <yMax value="2257"/>
    <macStyle value="00000000 00000001"/>
    <lowestRecPPEM value="9"/>
    <fontDirectionHint value="2"/>
    <indexToLocFormat value="0"/>
    <glyphDataFormat value="0"/>
  </head>
    <TTGlyph name="A" xMin="91" yMin="-32" xMax="1392" yMax="1478">
      <contour>
        <pt x="1250" y="-30" on="1"/>
        <pt x="1171" y="-27" on="0"/>
        <pt x="1091" y="156" on="1"/>
        <pt x="1038" y="274" on="0"/>
        <pt x="1000" y="428" on="1"/>
        <pt x="926" y="417" on="0"/>
        <pt x="758" y="406" on="1"/>
        <pt x="600" y="395" on="0"/>
        <pt x="516" y="380" on="1"/>
        <pt x="470" y="270" on="0"/>
        <pt x="356" y="49" on="1"/>
        <pt x="312" y="-23" on="0"/>
        <pt x="234" y="-23" on="1"/>
        <pt x="179" y="-23" on="0"/>
        <pt x="91" y="52" on="0"/>
        <pt x="91" y="110" on="1"/>
        <pt x="91" y="161" on="0"/>
        <pt x="237" y="456" on="1"/>
        <pt x="223" y="487" on="0"/>
        <pt x="225" y="514" on="1"/>
        <pt x="229" y="562" on="0"/>
        <pt x="322" y="589" on="1"/>
        <pt x="464" y="835" on="0"/>
        <pt x="638" y="1099" on="1"/>
        <pt x="888" y="1478" on="0"/>
        <pt x="946" y="1478" on="1"/>
        <pt x="1056" y="1478" on="0"/>
        <pt x="1093" y="1345" on="1"/>
        <pt x="1113" y="1238" on="0"/>
        <pt x="1156" y="1024" on="1"/>
        <pt x="1217" y="736" on="0"/>
        <pt x="1305" y="365" on="1"/>
        <pt x="1312" y="337" on="0"/>
        <pt x="1356" y="233" on="1"/>
        <pt x="1392" y="147" on="0"/>
        <pt x="1392" y="104" on="1"/>
        <pt x="1392" y="46" on="0"/>
        <pt x="1305" y="-32" on="0"/>
      </contour>
      <contour>
        <pt x="877" y="996" on="1"/>
        <pt x="799" y="862" on="0"/>
        <pt x="662" y="631" on="1"/>
        <pt x="707" y="641" on="0"/>
        <pt x="802" y="647" on="1"/>
        <pt x="914" y="654" on="0"/>
        <pt x="943" y="658" on="1"/>
        <pt x="919" y="788" on="0"/>
      </contour>
    </TTGlyph>
    <TTGlyph name="AE" xMin="6" yMin="-87" xMax="2256" yMax="1621">
      <contour>
        <pt x="2118" y="1297" on="1"/>
        <pt x="2101" y="1297" on="0"/>
        <pt x="2077" y="1303" on="1"/>
        <pt x="1895" y="1348" on="0"/>
        <pt x="1761" y="1348" on="1"/>
        <pt x="1686" y="1348" on="0"/>
        <pt x="1514" y="1324" on="0"/>
        <pt x="1417" y="1300" on="1"/>
        <pt x="1422" y="1260" on="0"/>
        <pt x="1422" y="1229" on="1"/>
        <pt x="1422" y="1105" on="0"/>
        <pt x="1408" y="904" on="1"/>
        <pt x="1493" y="909" on="0"/>
        <pt x="1799" y="941" on="1"/>
        <pt x="1993" y="961" on="0"/>
        <pt x="2040" y="961" on="1"/>
        <pt x="2101" y="961" on="0"/>
        <pt x="2183" y="883" on="0"/>
        <pt x="2183" y="824" on="1"/>
        <pt x="2183" y="711" on="0"/>
        <pt x="2059" y="689" on="1"/>
        <pt x="1978" y="683" on="0"/>
        <pt x="1817" y="669" on="1"/>
        <pt x="1675" y="653" on="0"/>
        <pt x="1389" y="630" on="1"/>
        <pt x="1383" y="521" on="0"/>
        <pt x="1383" y="425" on="1"/>
        <pt x="1383" y="224" on="0"/>
        <pt x="1404" y="203" on="1"/>
        <pt x="1419" y="188" on="0"/>
        <pt x="1532" y="188" on="1"/>
        <pt x="1594" y="188" on="0"/>
        <pt x="1844" y="195" on="0"/>
        <pt x="1906" y="195" on="1"/>
        <pt x="1926" y="195" on="0"/>
        <pt x="2003" y="207" on="0"/>
        <pt x="2023" y="207" on="1"/>
        <pt x="2086" y="207" on="0"/>
        <pt x="2169" y="131" on="0"/>
        <pt x="2169" y="70" on="1"/>
        <pt x="2169" y="-33" on="0"/>
        <pt x="2041" y="-68" on="1"/>
        <pt x="1976" y="-85" on="0"/>
        <pt x="1829" y="-87" on="1"/>
        <pt x="1787" y="-87" on="0"/>
        <pt x="1717" y="-86" on="1"/>
        <pt x="1637" y="-85" on="0"/>
        <pt x="1610" y="-85" on="1"/>
        <pt x="1301" y="-85" on="0"/>
        <pt x="1200" y="20" on="1"/>
        <pt x="1103" y="120" on="0"/>
        <pt x="1103" y="425" on="1"/>
        <pt x="1103" y="526" on="0"/>
        <pt x="1109" y="636" on="1"/>
        <pt x="949" y="622" on="0"/>
        <pt x="629" y="597" on="1"/>
        <pt x="546" y="487" on="0"/>
        <pt x="384" y="246" on="1"/>
        <pt x="345" y="185" on="0"/>
        <pt x="262" y="67" on="1"/>
        <pt x="217" y="8" on="0"/>
        <pt x="150" y="8" on="1"/>
        <pt x="94" y="8" on="0"/>
        <pt x="6" y="85" on="0"/>
        <pt x="6" y="140" on="1"/>
        <pt x="6" y="176" on="0"/>
        <pt x="31" y="215" on="1"/>
        <pt x="343" y="701" on="0"/>
        <pt x="574" y="959" on="1"/>
        <pt x="884" y="1333" on="1"/>
        <pt x="1116" y="1588" on="0"/>
        <pt x="1262" y="1588" on="1"/>
        <pt x="1305" y="1588" on="0"/>
        <pt x="1343" y="1563" on="1"/>
        <pt x="1459" y="1592" on="0"/>
        <pt x="1668" y="1621" on="0"/>
        <pt x="1761" y="1621" on="1"/>
        <pt x="2032" y="1621" on="0"/>
        <pt x="2166" y="1562" on="1"/>
        <pt x="2256" y="1522" on="0"/>
        <pt x="2256" y="1436" on="1"/>
        <pt x="2256" y="1382" on="0"/>
        <pt x="2218" y="1341" on="1"/>
        <pt x="2177" y="1297" on="0"/>
      </contour>
      <contour>
        <pt x="1142" y="1207" on="1"/>
        <pt x="1086" y="1150" on="0"/>
        <pt x="871" y="887" on="1"/>
        <pt x="1009" y="899" on="0"/>
        <pt x="1128" y="903" on="1"/>
        <pt x="1141" y="1088" on="0"/>
      </contour>
    </TTGlyph>
    <TTGlyph name="AEacute" xMin="6" yMin="-87" xMax="2256" yMax="2165">
      <component glyphName="AE" x="0" y="0" flags="0x204"/>
      <component glyphName="acute" x="1200" y="500" flags="0x4"/>
    </TTGlyph>
    <TTGlyph name="Aacute" xMin="131" yMin="-32" xMax="1432" yMax="2108">
      <component glyphName="A" x="40" y="0" flags="0x4"/>
      <component glyphName="acute" x="667" y="443" flags="0x4"/>
    </TTGlyph>
    <TTGlyph name="Abreve" xMin="91" yMin="-32" xMax="1400" yMax="2039">
      <component glyphName="A" x="0" y="0" flags="0x204"/>
      <component glyphName="breve" x="300" y="450" flags="0x4"/>
    </TTGlyph>
    <TTGlyph name="Acircumflex" xMin="131" yMin="-32" xMax="1432" yMax="2157">
      <component glyphName="A" x="40" y="0" flags="0x4"/>
      <component glyphName="circumflex" x="363" y="467" flags="0x4"/>
    </TTGlyph>
    <TTGlyph name="Adieresis" xMin="131" yMin="-32" xMax="1432" yMax="1885">
      <component glyphName="A" x="40" y="0" flags="0x4"/>
      <component glyphName="dieresis" x="410" y="450" flags="0x4"/>
    </TTGlyph>
    <TTGlyph name="Agrave" xMin="131" yMin="-32" xMax="1432" yMax="2121">
      <component glyphName="A" x="40" y="0" flags="0x4"/>
      <component glyphName="grave" x="562" y="460" flags="0x4"/>
    </TTGlyph>
    <TTGlyph name="Alpha" xMin="91" yMin="-32" xMax="1392" yMax="1478">
      <component glyphName="A" x="0" y="0" flags="0x204"/>
    </TTGlyph>
    <TTGlyph name="Alphatonos" xMin="91" yMin="-32" xMax="1392" yMax="1562">
      <component glyphName="A" x="0" y="0" flags="0x4"/>
      <component glyphName="tonos" x="-120" y="0" flags="0x4"/>
    </TTGlyph>
    <TTGlyph name="Amacron" xMin="91" yMin="-32" xMax="1392" yMax="1834">
      <component glyphName="A" x="0" y="0" flags="0x204"/>
      <component glyphName="macron" x="340" y="450" flags="0x4"/>
    </TTGlyph>
    <TTGlyph name="Aogonek" xMin="91" yMin="-344" xMax="1541" yMax="1478">
      <component glyphName="A" x="0" y="0" flags="0x204"/>
      <component glyphName="ogonek" x="680" y="0" flags="0x4"/>
    </TTGlyph>
    <TTGlyph name="Aring" xMin="131" yMin="-32" xMax="1432" yMax="2001">
      <component glyphName="A" x="40" y="0" flags="0x4"/>
      <component glyphName="ring" x="411" y="243" flags="0x4"/>
    </TTGlyph>
    <TTGlyph name="Aringacute" xMin="91" yMin="-32" xMax="1392" yMax="2234">
      <component glyphName="A" x="0" y="0" flags="0x204"/>
      <component glyphName="ring" x="371" y="95" flags="0x4"/>
      <component glyphName="acute" x="264" y="569" flags="0x4"/>
    </TTGlyph>
    <TTGlyph name="Atilde" xMin="131" yMin="-32" xMax="1527" yMax="2005">
      <component glyphName="A" x="40" y="0" flags="0x4"/>
      <component glyphName="tilde" x="391" y="451" flags="0x4"/>
    </TTGlyph>
    <TTGlyph name="B" xMin="132" yMin="-48" xMax="1232" yMax="1571">
      <contour>
        <pt x="884" y="39" on="1"/>
        <pt x="651" y="-48" on="0"/>
        <pt x="295" y="-48" on="1"/>
        <pt x="235" y="-48" on="0"/>
        <pt x="140" y="52" on="0"/>
        <pt x="140" y="109" on="1"/>
        <pt x="140" y="1169" on="1"/>
        <pt x="137" y="1237" on="0"/>
        <pt x="135" y="1305" on="1"/>
        <pt x="132" y="1382" on="0"/>
        <pt x="140" y="1435" on="1"/>
        <pt x="154" y="1529" on="0"/>
        <pt x="315" y="1549" on="1"/>
        <pt x="391" y="1571" on="0"/>
        <pt x="567" y="1571" on="1"/>
        <pt x="756" y="1571" on="0"/>
        <pt x="929" y="1449" on="1"/>
        <pt x="1132" y="1307" on="0"/>
        <pt x="1132" y="1094" on="1"/>
        <pt x="1132" y="979" on="0"/>
        <pt x="1090" y="900" on="1"/>
        <pt x="1057" y="836" on="0"/>
        <pt x="975" y="763" on="1"/>
        <pt x="1072" y="716" on="0"/>
        <pt x="1147" y="621" on="1"/>
        <pt x="1232" y="515" on="0"/>
        <pt x="1232" y="410" on="1"/>
        <pt x="1232" y="277" on="0"/>
        <pt x="1087" y="158" on="1"/>
        <pt x="990" y="79" on="0"/>
      </contour>
      <contour>
        <pt x="567" y="1300" on="1"/>
        <pt x="438" y="1300" on="0"/>
        <pt x="412" y="1298" on="1"/>
        <pt x="413" y="1086" on="1"/>
        <pt x="412" y="876" on="1"/>
        <pt x="503" y="865" on="0"/>
        <pt x="549" y="869" on="1"/>
        <pt x="855" y="893" on="0"/>
        <pt x="855" y="1094" on="1"/>
        <pt x="855" y="1165" on="0"/>
        <pt x="765" y="1231" on="1"/>
        <pt x="672" y="1300" on="0"/>
      </contour>
      <contour>
        <pt x="684" y="593" on="1"/>
        <pt x="593" y="593" on="0"/>
        <pt x="412" y="600" on="1"/>
        <pt x="412" y="226" on="1"/>
        <pt x="584" y="235" on="0"/>
        <pt x="785" y="292" on="1"/>
        <pt x="961" y="342" on="0"/>
        <pt x="959" y="400" on="1"/>
        <pt x="956" y="477" on="0"/>
        <pt x="846" y="537" on="1"/>
        <pt x="760" y="585" on="0"/>
      </contour>
    </TTGlyph>
    <TTGlyph name="Beta" xMin="132" yMin="-48" xMax="1232" yMax="1571">
      <component glyphName="B" x="0" y="0" flags="0x204"/>
    </TTGlyph>
    <TTGlyph name="C" xMin="50" yMin="-24" xMax="1243" yMax="1523">
      <contour>
        <pt x="1104" y="1065" on="1"/>
        <pt x="1014" y="1065" on="0"/>
        <pt x="971" y="1160" on="1"/>
        <pt x="951" y="1205" on="0"/>
        <pt x="931" y="1214" on="1"/>
        <pt x="916" y="1221" on="0"/>
        <pt x="852" y="1221" on="1"/>
        <pt x="726" y="1221" on="0"/>
        <pt x="561" y="1025" on="1"/>
        <pt x="330" y="751" on="0"/>
        <pt x="330" y="512" on="1"/>
        <pt x="330" y="403" on="0"/>
        <pt x="476" y="247" on="0"/>
        <pt x="578" y="247" on="1"/>
        <pt x="677" y="247" on="0"/>
        <pt x="779" y="299" on="1"/>
        <pt x="815" y="318" on="0"/>
        <pt x="931" y="397" on="1"/>
        <pt x="1009" y="449" on="0"/>
        <pt x="1049" y="449" on="1"/>
        <pt x="1109" y="449" on="0"/>
        <pt x="1151" y="405" on="1"/>
        <pt x="1190" y="364" on="0"/>
        <pt x="1190" y="311" on="1"/>
        <pt x="1190" y="252" on="0"/>
        <pt x="1138" y="208" on="1"/>
        <pt x="863" y="-24" on="0"/>
        <pt x="578" y="-24" on="1"/>
        <pt x="353" y="-24" on="0"/>
        <pt x="198" y="140" on="1"/>
        <pt x="50" y="298" on="0"/>
        <pt x="50" y="512" on="1"/>
        <pt x="50" y="847" on="0"/>
        <pt x="343" y="1196" on="1"/>
        <pt x="592" y="1492" on="0"/>
        <pt x="852" y="1492" on="1"/>
        <pt x="896" y="1492" on="0"/>
        <pt x="967" y="1486" on="0"/>
        <pt x="994" y="1480" on="1"/>
        <pt x="1038" y="1523" on="0"/>
        <pt x="1100" y="1523" on="1"/>
        <pt x="1202" y="1523" on="0"/>
        <pt x="1226" y="1406" on="1"/>
        <pt x="1243" y="1322" on="0"/>
        <pt x="1243" y="1210" on="1"/>
        <pt x="1243" y="1160" on="0"/>
        <pt x="1214" y="1119" on="1"/>
        <pt x="1176" y="1065" on="0"/>
      </contour>
    </TTGlyph>
    <TTGlyph name="Cacute" xMin="50" yMin="-24" xMax="1243" yMax="2115">
      <component glyphName="C" x="0" y="0" flags="0x204"/>
      <component glyphName="acute" x="440" y="450" flags="0x4"/>
    </TTGlyph>
    <TTGlyph name="Ccaron" xMin="50" yMin="-24" xMax="1243" yMax="2077">
      <component glyphName="C" x="0" y="0" flags="0x204"/>
      <component glyphName="caron" x="160" y="450" flags="0x4"/>
    </TTGlyph>
    <TTGlyph name="Ccedilla" xMin="50" yMin="-407" xMax="1243" yMax="1524">
      <contour>
        <pt x="1104" y="1061" on="1"/>
        <pt x="1047" y="1061" on="0"/>
        <pt x="1011" y="1096" on="1"/>
        <pt x="989" y="1118" on="0"/>
        <pt x="966" y="1166" on="1"/>
        <pt x="946" y="1207" on="0"/>
        <pt x="935" y="1213" on="1"/>
        <pt x="923" y="1218" on="0"/>
        <pt x="852" y="1218" on="1"/>
        <pt x="726" y="1218" on="0"/>
        <pt x="561" y="1020" on="1"/>
        <pt x="330" y="743" on="0"/>
        <pt x="330" y="502" on="1"/>
        <pt x="330" y="395" on="0"/>
        <pt x="401" y="316" on="1"/>
        <pt x="474" y="234" on="0"/>
        <pt x="578" y="234" on="1"/>
        <pt x="674" y="234" on="0"/>
        <pt x="776" y="287" on="1"/>
        <pt x="813" y="306" on="0"/>
        <pt x="932" y="386" on="1"/>
        <pt x="1010" y="439" on="0"/>
        <pt x="1049" y="439" on="1"/>
        <pt x="1108" y="439" on="0"/>
        <pt x="1190" y="354" on="0"/>
        <pt x="1190" y="299" on="1"/>
        <pt x="1190" y="228" on="0"/>
        <pt x="1046" y="130" on="1"/>
        <pt x="930" y="50" on="0"/>
        <pt x="800" y="0" on="1"/>
        <pt x="832" y="-57" on="0"/>
        <pt x="832" y="-114" on="1"/>
        <pt x="832" y="-290" on="0"/>
        <pt x="680" y="-359" on="1"/>
        <pt x="574" y="-407" on="0"/>
        <pt x="369" y="-407" on="1"/>
        <pt x="199" y="-407" on="0"/>
        <pt x="199" y="-294" on="1"/>
        <pt x="199" y="-248" on="0"/>
        <pt x="263" y="-183" on="0"/>
        <pt x="312" y="-183" on="1"/>
        <pt x="331" y="-183" on="0"/>
        <pt x="406" y="-187" on="0"/>
        <pt x="425" y="-187" on="1"/>
        <pt x="513" y="-187" on="0"/>
        <pt x="537" y="-182" on="1"/>
        <pt x="602" y="-168" on="0"/>
        <pt x="602" y="-114" on="1"/>
        <pt x="602" y="-73" on="0"/>
        <pt x="499" y="-38" on="1"/>
        <pt x="427" y="-13" on="0"/>
        <pt x="355" y="11" on="1"/>
        <pt x="203" y="96" on="0"/>
        <pt x="50" y="342" on="0"/>
        <pt x="50" y="502" on="1"/>
        <pt x="50" y="840" on="0"/>
        <pt x="343" y="1193" on="1"/>
        <pt x="591" y="1492" on="0"/>
        <pt x="852" y="1492" on="1"/>
        <pt x="894" y="1492" on="0"/>
        <pt x="965" y="1486" on="0"/>
        <pt x="994" y="1479" on="1"/>
        <pt x="1040" y="1524" on="0"/>
        <pt x="1100" y="1524" on="1"/>
        <pt x="1197" y="1524" on="0"/>
        <pt x="1228" y="1402" on="1"/>
        <pt x="1243" y="1342" on="0"/>
        <pt x="1243" y="1207" on="1"/>
        <pt x="1243" y="1150" on="0"/>
        <pt x="1208" y="1108" on="1"/>
        <pt x="1169" y="1061" on="0"/>
      </contour>
    </TTGlyph>
    <TTGlyph name="Ccircumflex" xMin="50" yMin="-24" xMax="1276" yMax="2190">
      <component glyphName="C" x="0" y="0" flags="0x204"/>
      <component glyphName="circumflex" x="220" y="500" flags="0x4"/>
    </TTGlyph>
    <TTGlyph name="Cdot" xMin="50" yMin="-24" xMax="1243" yMax="1894">
      <component glyphName="C" x="0" y="0" flags="0x204"/>
      <component glyphName="dotaccent" x="470" y="450" flags="0x4"/>
    </TTGlyph>
    <TTGlyph name="Chi" xMin="11" yMin="-84" xMax="1430" yMax="1521">
      <component glyphName="X" x="0" y="0" flags="0x204"/>
    </TTGlyph>
    <TTGlyph name="D" xMin="143" yMin="-99" xMax="1416" yMax="1556">
      <contour>
        <pt x="282" y="-10" on="1"/>
        <pt x="223" y="-9" on="0"/>
        <pt x="143" y="70" on="0"/>
        <pt x="143" y="126" on="1"/>
        <pt x="143" y="226" on="0"/>
        <pt x="162" y="626" on="0"/>
        <pt x="162" y="726" on="1"/>
        <pt x="162" y="837" on="0"/>
        <pt x="153" y="1281" on="0"/>
        <pt x="153" y="1392" on="1"/>
        <pt x="153" y="1447" on="0"/>
        <pt x="259" y="1556" on="0"/>
        <pt x="319" y="1556" on="1"/>
        <pt x="352" y="1556" on="0"/>
        <pt x="485" y="1494" on="1"/>
        <pt x="640" y="1420" on="0"/>
        <pt x="669" y="1411" on="1"/>
        <pt x="962" y="1316" on="0"/>
        <pt x="1169" y="1117" on="1"/>
        <pt x="1416" y="880" on="0"/>
        <pt x="1416" y="593" on="1"/>
        <pt x="1416" y="420" on="0"/>
        <pt x="1331" y="264" on="1"/>
        <pt x="1246" y="105" on="0"/>
        <pt x="1098" y="9" on="1"/>
        <pt x="932" y="-99" on="0"/>
        <pt x="631" y="-99" on="1"/>
        <pt x="558" y="-99" on="0"/>
        <pt x="463" y="-78" on="1"/>
        <pt x="348" y="-52" on="0"/>
      </contour>
      <contour>
        <pt x="844" y="1018" on="1"/>
        <pt x="747" y="1079" on="0"/>
        <pt x="428" y="1210" on="1"/>
        <pt x="428" y="220" on="1"/>
        <pt x="467" y="195" on="0"/>
        <pt x="568" y="170" on="0"/>
        <pt x="630" y="170" on="1"/>
        <pt x="846" y="170" on="0"/>
        <pt x="940" y="230" on="1"/>
        <pt x="1029" y="287" on="0"/>
        <pt x="1134" y="483" on="0"/>
        <pt x="1134" y="589" on="1"/>
        <pt x="1134" y="837" on="0"/>
      </contour>
    </TTGlyph>
    <TTGlyph name="Dcaron" xMin="143" yMin="-99" xMax="1416" yMax="2077">
      <component glyphName="D" x="0" y="0" flags="0x204"/>
      <component glyphName="caron" x="60" y="450" flags="0x4"/>
    </TTGlyph>
    <TTGlyph name="Delta" xMin="15" yMin="-72" xMax="1598" yMax="1663">
      <component glyphName="uni0394" x="0" y="0" flags="0x204"/>
    </TTGlyph>
    <TTGlyph name="Dslash" xMin="-84" yMin="-99" xMax="1416" yMax="1556">
      <component glyphName="Eth" x="0" y="0" flags="0x4"/>
    </TTGlyph>
    <TTGlyph name="E" xMin="94" yMin="-99" xMax="1247" yMax="1605">
      <contour>
        <pt x="1109" y="1282" on="1"/>
        <pt x="1089" y="1282" on="0"/>
        <pt x="1067" y="1288" on="1"/>
        <pt x="905" y="1332" on="0"/>
        <pt x="752" y="1332" on="1"/>
        <pt x="677" y="1332" on="0"/>
        <pt x="505" y="1308" on="0"/>
        <pt x="408" y="1284" on="1"/>
        <pt x="408" y="1151" on="0"/>
        <pt x="399" y="889" on="1"/>
        <pt x="455" y="893" on="0"/>
        <pt x="790" y="926" on="1"/>
        <pt x="981" y="945" on="0"/>
        <pt x="1032" y="945" on="1"/>
        <pt x="1091" y="945" on="0"/>
        <pt x="1175" y="870" on="0"/>
        <pt x="1175" y="808" on="1"/>
        <pt x="1175" y="689" on="0"/>
        <pt x="1048" y="673" on="1"/>
        <pt x="968" y="667" on="0"/>
        <pt x="809" y="653" on="1"/>
        <pt x="667" y="637" on="0"/>
        <pt x="381" y="614" on="1"/>
        <pt x="374" y="487" on="0"/>
        <pt x="374" y="409" on="1"/>
        <pt x="374" y="213" on="0"/>
        <pt x="397" y="186" on="1"/>
        <pt x="408" y="173" on="0"/>
        <pt x="523" y="173" on="1"/>
        <pt x="585" y="173" on="0"/>
        <pt x="835" y="179" on="0"/>
        <pt x="897" y="179" on="1"/>
        <pt x="917" y="179" on="0"/>
        <pt x="995" y="191" on="0"/>
        <pt x="1014" y="191" on="1"/>
        <pt x="1072" y="191" on="0"/>
        <pt x="1113" y="158" on="1"/>
        <pt x="1160" y="121" on="0"/>
        <pt x="1160" y="54" on="1"/>
        <pt x="1160" y="-58" on="0"/>
        <pt x="1043" y="-80" on="1"/>
        <pt x="943" y="-99" on="0"/>
        <pt x="628" y="-99" on="1"/>
        <pt x="302" y="-99" on="0"/>
        <pt x="203" y="-11" on="1"/>
        <pt x="94" y="86" on="0"/>
        <pt x="94" y="409" on="1"/>
        <pt x="94" y="543" on="0"/>
        <pt x="133" y="1080" on="0"/>
        <pt x="133" y="1213" on="1"/>
        <pt x="133" y="1248" on="0"/>
        <pt x="113" y="1385" on="0"/>
        <pt x="113" y="1420" on="1"/>
        <pt x="113" y="1572" on="0"/>
        <pt x="253" y="1572" on="1"/>
        <pt x="297" y="1572" on="0"/>
        <pt x="334" y="1547" on="1"/>
        <pt x="450" y="1576" on="0"/>
        <pt x="659" y="1605" on="0"/>
        <pt x="752" y="1605" on="1"/>
        <pt x="1004" y="1605" on="0"/>
        <pt x="1155" y="1547" on="1"/>
        <pt x="1247" y="1512" on="0"/>
        <pt x="1247" y="1420" on="1"/>
        <pt x="1247" y="1368" on="0"/>
        <pt x="1211" y="1328" on="1"/>
        <pt x="1171" y="1282" on="0"/>
      </contour>
    </TTGlyph>
    <TTGlyph name="Eacute" xMin="94" yMin="-99" xMax="1247" yMax="2242">
      <component glyphName="E" x="0" y="0" flags="0x4"/>
      <component glyphName="acute" x="353" y="577" flags="0x4"/>
    </TTGlyph>
    <TTGlyph name="Ebreve" xMin="94" yMin="-99" xMax="1247" yMax="2089">
      <component glyphName="E" x="0" y="0" flags="0x204"/>
      <component glyphName="breve" x="140" y="500" flags="0x4"/>
    </TTGlyph>
    <TTGlyph name="Ecaron" xMin="94" yMin="-99" xMax="1247" yMax="2107">
      <component glyphName="E" x="0" y="0" flags="0x204"/>
      <component glyphName="caron" x="140" y="480" flags="0x4"/>
    </TTGlyph>
    <TTGlyph name="Ecircumflex" xMin="94" yMin="-99" xMax="1247" yMax="2257">
      <component glyphName="E" x="0" y="0" flags="0x4"/>
      <component glyphName="circumflex" x="101" y="567" flags="0x4"/>
    </TTGlyph>
    <TTGlyph name="Edieresis" xMin="94" yMin="-99" xMax="1247" yMax="2003">
      <component glyphName="E" x="0" y="0" flags="0x4"/>
      <component glyphName="dieresis" x="100" y="568" flags="0x4"/>
    </TTGlyph>
    <TTGlyph name="Edot" xMin="94" yMin="-99" xMax="1247" yMax="1974">
      <component glyphName="E" x="0" y="0" flags="0x204"/>
      <component glyphName="dotaccent" x="350" y="530" flags="0x4"/>
    </TTGlyph>
    <TTGlyph name="Egrave" xMin="94" yMin="-99" xMax="1247" yMax="2230">
      <component glyphName="E" x="0" y="0" flags="0x4"/>
      <component glyphName="grave" x="308" y="569" flags="0x4"/>
    </TTGlyph>
    <TTGlyph name="Emacron" xMin="94" yMin="-99" xMax="1247" yMax="1914">
      <component glyphName="E" x="0" y="0" flags="0x204"/>
      <component glyphName="macron" x="80" y="530" flags="0x4"/>
    </TTGlyph>
    <TTGlyph name="Eng" xMin="83" yMin="-535" xMax="1589" yMax="1551">
      <contour>
        <pt x="1579" y="202" on="1"/>
        <pt x="1576" y="-535" on="0"/>
        <pt x="901" y="-535" on="1"/>
        <pt x="842" y="-535" on="0"/>
        <pt x="808" y="-496" on="1"/>
        <pt x="776" y="-461" on="0"/>
        <pt x="776" y="-411" on="1"/>
        <pt x="776" y="-360" on="0"/>
        <pt x="808" y="-325" on="1"/>
        <pt x="842" y="-286" on="0"/>
        <pt x="901" y="-286" on="1"/>
        <pt x="1090" y="-286" on="0"/>
        <pt x="1282" y="-152" on="0"/>
        <pt x="1312" y="-2" on="1"/>
        <pt x="1283" y="17" on="0"/>
        <pt x="1260" y="38" on="1"/>
        <pt x="875" y="385" on="0"/>
        <pt x="391" y="1011" on="1"/>
        <pt x="385" y="751" on="0"/>
        <pt x="385" y="692" on="1"/>
        <pt x="385" y="613" on="0"/>
        <pt x="392" y="295" on="0"/>
        <pt x="392" y="216" on="1"/>
        <pt x="392" y="-79" on="0"/>
        <pt x="248" y="-79" on="1"/>
        <pt x="175" y="-79" on="0"/>
        <pt x="131" y="-34" on="1"/>
        <pt x="92" y="6" on="0"/>
        <pt x="92" y="63" on="1"/>
        <pt x="92" y="103" on="0"/>
        <pt x="105" y="265" on="0"/>
        <pt x="105" y="305" on="1"/>
        <pt x="105" y="364" on="0"/>
        <pt x="113" y="600" on="0"/>
        <pt x="113" y="659" on="1"/>
        <pt x="113" y="722" on="0"/>
        <pt x="107" y="976" on="0"/>
        <pt x="107" y="1039" on="1"/>
        <pt x="107" y="1099" on="0"/>
        <pt x="83" y="1337" on="0"/>
        <pt x="83" y="1397" on="1"/>
        <pt x="83" y="1457" on="0"/>
        <pt x="186" y="1551" on="0"/>
        <pt x="252" y="1551" on="1"/>
        <pt x="326" y="1551" on="0"/>
        <pt x="416" y="1423" on="1"/>
        <pt x="870" y="775" on="0"/>
        <pt x="1312" y="366" on="1"/>
        <pt x="1313" y="398" on="0"/>
        <pt x="1313" y="518" on="1"/>
        <pt x="1313" y="1011" on="0"/>
        <pt x="1303" y="1183" on="1"/>
        <pt x="1301" y="1212" on="0"/>
        <pt x="1290" y="1291" on="1"/>
        <pt x="1280" y="1361" on="0"/>
        <pt x="1280" y="1401" on="1"/>
        <pt x="1280" y="1539" on="0"/>
        <pt x="1426" y="1539" on="1"/>
        <pt x="1589" y="1539" on="0"/>
        <pt x="1589" y="1036" on="1"/>
        <pt x="1589" y="1025" on="0"/>
        <pt x="1587" y="878" on="1"/>
        <pt x="1581" y="370" on="0"/>
        <pt x="1581" y="246" on="1"/>
        <pt x="1581" y="238" on="0"/>
        <pt x="1579" y="209" on="0"/>
      </contour>
    </TTGlyph>
    <TTGlyph name="Eogonek" xMin="94" yMin="-404" xMax="1247" yMax="1605">
      <component glyphName="E" x="0" y="0" flags="0x4"/>
      <component glyphName="ogonek" x="340" y="-60" flags="0x4"/>
    </TTGlyph>
    <TTGlyph name="Epsilon" xMin="94" yMin="-99" xMax="1247" yMax="1605">
      <component glyphName="E" x="0" y="0" flags="0x204"/>
    </TTGlyph>
    <TTGlyph name="Epsilontonos" xMin="102" yMin="-99" xMax="1704" yMax="1605">
      <component glyphName="E" x="457" y="0" flags="0x4"/>
      <component glyphName="tonos" x="-323" y="0" flags="0x4"/>
    </TTGlyph>
    <TTGlyph name="Eta" xMin="112" yMin="-83" xMax="1505" yMax="1554">
      <component glyphName="H" x="0" y="0" flags="0x204"/>
    </TTGlyph>
    <TTGlyph name="Etatonos" xMin="135" yMin="-83" xMax="1945" yMax="1562">
      <component glyphName="H" x="440" y="0" flags="0x4"/>
      <component glyphName="tonos" x="-290" y="0" flags="0x4"/>
    </TTGlyph>
    <TTGlyph name="Eth" xMin="-84" yMin="-99" xMax="1416" yMax="1556">
      <contour>
        <pt x="282" y="-10" on="1"/>
        <pt x="222" y="-9" on="0"/>
        <pt x="153" y="66" on="0"/>
        <pt x="153" y="126" on="1"/>
        <pt x="153" y="562" on="1"/>
        <pt x="126" y="561" on="0"/>
        <pt x="106" y="561" on="1"/>
        <pt x="-84" y="561" on="0"/>
        <pt x="-84" y="696" on="1"/>
        <pt x="-84" y="831" on="0"/>
        <pt x="104" y="831" on="1"/>
        <pt x="125" y="831" on="0"/>
        <pt x="153" y="830" on="1"/>
        <pt x="153" y="1392" on="1"/>
        <pt x="153" y="1450" on="0"/>
        <pt x="261" y="1556" on="0"/>
        <pt x="319" y="1556" on="1"/>
        <pt x="350" y="1556" on="0"/>
        <pt x="487" y="1493" on="1"/>
        <pt x="658" y="1415" on="0"/>
        <pt x="670" y="1411" on="1"/>
        <pt x="981" y="1297" on="0"/>
        <pt x="1176" y="1111" on="1"/>
        <pt x="1416" y="882" on="0"/>
        <pt x="1416" y="593" on="1"/>
        <pt x="1416" y="419" on="0"/>
        <pt x="1244" y="102" on="0"/>
        <pt x="1098" y="8" on="1"/>
        <pt x="931" y="-99" on="0"/>
        <pt x="631" y="-99" on="1"/>
        <pt x="422" y="-99" on="0"/>
      </contour>
      <contour>
        <pt x="428" y="1210" on="1"/>
        <pt x="428" y="1083" on="0"/>
        <pt x="428" y="828" on="1"/>
        <pt x="455" y="827" on="0"/>
        <pt x="547" y="819" on="1"/>
        <pt x="621" y="813" on="0"/>
        <pt x="666" y="813" on="1"/>
        <pt x="725" y="813" on="0"/>
        <pt x="805" y="738" on="0"/>
        <pt x="805" y="680" on="1"/>
        <pt x="805" y="622" on="0"/>
        <pt x="725" y="548" on="0"/>
        <pt x="666" y="548" on="1"/>
        <pt x="620" y="548" on="0"/>
        <pt x="547" y="554" on="1"/>
        <pt x="453" y="561" on="0"/>
        <pt x="428" y="562" on="1"/>
        <pt x="430" y="449" on="0"/>
        <pt x="428" y="222" on="1"/>
        <pt x="531" y="170" on="0"/>
        <pt x="630" y="170" on="1"/>
        <pt x="845" y="170" on="0"/>
        <pt x="940" y="230" on="1"/>
        <pt x="1029" y="286" on="0"/>
        <pt x="1134" y="482" on="0"/>
        <pt x="1134" y="589" on="1"/>
        <pt x="1134" y="823" on="0"/>
        <pt x="884" y="992" on="1"/>
        <pt x="769" y="1070" on="0"/>
      </contour>
    </TTGlyph>
    <TTGlyph name="Euro" xMin="-116" yMin="-24" xMax="1243" yMax="1523">
      <contour>
        <pt x="1243" y="1210" on="1"/>
        <pt x="1243" y="1160" on="0"/>
        <pt x="1214" y="1119" on="1"/>
        <pt x="1176" y="1065" on="0"/>
        <pt x="1104" y="1065" on="1"/>
        <pt x="1014" y="1065" on="0"/>
        <pt x="971" y="1160" on="1"/>
        <pt x="951" y="1205" on="0"/>
        <pt x="931" y="1214" on="1"/>
        <pt x="916" y="1221" on="0"/>
        <pt x="852" y="1221" on="1"/>
        <pt x="725" y="1221" on="0"/>
        <pt x="561" y="1025" on="1"/>
        <pt x="552" y="1014" on="1"/>
        <pt x="582" y="1015" on="0"/>
        <pt x="659" y="1018" on="1"/>
        <pt x="723" y="1020" on="0"/>
        <pt x="773" y="1020" on="1"/>
        <pt x="832" y="1020" on="0"/>
        <pt x="866" y="989" on="1"/>
        <pt x="897" y="961" on="0"/>
        <pt x="897" y="920" on="1"/>
        <pt x="897" y="880" on="0"/>
        <pt x="866" y="851" on="1"/>
        <pt x="832" y="820" on="0"/>
        <pt x="773" y="820" on="1"/>
        <pt x="721" y="820" on="0"/>
        <pt x="564" y="814" on="0"/>
        <pt x="512" y="814" on="1"/>
        <pt x="476" y="814" on="0"/>
        <pt x="417" y="818" on="1"/>
        <pt x="386" y="761" on="0"/>
        <pt x="366" y="706" on="1"/>
        <pt x="584" y="711" on="0"/>
        <pt x="564" y="711" on="1"/>
        <pt x="623" y="711" on="0"/>
        <pt x="658" y="680" on="1"/>
        <pt x="689" y="652" on="0"/>
        <pt x="689" y="612" on="1"/>
        <pt x="689" y="571" on="0"/>
        <pt x="658" y="543" on="1"/>
        <pt x="623" y="512" on="0"/>
        <pt x="564" y="512" on="1"/>
        <pt x="513" y="512" on="0"/>
        <pt x="444" y="509" on="1"/>
        <pt x="368" y="506" on="0"/>
        <pt x="330" y="506" on="1"/>
        <pt x="332" y="399" on="0"/>
        <pt x="478" y="247" on="0"/>
        <pt x="578" y="247" on="1"/>
        <pt x="677" y="247" on="0"/>
        <pt x="779" y="299" on="1"/>
        <pt x="815" y="318" on="0"/>
        <pt x="931" y="397" on="1"/>
        <pt x="1009" y="449" on="0"/>
        <pt x="1049" y="449" on="1"/>
        <pt x="1109" y="449" on="0"/>
        <pt x="1151" y="405" on="1"/>
        <pt x="1190" y="364" on="0"/>
        <pt x="1190" y="311" on="1"/>
        <pt x="1190" y="252" on="0"/>
        <pt x="1138" y="208" on="1"/>
        <pt x="863" y="-24" on="0"/>
        <pt x="578" y="-24" on="1"/>
        <pt x="353" y="-24" on="0"/>
        <pt x="198" y="140" on="1"/>
        <pt x="50" y="297" on="0"/>
        <pt x="50" y="512" on="1"/>
        <pt x="50" y="516" on="1"/>
        <pt x="9" y="516" on="1"/>
        <pt x="-50" y="516" on="0"/>
        <pt x="-85" y="547" on="1"/>
        <pt x="-116" y="575" on="0"/>
        <pt x="-116" y="616" on="1"/>
        <pt x="-116" y="656" on="0"/>
        <pt x="-85" y="684" on="1"/>
        <pt x="-50" y="716" on="0"/>
        <pt x="9" y="716" on="1"/>
        <pt x="77" y="716" on="1"/>
        <pt x="91" y="770" on="0"/>
        <pt x="113" y="824" on="1"/>
        <pt x="17" y="824" on="1"/>
        <pt x="-42" y="824" on="0"/>
        <pt x="-77" y="856" on="1"/>
        <pt x="-108" y="884" on="0"/>
        <pt x="-108" y="924" on="1"/>
        <pt x="-108" y="965" on="0"/>
        <pt x="-77" y="993" on="1"/>
        <pt x="-42" y="1024" on="0"/>
        <pt x="17" y="1024" on="1"/>
        <pt x="216" y="1024" on="1"/>
        <pt x="271" y="1110" on="0"/>
        <pt x="343" y="1196" on="1"/>
        <pt x="592" y="1492" on="0"/>
        <pt x="852" y="1492" on="1"/>
        <pt x="940" y="1492" on="0"/>
        <pt x="994" y="1480" on="1"/>
        <pt x="1038" y="1523" on="0"/>
        <pt x="1100" y="1523" on="1"/>
        <pt x="1202" y="1523" on="0"/>
        <pt x="1226" y="1406" on="1"/>
        <pt x="1243" y="1322" on="0"/>
      </contour>
    </TTGlyph>
    <TTGlyph name="F" xMin="93" yMin="-106" xMax="1194" yMax="1573">
      <contour>
        <pt x="1056" y="1250" on="1"/>
        <pt x="1033" y="1250" on="0"/>
        <pt x="1005" y="1259" on="1"/>
        <pt x="876" y="1301" on="0"/>
        <pt x="690" y="1301" on="1"/>
        <pt x="629" y="1301" on="0"/>
        <pt x="470" y="1285" on="0"/>
        <pt x="373" y="1269" on="1"/>
        <pt x="375" y="1077" on="0"/>
        <pt x="373" y="939" on="1"/>
        <pt x="525" y="976" on="0"/>
        <pt x="625" y="976" on="1"/>
        <pt x="811" y="976" on="0"/>
        <pt x="949" y="959" on="1"/>
        <pt x="1078" y="943" on="0"/>
        <pt x="1078" y="823" on="1"/>
        <pt x="1078" y="765" on="0"/>
        <pt x="996" y="687" on="0"/>
        <pt x="937" y="687" on="1"/>
        <pt x="885" y="687" on="0"/>
        <pt x="677" y="703" on="0"/>
        <pt x="625" y="703" on="1"/>
        <pt x="552" y="703" on="0"/>
        <pt x="373" y="657" on="1"/>
        <pt x="373" y="30" on="1"/>
        <pt x="373" y="-28" on="0"/>
        <pt x="282" y="-106" on="0"/>
        <pt x="223" y="-106" on="1"/>
        <pt x="165" y="-106" on="0"/>
        <pt x="93" y="-29" on="0"/>
        <pt x="93" y="30" on="1"/>
        <pt x="93" y="1176" on="1"/>
        <pt x="93" y="1215" on="0"/>
        <pt x="96" y="1373" on="0"/>
        <pt x="96" y="1412" on="1"/>
        <pt x="96" y="1471" on="0"/>
        <pt x="175" y="1549" on="0"/>
        <pt x="235" y="1549" on="1"/>
        <pt x="273" y="1549" on="0"/>
        <pt x="302" y="1534" on="1"/>
        <pt x="418" y="1554" on="0"/>
        <pt x="612" y="1573" on="0"/>
        <pt x="690" y="1573" on="1"/>
        <pt x="804" y="1573" on="0"/>
        <pt x="977" y="1526" on="1"/>
        <pt x="1194" y="1467" on="0"/>
        <pt x="1194" y="1389" on="1"/>
        <pt x="1194" y="1332" on="0"/>
        <pt x="1113" y="1250" on="0"/>
      </contour>
    </TTGlyph>
    <TTGlyph name="G" xMin="39" yMin="-69" xMax="1395" yMax="1571">
      <contour>
        <pt x="1335" y="588" on="1"/>
        <pt x="1267" y="290" on="0"/>
        <pt x="1061" y="111" on="1"/>
        <pt x="852" y="-69" on="0"/>
        <pt x="571" y="-69" on="1"/>
        <pt x="305" y="-69" on="0"/>
        <pt x="39" y="212" on="0"/>
        <pt x="39" y="493" on="1"/>
        <pt x="39" y="749" on="0"/>
        <pt x="291" y="1287" on="0"/>
        <pt x="489" y="1454" on="1"/>
        <pt x="628" y="1571" on="0"/>
        <pt x="787" y="1571" on="1"/>
        <pt x="884" y="1571" on="0"/>
        <pt x="1051" y="1501" on="1"/>
        <pt x="1249" y="1418" on="0"/>
        <pt x="1249" y="1324" on="1"/>
        <pt x="1249" y="1270" on="0"/>
        <pt x="1167" y="1185" on="0"/>
        <pt x="1107" y="1185" on="1"/>
        <pt x="1077" y="1185" on="0"/>
        <pt x="872" y="1298" on="0"/>
        <pt x="787" y="1298" on="1"/>
        <pt x="697" y="1298" on="0"/>
        <pt x="544" y="1104" on="1"/>
        <pt x="321" y="822" on="0"/>
        <pt x="321" y="493" on="1"/>
        <pt x="321" y="326" on="0"/>
        <pt x="370" y="266" on="1"/>
        <pt x="422" y="203" on="0"/>
        <pt x="571" y="203" on="1"/>
        <pt x="724" y="203" on="0"/>
        <pt x="840" y="290" on="1"/>
        <pt x="963" y="382" on="0"/>
        <pt x="1022" y="558" on="1"/>
        <pt x="790" y="540" on="0"/>
        <pt x="618" y="463" on="1"/>
        <pt x="587" y="449" on="0"/>
        <pt x="556" y="449" on="1"/>
        <pt x="494" y="449" on="0"/>
        <pt x="453" y="495" on="1"/>
        <pt x="416" y="536" on="0"/>
        <pt x="416" y="588" on="1"/>
        <pt x="416" y="741" on="0"/>
        <pt x="778" y="802" on="1"/>
        <pt x="982" y="836" on="0"/>
        <pt x="1254" y="836" on="1"/>
        <pt x="1314" y="836" on="0"/>
        <pt x="1395" y="758" on="0"/>
        <pt x="1395" y="701" on="1"/>
        <pt x="1395" y="628" on="0"/>
      </contour>
    </TTGlyph>
    <TTGlyph name="Gamma" xMin="61" yMin="-93" xMax="1129" yMax="1545">
      <contour>
        <pt x="1129" y="1366" on="1"/>
        <pt x="1129" y="1491" on="0"/>
        <pt x="903" y="1529" on="1"/>
        <pt x="807" y="1545" on="0"/>
        <pt x="580" y="1545" on="1"/>
        <pt x="535" y="1545" on="0"/>
        <pt x="352" y="1542" on="0"/>
        <pt x="306" y="1542" on="1"/>
        <pt x="61" y="1542" on="0"/>
        <pt x="61" y="1327" on="1"/>
        <pt x="61" y="1337" on="0"/>
        <pt x="81" y="1010" on="1"/>
        <pt x="107" y="585" on="0"/>
        <pt x="107" y="44" on="1"/>
        <pt x="107" y="-14" on="0"/>
        <pt x="188" y="-93" on="0"/>
        <pt x="246" y="-93" on="1"/>
        <pt x="304" y="-93" on="0"/>
        <pt x="386" y="-14" on="0"/>
        <pt x="386" y="44" on="1"/>
        <pt x="386" y="595" on="0"/>
        <pt x="359" y="1026" on="1"/>
        <pt x="350" y="1108" on="0"/>
        <pt x="340" y="1271" on="1"/>
        <pt x="375" y="1271" on="1"/>
        <pt x="419" y="1270" on="0"/>
        <pt x="502" y="1273" on="1"/>
        <pt x="590" y="1276" on="0"/>
        <pt x="629" y="1276" on="1"/>
        <pt x="803" y="1276" on="0"/>
        <pt x="948" y="1235" on="1"/>
        <pt x="973" y="1228" on="0"/>
        <pt x="992" y="1228" on="1"/>
        <pt x="1049" y="1228" on="0"/>
        <pt x="1129" y="1309" on="0"/>
      </contour>
    </TTGlyph>
    <TTGlyph name="Gbreve" xMin="39" yMin="-69" xMax="1395" yMax="2039">
      <component glyphName="G" x="0" y="0" flags="0x204"/>
      <component glyphName="breve" x="190" y="450" flags="0x4"/>
    </TTGlyph>
    <TTGlyph name="Gcedilla" xMin="39" yMin="-445" xMax="1395" yMax="1571">
      <component glyphName="G" x="0" y="0" flags="0x204"/>
      <component glyphName="cedilla" x="0" y="0" flags="0x4"/>
    </TTGlyph>
    <TTGlyph name="Gcircumflex" xMin="39" yMin="-69" xMax="1395" yMax="2140">
      <component glyphName="G" x="0" y="0" flags="0x204"/>
      <component glyphName="circumflex" x="230" y="450" flags="0x4"/>
    </TTGlyph>
    <TTGlyph name="Gdot" xMin="39" yMin="-69" xMax="1395" yMax="1894">
      <component glyphName="G" x="0" y="0" flags="0x204"/>
      <component glyphName="dotaccent" x="410" y="450" flags="0x4"/>
    </TTGlyph>
    <TTGlyph name="H" xMin="112" yMin="-83" xMax="1505" yMax="1554">
      <contour>
        <pt x="1501" y="1387" on="1"/>
        <pt x="1481" y="1314" on="0"/>
        <pt x="1481" y="1260" on="1"/>
        <pt x="1481" y="1232" on="0"/>
        <pt x="1470" y="1115" on="0"/>
        <pt x="1470" y="1087" on="1"/>
        <pt x="1470" y="992" on="0"/>
        <pt x="1450" y="618" on="0"/>
        <pt x="1450" y="523" on="1"/>
        <pt x="1450" y="450" on="0"/>
        <pt x="1472" y="160" on="0"/>
        <pt x="1472" y="87" on="1"/>
        <pt x="1472" y="32" on="0"/>
        <pt x="1394" y="-44" on="0"/>
        <pt x="1336" y="-44" on="1"/>
        <pt x="1277" y="-44" on="0"/>
        <pt x="1191" y="31" on="0"/>
        <pt x="1191" y="85" on="1"/>
        <pt x="1191" y="158" on="0"/>
        <pt x="1178" y="450" on="0"/>
        <pt x="1178" y="523" on="1"/>
        <pt x="1178" y="580" on="0"/>
        <pt x="1180" y="624" on="1"/>
        <pt x="1023" y="617" on="0"/>
        <pt x="792" y="575" on="1"/>
        <pt x="600" y="540" on="0"/>
        <pt x="408" y="504" on="1"/>
        <pt x="406" y="436" on="0"/>
        <pt x="394" y="277" on="1"/>
        <pt x="384" y="137" on="0"/>
        <pt x="384" y="48" on="1"/>
        <pt x="384" y="-7" on="0"/>
        <pt x="306" y="-83" on="0"/>
        <pt x="248" y="-83" on="1"/>
        <pt x="190" y="-83" on="0"/>
        <pt x="112" y="-7" on="0"/>
        <pt x="112" y="48" on="1"/>
        <pt x="112" y="149" on="0"/>
        <pt x="147" y="551" on="0"/>
        <pt x="147" y="652" on="1"/>
        <pt x="147" y="780" on="0"/>
        <pt x="159" y="1295" on="0"/>
        <pt x="159" y="1423" on="1"/>
        <pt x="159" y="1478" on="0"/>
        <pt x="237" y="1554" on="0"/>
        <pt x="295" y="1554" on="1"/>
        <pt x="353" y="1554" on="0"/>
        <pt x="431" y="1478" on="0"/>
        <pt x="431" y="1423" on="1"/>
        <pt x="431" y="1347" on="0"/>
        <pt x="420" y="1042" on="0"/>
        <pt x="420" y="966" on="1"/>
        <pt x="420" y="941" on="0"/>
        <pt x="413" y="870" on="1"/>
        <pt x="407" y="804" on="0"/>
        <pt x="408" y="769" on="1"/>
        <pt x="792" y="841" on="1"/>
        <pt x="1017" y="881" on="0"/>
        <pt x="1180" y="887" on="1"/>
        <pt x="1184" y="954" on="0"/>
        <pt x="1193" y="1247" on="1"/>
        <pt x="1195" y="1324" on="0"/>
        <pt x="1240" y="1424" on="1"/>
        <pt x="1296" y="1547" on="0"/>
        <pt x="1367" y="1547" on="1"/>
        <pt x="1420" y="1547" on="0"/>
        <pt x="1461" y="1512" on="1"/>
        <pt x="1505" y="1474" on="0"/>
        <pt x="1505" y="1417" on="1"/>
        <pt x="1505" y="1402" on="0"/>
      </contour>
    </TTGlyph>
    <TTGlyph name="H18533" xMin="376" yMin="121" xMax="918" yMax="663">
      <contour>
        <pt x="918" y="392" on="1"/>
        <pt x="918" y="280" on="0"/>
        <pt x="759" y="121" on="0"/>
        <pt x="647" y="121" on="1"/>
        <pt x="535" y="121" on="0"/>
        <pt x="376" y="280" on="0"/>
        <pt x="376" y="392" on="1"/>
        <pt x="376" y="504" on="0"/>
        <pt x="535" y="663" on="0"/>
        <pt x="647" y="663" on="1"/>
        <pt x="759" y="663" on="0"/>
        <pt x="918" y="504" on="0"/>
      </contour>
    </TTGlyph>
    <TTGlyph name="H18543" xMin="386" yMin="124" xMax="918" yMax="656">
      <contour>
        <pt x="918" y="124" on="1"/>
        <pt x="386" y="124" on="1"/>
        <pt x="386" y="656" on="1"/>
        <pt x="918" y="656" on="1"/>
      </contour>
    </TTGlyph>
    <TTGlyph name="H18551" xMin="369" yMin="106" xMax="936" yMax="674">
      <contour>
        <pt x="936" y="106" on="1"/>
        <pt x="369" y="106" on="1"/>
        <pt x="369" y="674" on="1"/>
        <pt x="936" y="674" on="1"/>
      </contour>
      <contour>
        <pt x="901" y="141" on="1"/>
        <pt x="901" y="639" on="1"/>
        <pt x="404" y="639" on="1"/>
        <pt x="404" y="141" on="1"/>
      </contour>
    </TTGlyph>
    <TTGlyph name="H22073" xMin="364" yMin="0" xMax="1143" yMax="780">
      <contour>
        <pt x="1143" y="0" on="1"/>
        <pt x="364" y="0" on="1"/>
        <pt x="364" y="780" on="1"/>
        <pt x="1143" y="780" on="1"/>
      </contour>
      <contour>
        <pt x="1108" y="35" on="1"/>
        <pt x="1108" y="745" on="1"/>
        <pt x="399" y="745" on="1"/>
        <pt x="399" y="35" on="1"/>
      </contour>
    </TTGlyph>
    <TTGlyph name="Hbar" xMin="44" yMin="-83" xMax="1775" yMax="1554">
      <contour>
        <pt x="1775" y="1259" on="1"/>
        <pt x="1775" y="1169" on="0"/>
        <pt x="1600" y="1139" on="1"/>
        <pt x="1599" y="1044" on="0"/>
        <pt x="1589" y="831" on="1"/>
        <pt x="1580" y="632" on="0"/>
        <pt x="1580" y="523" on="1"/>
        <pt x="1580" y="450" on="0"/>
        <pt x="1602" y="160" on="0"/>
        <pt x="1602" y="87" on="1"/>
        <pt x="1602" y="31" on="0"/>
        <pt x="1522" y="-44" on="0"/>
        <pt x="1466" y="-44" on="1"/>
        <pt x="1410" y="-44" on="0"/>
        <pt x="1367" y="-8" on="1"/>
        <pt x="1321" y="30" on="0"/>
        <pt x="1321" y="85" on="1"/>
        <pt x="1321" y="151" on="0"/>
        <pt x="1313" y="354" on="1"/>
        <pt x="1306" y="522" on="0"/>
        <pt x="1310" y="624" on="1"/>
        <pt x="1151" y="617" on="0"/>
        <pt x="923" y="575" on="1"/>
        <pt x="730" y="540" on="0"/>
        <pt x="538" y="504" on="1"/>
        <pt x="536" y="438" on="0"/>
        <pt x="525" y="276" on="1"/>
        <pt x="514" y="131" on="0"/>
        <pt x="514" y="48" on="1"/>
        <pt x="514" y="-8" on="0"/>
        <pt x="434" y="-83" on="0"/>
        <pt x="378" y="-83" on="1"/>
        <pt x="322" y="-83" on="0"/>
        <pt x="242" y="-8" on="0"/>
        <pt x="242" y="48" on="1"/>
        <pt x="242" y="149" on="0"/>
        <pt x="277" y="551" on="0"/>
        <pt x="277" y="652" on="1"/>
        <pt x="277" y="804" on="0"/>
        <pt x="284" y="1145" on="1"/>
        <pt x="264" y="1145" on="0"/>
        <pt x="183" y="1139" on="0"/>
        <pt x="163" y="1139" on="1"/>
        <pt x="114" y="1139" on="0"/>
        <pt x="44" y="1196" on="0"/>
        <pt x="44" y="1244" on="1"/>
        <pt x="44" y="1322" on="0"/>
        <pt x="135" y="1344" on="1"/>
        <pt x="177" y="1355" on="0"/>
        <pt x="289" y="1355" on="1"/>
        <pt x="290" y="1450" on="0"/>
        <pt x="309" y="1491" on="1"/>
        <pt x="339" y="1554" on="0"/>
        <pt x="425" y="1554" on="1"/>
        <pt x="511" y="1554" on="0"/>
        <pt x="542" y="1490" on="1"/>
        <pt x="562" y="1446" on="0"/>
        <pt x="560" y="1353" on="1"/>
        <pt x="825" y="1350" on="0"/>
        <pt x="861" y="1350" on="1"/>
        <pt x="942" y="1350" on="0"/>
        <pt x="1099" y="1340" on="1"/>
        <pt x="1260" y="1331" on="0"/>
        <pt x="1338" y="1330" on="1"/>
        <pt x="1395" y="1547" on="0"/>
        <pt x="1497" y="1547" on="1"/>
        <pt x="1552" y="1547" on="0"/>
        <pt x="1635" y="1471" on="0"/>
        <pt x="1635" y="1417" on="1"/>
        <pt x="1635" y="1400" on="0"/>
        <pt x="1623" y="1359" on="1"/>
        <pt x="1642" y="1363" on="0"/>
        <pt x="1660" y="1363" on="1"/>
        <pt x="1707" y="1363" on="0"/>
        <pt x="1775" y="1305" on="0"/>
      </contour>
      <contour>
        <pt x="1319" y="1121" on="1"/>
        <pt x="1251" y="1122" on="0"/>
        <pt x="1090" y="1131" on="1"/>
        <pt x="943" y="1140" on="0"/>
        <pt x="861" y="1140" on="1"/>
        <pt x="834" y="1140" on="0"/>
        <pt x="552" y="1143" on="1"/>
        <pt x="550" y="1062" on="0"/>
        <pt x="550" y="966" on="1"/>
        <pt x="550" y="936" on="0"/>
        <pt x="537" y="814" on="0"/>
        <pt x="538" y="782" on="1"/>
        <pt x="538" y="769" on="1"/>
        <pt x="730" y="805" on="0"/>
        <pt x="922" y="840" on="1"/>
        <pt x="1150" y="881" on="0"/>
        <pt x="1310" y="887" on="1"/>
        <pt x="1314" y="944" on="0"/>
      </contour>
    </TTGlyph>
    <TTGlyph name="Hcircumflex" xMin="112" yMin="-83" xMax="1505" yMax="2140">
      <component glyphName="H" x="0" y="0" flags="0x204"/>
      <component glyphName="circumflex" x="230" y="450" flags="0x4"/>
    </TTGlyph>
    <TTGlyph name="I" xMin="35" yMin="-36" xMax="1100" yMax="1494">
      <contour>
        <pt x="957" y="1182" on="1"/>
        <pt x="905" y="1182" on="0"/>
        <pt x="672" y="1210" on="1"/>
        <pt x="658" y="1026" on="0"/>
        <pt x="658" y="721" on="1"/>
        <pt x="657" y="272" on="1"/>
        <pt x="790" y="275" on="0"/>
        <pt x="928" y="275" on="1"/>
        <pt x="988" y="275" on="0"/>
        <pt x="1067" y="195" on="0"/>
        <pt x="1067" y="139" on="1"/>
        <pt x="1067" y="83" on="0"/>
        <pt x="988" y="4" on="0"/>
        <pt x="928" y="4" on="1"/>
        <pt x="872" y="4" on="0"/>
        <pt x="648" y="-1" on="0"/>
        <pt x="592" y="-1" on="1"/>
        <pt x="526" y="-1" on="0"/>
        <pt x="262" y="-36" on="0"/>
        <pt x="196" y="-36" on="1"/>
        <pt x="136" y="-36" on="0"/>
        <pt x="57" y="43" on="0"/>
        <pt x="57" y="99" on="1"/>
        <pt x="57" y="155" on="0"/>
        <pt x="136" y="235" on="0"/>
        <pt x="196" y="235" on="1"/>
        <pt x="264" y="235" on="0"/>
        <pt x="375" y="250" on="1"/>
        <pt x="373" y="368" on="0"/>
        <pt x="373" y="702" on="1"/>
        <pt x="373" y="974" on="0"/>
        <pt x="393" y="1221" on="1"/>
        <pt x="176" y="1215" on="1"/>
        <pt x="116" y="1215" on="0"/>
        <pt x="35" y="1293" on="0"/>
        <pt x="35" y="1351" on="1"/>
        <pt x="35" y="1410" on="0"/>
        <pt x="75" y="1447" on="1"/>
        <pt x="112" y="1481" on="0"/>
        <pt x="166" y="1486" on="1"/>
        <pt x="254" y="1494" on="0"/>
        <pt x="472" y="1494" on="1"/>
        <pt x="668" y="1494" on="0"/>
        <pt x="977" y="1452" on="1"/>
        <pt x="1100" y="1435" on="0"/>
        <pt x="1100" y="1314" on="1"/>
        <pt x="1100" y="1250" on="0"/>
        <pt x="1050" y="1213" on="1"/>
        <pt x="1009" y="1182" on="0"/>
      </contour>
    </TTGlyph>
    <TTGlyph name="IJ" xMin="35" yMin="-120" xMax="2350" yMax="1515">
      <component glyphName="I" x="0" y="0" flags="0x4"/>
      <component glyphName="J" x="1014" y="0" flags="0x4"/>
    </TTGlyph>
    <TTGlyph name="Iacute" xMin="35" yMin="-36" xMax="1100" yMax="2108">
      <component glyphName="I" x="0" y="0" flags="0x4"/>
      <component glyphName="acute" x="160" y="443" flags="0x4"/>
    </TTGlyph>
    <TTGlyph name="Ibreve" xMin="35" yMin="-36" xMax="1100" yMax="2039">
      <component glyphName="I" x="0" y="0" flags="0x204"/>
      <component glyphName="breve" x="-80" y="450" flags="0x4"/>
    </TTGlyph>
    <TTGlyph name="Icircumflex" xMin="75" yMin="-36" xMax="1140" yMax="2177">
      <component glyphName="I" x="40" y="0" flags="0x4"/>
      <component glyphName="circumflex" x="24" y="487" flags="0x4"/>
    </TTGlyph>
    <TTGlyph name="Idieresis" xMin="35" yMin="-36" xMax="1100" yMax="1905">
      <component glyphName="I" x="0" y="0" flags="0x4"/>
      <component glyphName="dieresis" x="-28" y="470" flags="0x4"/>
    </TTGlyph>
    <TTGlyph name="Idotaccent" xMin="35" yMin="-36" xMax="1100" yMax="1894">
      <component glyphName="I" x="0" y="0" flags="0x204"/>
      <component glyphName="dotaccent" x="120" y="450" flags="0x4"/>
    </TTGlyph>
    <TTGlyph name="Igrave" xMin="75" yMin="-36" xMax="1140" yMax="2102">
      <component glyphName="I" x="40" y="0" flags="0x4"/>
      <component glyphName="grave" x="217" y="441" flags="0x4"/>
    </TTGlyph>
    <TTGlyph name="Imacron" xMin="35" yMin="-36" xMax="1100" yMax="1834">
      <component glyphName="I" x="0" y="0" flags="0x204"/>
      <component glyphName="macron" x="-60" y="450" flags="0x4"/>
    </TTGlyph>
    <TTGlyph name="Iogonek" xMin="35" yMin="-419" xMax="1100" yMax="1494">
      <component glyphName="I" x="0" y="0" flags="0x204"/>
      <component glyphName="ogonek" x="70" y="-75" flags="0x4"/>
    </TTGlyph>
    <TTGlyph name="Iota" xMin="35" yMin="-36" xMax="1100" yMax="1494">
      <component glyphName="I" x="0" y="0" flags="0x204"/>
    </TTGlyph>
    <TTGlyph name="Iotadieresis" xMin="35" yMin="-36" xMax="1100" yMax="1905">
      <component glyphName="I" x="0" y="0" flags="0x4"/>
      <component glyphName="dieresis" x="2" y="470" flags="0x4"/>
    </TTGlyph>
    <TTGlyph name="Iotatonos" xMin="84" yMin="-36" xMax="1570" yMax="1562">
      <component glyphName="I" x="470" y="0" flags="0x4"/>
      <component glyphName="tonos" x="-341" y="0" flags="0x4"/>
    </TTGlyph>
    <TTGlyph name="Itilde" xMin="35" yMin="-36" xMax="1100" yMax="2004">
      <component glyphName="I" x="0" y="0" flags="0x204"/>
      <component glyphName="tilde" x="-80" y="450" flags="0x4"/>
    </TTGlyph>
    <TTGlyph name="J" xMin="54" yMin="-120" xMax="1336" yMax="1515">
      <contour>
        <pt x="1197" y="1228" on="1"/>
        <pt x="1179" y="1228" on="0"/>
        <pt x="1101" y="1235" on="0"/>
        <pt x="1077" y="1235" on="1"/>
        <pt x="999" y="1235" on="1"/>
        <pt x="998" y="1252" on="0"/>
        <pt x="998" y="1164" on="1"/>
        <pt x="998" y="448" on="0"/>
        <pt x="897" y="121" on="1"/>
        <pt x="823" y="-120" on="0"/>
        <pt x="628" y="-120" on="1"/>
        <pt x="442" y="-120" on="0"/>
        <pt x="260" y="8" on="1"/>
        <pt x="54" y="151" on="0"/>
        <pt x="54" y="344" on="1"/>
        <pt x="54" y="500" on="0"/>
        <pt x="195" y="500" on="1"/>
        <pt x="336" y="500" on="0"/>
        <pt x="336" y="346" on="1"/>
        <pt x="336" y="287" on="0"/>
        <pt x="539" y="152" on="0"/>
        <pt x="628" y="152" on="1"/>
        <pt x="664" y="152" on="0"/>
        <pt x="680" y="285" on="1"/>
        <pt x="684" y="317" on="0"/>
        <pt x="702" y="596" on="1"/>
        <pt x="717" y="824" on="0"/>
        <pt x="717" y="1164" on="1"/>
        <pt x="717" y="1178" on="0"/>
        <pt x="714" y="1229" on="1"/>
        <pt x="691" y="1228" on="1"/>
        <pt x="647" y="1226" on="0"/>
        <pt x="573" y="1229" on="1"/>
        <pt x="484" y="1233" on="0"/>
        <pt x="455" y="1233" on="1"/>
        <pt x="396" y="1233" on="0"/>
        <pt x="355" y="1269" on="1"/>
        <pt x="311" y="1308" on="0"/>
        <pt x="311" y="1370" on="1"/>
        <pt x="311" y="1506" on="0"/>
        <pt x="490" y="1506" on="1"/>
        <pt x="524" y="1506" on="0"/>
        <pt x="658" y="1501" on="0"/>
        <pt x="691" y="1501" on="1"/>
        <pt x="754" y="1501" on="0"/>
        <pt x="1005" y="1515" on="0"/>
        <pt x="1068" y="1515" on="1"/>
        <pt x="1336" y="1515" on="0"/>
        <pt x="1336" y="1366" on="1"/>
        <pt x="1336" y="1314" on="0"/>
        <pt x="1300" y="1273" on="1"/>
        <pt x="1259" y="1228" on="0"/>
      </contour>
    </TTGlyph>
    <TTGlyph name="Jcircumflex" xMin="54" yMin="-120" xMax="1336" yMax="2140">
      <component glyphName="J" x="0" y="0" flags="0x204"/>
      <component glyphName="circumflex" x="240" y="450" flags="0x4"/>
    </TTGlyph>
    <TTGlyph name="K" xMin="108" yMin="-110" xMax="1217" yMax="1531">
      <contour>
        <pt x="395" y="443" on="1"/>
        <pt x="394" y="22" on="1"/>
        <pt x="394" y="-22" on="0"/>
        <pt x="369" y="-59" on="1"/>
        <pt x="334" y="-110" on="0"/>
        <pt x="267" y="-110" on="1"/>
        <pt x="188" y="-110" on="0"/>
        <pt x="143" y="-46" on="1"/>
        <pt x="108" y="4" on="0"/>
        <pt x="108" y="61" on="1"/>
        <pt x="108" y="283" on="0"/>
        <pt x="136" y="1173" on="0"/>
        <pt x="136" y="1395" on="1"/>
        <pt x="136" y="1451" on="0"/>
        <pt x="216" y="1531" on="0"/>
        <pt x="276" y="1531" on="1"/>
        <pt x="336" y="1531" on="0"/>
        <pt x="415" y="1451" on="0"/>
        <pt x="415" y="1395" on="1"/>
        <pt x="415" y="1305" on="0"/>
        <pt x="406" y="1152" on="1"/>
        <pt x="395" y="974" on="0"/>
        <pt x="393" y="909" on="1"/>
        <pt x="463" y="975" on="0"/>
        <pt x="912" y="1465" on="1"/>
        <pt x="958" y="1515" on="0"/>
        <pt x="1018" y="1515" on="1"/>
        <pt x="1075" y="1515" on="0"/>
        <pt x="1160" y="1435" on="0"/>
        <pt x="1160" y="1378" on="1"/>
        <pt x="1160" y="1316" on="0"/>
        <pt x="922" y="1056" on="1"/>
        <pt x="746" y="865" on="0"/>
        <pt x="551" y="679" on="1"/>
        <pt x="660" y="576" on="0"/>
        <pt x="770" y="473" on="1"/>
        <pt x="898" y="355" on="0"/>
        <pt x="1000" y="279" on="1"/>
        <pt x="1051" y="242" on="0"/>
        <pt x="1110" y="223" on="1"/>
        <pt x="1217" y="189" on="0"/>
        <pt x="1217" y="92" on="1"/>
        <pt x="1217" y="49" on="0"/>
        <pt x="1190" y="9" on="1"/>
        <pt x="1153" y="-45" on="0"/>
        <pt x="1087" y="-45" on="1"/>
        <pt x="944" y="-45" on="0"/>
        <pt x="716" y="142" on="1"/>
        <pt x="648" y="198" on="0"/>
      </contour>
    </TTGlyph>
    <TTGlyph name="Kappa" xMin="108" yMin="-110" xMax="1217" yMax="1531">
      <component glyphName="K" x="0" y="0" flags="0x204"/>
    </TTGlyph>
    <TTGlyph name="Kcedilla" xMin="108" yMin="-465" xMax="1217" yMax="1531">
      <component glyphName="K" x="0" y="0" flags="0x204"/>
      <component glyphName="cedilla" x="40" y="-20" flags="0x4"/>
    </TTGlyph>
    <TTGlyph name="L" xMin="61" yMin="-93" xMax="1129" yMax="1542">
      <contour>
        <pt x="1042" y="38" on="1"/>
        <pt x="924" y="-14" on="0"/>
        <pt x="677" y="-55" on="1"/>
        <pt x="451" y="-93" on="0"/>
        <pt x="306" y="-93" on="1"/>
        <pt x="61" y="-93" on="0"/>
        <pt x="61" y="122" on="1"/>
        <pt x="61" y="105" on="0"/>
        <pt x="81" y="439" on="1"/>
        <pt x="107" y="873" on="0"/>
        <pt x="107" y="1405" on="1"/>
        <pt x="107" y="1462" on="0"/>
        <pt x="186" y="1542" on="0"/>
        <pt x="246" y="1542" on="1"/>
        <pt x="306" y="1542" on="0"/>
        <pt x="386" y="1462" on="0"/>
        <pt x="386" y="1405" on="1"/>
        <pt x="386" y="872" on="0"/>
        <pt x="359" y="423" on="1"/>
        <pt x="350" y="343" on="0"/>
        <pt x="340" y="178" on="1"/>
        <pt x="577" y="182" on="0"/>
        <pt x="948" y="294" on="1"/>
        <pt x="971" y="301" on="0"/>
        <pt x="992" y="301" on="1"/>
        <pt x="1055" y="301" on="0"/>
        <pt x="1094" y="255" on="1"/>
        <pt x="1129" y="214" on="0"/>
        <pt x="1129" y="163" on="1"/>
        <pt x="1129" y="77" on="0"/>
      </contour>
    </TTGlyph>
    <TTGlyph name="Lacute" xMin="61" yMin="-93" xMax="1129" yMax="2115">
      <component glyphName="L" x="0" y="0" flags="0x204"/>
      <component glyphName="acute" x="90" y="450" flags="0x4"/>
    </TTGlyph>
    <TTGlyph name="Lambda" xMin="-5" yMin="-103" xMax="1435" yMax="1580">
      <contour>
        <pt x="740" y="1007" on="1"/>
        <pt x="690" y="890" on="0"/>
        <pt x="533" y="580" on="1"/>
        <pt x="398" y="313" on="0"/>
        <pt x="336" y="148" on="1"/>
        <pt x="288" y="19" on="0"/>
        <pt x="241" y="-44" on="1"/>
        <pt x="197" y="-103" on="0"/>
        <pt x="135" y="-103" on="1"/>
        <pt x="80" y="-103" on="0"/>
        <pt x="-5" y="-23" on="0"/>
        <pt x="-5" y="31" on="1"/>
        <pt x="-5" y="66" on="0"/>
        <pt x="21" y="109" on="1"/>
        <pt x="65" y="182" on="0"/>
        <pt x="174" y="420" on="1"/>
        <pt x="285" y="651" on="0"/>
        <pt x="496" y="1118" on="1"/>
        <pt x="531" y="1199" on="0"/>
        <pt x="626" y="1464" on="1"/>
        <pt x="667" y="1580" on="0"/>
        <pt x="758" y="1580" on="1"/>
        <pt x="864" y="1580" on="0"/>
        <pt x="909" y="1298" on="0"/>
        <pt x="983" y="1126" on="1"/>
        <pt x="1050" y="977" on="0"/>
        <pt x="1118" y="828" on="1"/>
        <pt x="1128" y="807" on="0"/>
        <pt x="1251" y="490" on="1"/>
        <pt x="1325" y="301" on="0"/>
        <pt x="1410" y="156" on="1"/>
        <pt x="1435" y="114" on="0"/>
        <pt x="1435" y="80" on="1"/>
        <pt x="1435" y="25" on="0"/>
        <pt x="1349" y="-54" on="0"/>
        <pt x="1295" y="-54" on="1"/>
        <pt x="1232" y="-54" on="0"/>
        <pt x="1187" y="8" on="1"/>
        <pt x="1098" y="130" on="0"/>
        <pt x="1012" y="354" on="1"/>
        <pt x="942" y="537" on="0"/>
        <pt x="872" y="721" on="1"/>
        <pt x="827" y="816" on="0"/>
      </contour>
    </TTGlyph>
    <TTGlyph name="Lcaron" xMin="61" yMin="-93" xMax="1129" yMax="1542">
      <component glyphName="L" x="0" y="0" flags="0x204"/>
      <component glyphName="uF004" x="310" y="-160" flags="0x4"/>
    </TTGlyph>
    <TTGlyph name="Lcedilla" xMin="61" yMin="-445" xMax="1129" yMax="1542">
      <component glyphName="L" x="0" y="0" flags="0x204"/>
      <component glyphName="cedilla" x="0" y="0" flags="0x4"/>
    </TTGlyph>
    <TTGlyph name="Ldot" xMin="61" yMin="-93" xMax="1129" yMax="1542">
      <component glyphName="L" x="0" y="0" flags="0x204"/>
      <component glyphName="middot" x="550" y="0" flags="0x4"/>
    </TTGlyph>
    <TTGlyph name="Lslash" xMin="4" yMin="-93" xMax="1303" yMax="1542">
      <contour>
        <pt x="513" y="178" on="1"/>
        <pt x="729" y="181" on="0"/>
        <pt x="1122" y="294" on="1"/>
        <pt x="1146" y="301" on="0"/>
        <pt x="1165" y="301" on="1"/>
        <pt x="1225" y="301" on="0"/>
        <pt x="1303" y="217" on="0"/>
        <pt x="1303" y="163" on="1"/>
        <pt x="1303" y="78" on="0"/>
        <pt x="1215" y="38" on="1"/>
        <pt x="1099" y="-14" on="0"/>
        <pt x="853" y="-55" on="1"/>
        <pt x="627" y="-93" on="0"/>
        <pt x="480" y="-93" on="1"/>
        <pt x="235" y="-93" on="0"/>
        <pt x="235" y="122" on="1"/>
        <pt x="235" y="186" on="0"/>
        <pt x="258" y="521" on="1"/>
        <pt x="239" y="514" on="1"/>
        <pt x="234" y="512" on="0"/>
        <pt x="193" y="490" on="1"/>
        <pt x="165" y="475" on="0"/>
        <pt x="143" y="475" on="1"/>
        <pt x="85" y="475" on="0"/>
        <pt x="4" y="559" on="0"/>
        <pt x="4" y="612" on="1"/>
        <pt x="4" y="677" on="0"/>
        <pt x="66" y="720" on="1"/>
        <pt x="135" y="767" on="0"/>
        <pt x="273" y="862" on="1"/>
        <pt x="280" y="1100" on="0"/>
        <pt x="280" y="1405" on="1"/>
        <pt x="280" y="1461" on="0"/>
        <pt x="360" y="1542" on="0"/>
        <pt x="420" y="1542" on="1"/>
        <pt x="480" y="1542" on="0"/>
        <pt x="559" y="1461" on="0"/>
        <pt x="559" y="1405" on="1"/>
        <pt x="559" y="1204" on="0"/>
        <pt x="556" y="1039" on="1"/>
        <pt x="649" y="1085" on="0"/>
        <pt x="689" y="1085" on="1"/>
        <pt x="748" y="1085" on="0"/>
        <pt x="826" y="1001" on="0"/>
        <pt x="826" y="948" on="1"/>
        <pt x="826" y="869" on="0"/>
        <pt x="742" y="830" on="1"/>
        <pt x="635" y="781" on="0"/>
        <pt x="547" y="724" on="1"/>
        <pt x="540" y="530" on="0"/>
        <pt x="533" y="423" on="1"/>
        <pt x="523" y="341" on="0"/>
      </contour>
    </TTGlyph>
    <TTGlyph name="M" xMin="72" yMin="-83" xMax="1771" yMax="1534">
      <contour>
        <pt x="529" y="790" on="1"/>
        <pt x="484" y="628" on="0"/>
        <pt x="403" y="301" on="1"/>
        <pt x="384" y="188" on="0"/>
        <pt x="366" y="76" on="1"/>
        <pt x="325" y="-66" on="0"/>
        <pt x="215" y="-66" on="1"/>
        <pt x="146" y="-66" on="0"/>
        <pt x="106" y="-19" on="1"/>
        <pt x="72" y="21" on="0"/>
        <pt x="72" y="76" on="1"/>
        <pt x="72" y="238" on="0"/>
        <pt x="141" y="471" on="1"/>
        <pt x="244" y="820" on="0"/>
        <pt x="252" y="858" on="1"/>
        <pt x="281" y="1012" on="0"/>
        <pt x="311" y="1166" on="1"/>
        <pt x="356" y="1378" on="0"/>
        <pt x="461" y="1519" on="0"/>
        <pt x="541" y="1519" on="1"/>
        <pt x="632" y="1519" on="0"/>
        <pt x="675" y="1427" on="1"/>
        <pt x="715" y="1340" on="0"/>
        <pt x="761" y="1071" on="1"/>
        <pt x="805" y="810" on="0"/>
        <pt x="892" y="509" on="1"/>
        <pt x="1006" y="806" on="0"/>
        <pt x="1104" y="1161" on="1"/>
        <pt x="1160" y="1391" on="1"/>
        <pt x="1214" y="1534" on="0"/>
        <pt x="1327" y="1534" on="1"/>
        <pt x="1436" y="1534" on="0"/>
        <pt x="1489" y="1368" on="1"/>
        <pt x="1511" y="1301" on="0"/>
        <pt x="1536" y="1118" on="1"/>
        <pt x="1594" y="692" on="0"/>
        <pt x="1682" y="388" on="1"/>
        <pt x="1771" y="79" on="0"/>
        <pt x="1771" y="52" on="1"/>
        <pt x="1771" y="-7" on="0"/>
        <pt x="1724" y="-47" on="1"/>
        <pt x="1680" y="-83" on="0"/>
        <pt x="1625" y="-83" on="1"/>
        <pt x="1516" y="-83" on="0"/>
        <pt x="1463" y="73" on="1"/>
        <pt x="1407" y="315" on="1"/>
        <pt x="1359" y="495" on="0"/>
        <pt x="1303" y="832" on="1"/>
        <pt x="1258" y="698" on="0"/>
        <pt x="1154" y="411" on="1"/>
        <pt x="1094" y="227" on="1"/>
        <pt x="1057" y="118" on="0"/>
        <pt x="1017" y="48" on="1"/>
        <pt x="964" y="-45" on="0"/>
        <pt x="869" y="-45" on="1"/>
        <pt x="775" y="-45" on="0"/>
        <pt x="725" y="66" on="1"/>
        <pt x="669" y="252" on="1"/>
        <pt x="591" y="508" on="0"/>
      </contour>
    </TTGlyph>
    <TTGlyph name="Mu" xMin="72" yMin="-83" xMax="1771" yMax="1534">
      <component glyphName="M" x="0" y="0" flags="0x204"/>
    </TTGlyph>
    <TTGlyph name="N" xMin="83" yMin="-79" xMax="1589" yMax="1551">
      <contour>
        <pt x="1581" y="246" on="1"/>
        <pt x="1581" y="196" on="0"/>
        <pt x="1564" y="88" on="1"/>
        <pt x="1544" y="-41" on="0"/>
        <pt x="1418" y="-41" on="1"/>
        <pt x="1348" y="-41" on="0"/>
        <pt x="1260" y="38" on="1"/>
        <pt x="875" y="385" on="0"/>
        <pt x="391" y="1011" on="1"/>
        <pt x="385" y="751" on="0"/>
        <pt x="385" y="692" on="1"/>
        <pt x="385" y="613" on="0"/>
        <pt x="392" y="295" on="0"/>
        <pt x="392" y="216" on="1"/>
        <pt x="392" y="-79" on="0"/>
        <pt x="248" y="-79" on="1"/>
        <pt x="175" y="-79" on="0"/>
        <pt x="131" y="-34" on="1"/>
        <pt x="92" y="6" on="0"/>
        <pt x="92" y="63" on="1"/>
        <pt x="92" y="103" on="0"/>
        <pt x="105" y="265" on="0"/>
        <pt x="105" y="305" on="1"/>
        <pt x="105" y="364" on="0"/>
        <pt x="113" y="600" on="0"/>
        <pt x="113" y="659" on="1"/>
        <pt x="113" y="722" on="0"/>
        <pt x="107" y="976" on="0"/>
        <pt x="107" y="1039" on="1"/>
        <pt x="107" y="1099" on="0"/>
        <pt x="83" y="1337" on="0"/>
        <pt x="83" y="1397" on="1"/>
        <pt x="83" y="1457" on="0"/>
        <pt x="186" y="1551" on="0"/>
        <pt x="252" y="1551" on="1"/>
        <pt x="326" y="1551" on="0"/>
        <pt x="416" y="1423" on="1"/>
        <pt x="870" y="775" on="0"/>
        <pt x="1312" y="366" on="1"/>
        <pt x="1313" y="398" on="0"/>
        <pt x="1313" y="518" on="1"/>
        <pt x="1313" y="1011" on="0"/>
        <pt x="1303" y="1183" on="1"/>
        <pt x="1301" y="1212" on="0"/>
        <pt x="1290" y="1291" on="1"/>
        <pt x="1280" y="1361" on="0"/>
        <pt x="1280" y="1401" on="1"/>
        <pt x="1280" y="1539" on="0"/>
        <pt x="1426" y="1539" on="1"/>
        <pt x="1589" y="1539" on="0"/>
        <pt x="1589" y="1036" on="1"/>
        <pt x="1589" y="1025" on="0"/>
        <pt x="1587" y="878" on="1"/>
        <pt x="1581" y="370" on="0"/>
      </contour>
    </TTGlyph>
    <TTGlyph name="Nacute" xMin="83" yMin="-79" xMax="1589" yMax="2115">
      <component glyphName="N" x="0" y="0" flags="0x204"/>
      <component glyphName="acute" x="490" y="450" flags="0x4"/>
    </TTGlyph>
    <TTGlyph name="Ncaron" xMin="83" yMin="-79" xMax="1589" yMax="2077">
      <component glyphName="N" x="0" y="0" flags="0x204"/>
      <component glyphName="caron" x="240" y="450" flags="0x4"/>
    </TTGlyph>
    <TTGlyph name="Ncedilla" xMin="83" yMin="-445" xMax="1589" yMax="1551">
      <component glyphName="N" x="0" y="0" flags="0x204"/>
      <component glyphName="cedilla" x="190" y="0" flags="0x4"/>
    </TTGlyph>
    <TTGlyph name="Ntilde" xMin="83" yMin="-79" xMax="1589" yMax="2024">
      <component glyphName="N" x="0" y="0" flags="0x4"/>
      <component glyphName="tilde" x="201" y="470" flags="0x4"/>
    </TTGlyph>
    <TTGlyph name="Nu" xMin="83" yMin="-79" xMax="1589" yMax="1551">
      <component glyphName="N" x="0" y="0" flags="0x204"/>
    </TTGlyph>
    <TTGlyph name="O" xMin="60" yMin="-61" xMax="1572" yMax="1515">
      <contour>
        <pt x="786" y="-61" on="1"/>
        <pt x="490" y="-61" on="0"/>
        <pt x="282" y="109" on="1"/>
        <pt x="60" y="291" on="0"/>
        <pt x="60" y="580" on="1"/>
        <pt x="60" y="920" on="0"/>
        <pt x="273" y="1200" on="1"/>
        <pt x="512" y="1515" on="0"/>
        <pt x="875" y="1515" on="1"/>
        <pt x="1224" y="1515" on="0"/>
        <pt x="1572" y="1195" on="0"/>
        <pt x="1572" y="874" on="1"/>
        <pt x="1572" y="534" on="0"/>
        <pt x="1376" y="258" on="1"/>
        <pt x="1150" y="-61" on="0"/>
      </contour>
      <contour>
        <pt x="875" y="1244" on="1"/>
        <pt x="652" y="1244" on="0"/>
        <pt x="493" y="1028" on="1"/>
        <pt x="344" y="826" on="0"/>
        <pt x="344" y="580" on="1"/>
        <pt x="344" y="414" on="0"/>
        <pt x="473" y="310" on="1"/>
        <pt x="597" y="210" on="0"/>
        <pt x="786" y="210" on="1"/>
        <pt x="1006" y="210" on="0"/>
        <pt x="1153" y="426" on="1"/>
        <pt x="1288" y="623" on="0"/>
        <pt x="1288" y="874" on="1"/>
        <pt x="1288" y="1084" on="0"/>
        <pt x="1194" y="1166" on="1"/>
        <pt x="1104" y="1244" on="0"/>
      </contour>
    </TTGlyph>
    <TTGlyph name="OE" xMin="90" yMin="-76" xMax="2470" yMax="1628">
      <contour>
        <pt x="2332" y="1304" on="1"/>
        <pt x="2312" y="1304" on="0"/>
        <pt x="2290" y="1310" on="1"/>
        <pt x="2125" y="1355" on="0"/>
        <pt x="1974" y="1355" on="1"/>
        <pt x="1901" y="1355" on="0"/>
        <pt x="1730" y="1331" on="0"/>
        <pt x="1631" y="1306" on="1"/>
        <pt x="1633" y="1290" on="0"/>
        <pt x="1635" y="1255" on="0"/>
        <pt x="1635" y="1235" on="1"/>
        <pt x="1635" y="1098" on="0"/>
        <pt x="1622" y="911" on="1"/>
        <pt x="1678" y="915" on="0"/>
        <pt x="2013" y="948" on="1"/>
        <pt x="2204" y="967" on="0"/>
        <pt x="2254" y="967" on="1"/>
        <pt x="2313" y="967" on="0"/>
        <pt x="2397" y="892" on="0"/>
        <pt x="2397" y="830" on="1"/>
        <pt x="2397" y="711" on="0"/>
        <pt x="2271" y="695" on="1"/>
        <pt x="2191" y="689" on="0"/>
        <pt x="2031" y="675" on="1"/>
        <pt x="1889" y="659" on="0"/>
        <pt x="1603" y="636" on="1"/>
        <pt x="1597" y="527" on="0"/>
        <pt x="1597" y="431" on="1"/>
        <pt x="1597" y="235" on="0"/>
        <pt x="1620" y="208" on="1"/>
        <pt x="1631" y="195" on="0"/>
        <pt x="1745" y="195" on="1"/>
        <pt x="1807" y="195" on="0"/>
        <pt x="2057" y="202" on="0"/>
        <pt x="2119" y="202" on="1"/>
        <pt x="2139" y="202" on="0"/>
        <pt x="2217" y="213" on="0"/>
        <pt x="2236" y="213" on="1"/>
        <pt x="2294" y="213" on="0"/>
        <pt x="2335" y="180" on="1"/>
        <pt x="2383" y="143" on="0"/>
        <pt x="2383" y="76" on="1"/>
        <pt x="2383" y="-36" on="0"/>
        <pt x="2265" y="-58" on="1"/>
        <pt x="2170" y="-76" on="0"/>
        <pt x="1851" y="-76" on="1"/>
        <pt x="1600" y="-76" on="0"/>
        <pt x="1498" y="-33" on="1"/>
        <pt x="1374" y="19" on="0"/>
        <pt x="1338" y="173" on="1"/>
        <pt x="1231" y="56" on="0"/>
        <pt x="970" y="-62" on="0"/>
        <pt x="816" y="-62" on="1"/>
        <pt x="520" y="-62" on="0"/>
        <pt x="312" y="109" on="1"/>
        <pt x="90" y="291" on="0"/>
        <pt x="90" y="581" on="1"/>
        <pt x="90" y="922" on="0"/>
        <pt x="303" y="1204" on="1"/>
        <pt x="543" y="1520" on="0"/>
        <pt x="906" y="1520" on="1"/>
        <pt x="1041" y="1520" on="0"/>
        <pt x="1256" y="1475" on="0"/>
        <pt x="1336" y="1430" on="1"/>
        <pt x="1336" y="1442" on="1"/>
        <pt x="1335" y="1509" on="0"/>
        <pt x="1408" y="1594" on="0"/>
        <pt x="1475" y="1594" on="1"/>
        <pt x="1521" y="1594" on="0"/>
        <pt x="1557" y="1570" on="1"/>
        <pt x="1673" y="1599" on="0"/>
        <pt x="1881" y="1628" on="0"/>
        <pt x="1974" y="1628" on="1"/>
        <pt x="2224" y="1628" on="0"/>
        <pt x="2378" y="1569" on="1"/>
        <pt x="2470" y="1534" on="0"/>
        <pt x="2470" y="1442" on="1"/>
        <pt x="2470" y="1390" on="0"/>
        <pt x="2434" y="1350" on="1"/>
        <pt x="2394" y="1304" on="0"/>
      </contour>
      <contour>
        <pt x="906" y="1248" on="1"/>
        <pt x="683" y="1248" on="0"/>
        <pt x="523" y="1031" on="1"/>
        <pt x="374" y="828" on="0"/>
        <pt x="374" y="581" on="1"/>
        <pt x="374" y="415" on="0"/>
        <pt x="503" y="310" on="1"/>
        <pt x="627" y="210" on="0"/>
        <pt x="816" y="210" on="1"/>
        <pt x="1036" y="210" on="0"/>
        <pt x="1183" y="427" on="1"/>
        <pt x="1318" y="625" on="0"/>
        <pt x="1318" y="877" on="1"/>
        <pt x="1318" y="1088" on="0"/>
        <pt x="1224" y="1170" on="1"/>
        <pt x="1134" y="1248" on="0"/>
      </contour>
    </TTGlyph>
    <TTGlyph name="Oacute" xMin="60" yMin="-61" xMax="1572" yMax="2114">
      <component glyphName="O" x="0" y="0" flags="0x4"/>
      <component glyphName="acute" x="645" y="449" flags="0x4"/>
    </TTGlyph>
    <TTGlyph name="Obreve" xMin="60" yMin="-61" xMax="1572" yMax="2039">
      <component glyphName="O" x="0" y="0" flags="0x204"/>
      <component glyphName="breve" x="384" y="450" flags="0x4"/>
    </TTGlyph>
    <TTGlyph name="Ocircumflex" xMin="116" yMin="-61" xMax="1628" yMax="2132">
      <component glyphName="O" x="56" y="0" flags="0x4"/>
      <component glyphName="circumflex" x="446" y="442" flags="0x4"/>
    </TTGlyph>
    <TTGlyph name="Odblacute" xMin="60" yMin="-61" xMax="1572" yMax="2045">
      <component glyphName="O" x="0" y="0" flags="0x204"/>
      <component glyphName="hungarumlaut" x="400" y="450" flags="0x4"/>
    </TTGlyph>
    <TTGlyph name="Odieresis" xMin="60" yMin="-61" xMax="1572" yMax="1911">
      <component glyphName="O" x="0" y="0" flags="0x4"/>
      <component glyphName="dieresis" x="350" y="476" flags="0x4"/>
    </TTGlyph>
    <TTGlyph name="Ograve" xMin="116" yMin="-61" xMax="1628" yMax="2123">
      <component glyphName="O" x="56" y="0" flags="0x4"/>
      <component glyphName="grave" x="700" y="462" flags="0x4"/>
    </TTGlyph>
    <TTGlyph name="Ohm" xMin="25" yMin="-140" xMax="1941" yMax="1630">
      <component glyphName="Omega" x="0" y="0" flags="0x204"/>
    </TTGlyph>
    <TTGlyph name="Omacron" xMin="60" yMin="-61" xMax="1572" yMax="1834">
      <component glyphName="O" x="0" y="0" flags="0x204"/>
      <component glyphName="macron" x="360" y="450" flags="0x4"/>
    </TTGlyph>
    <TTGlyph name="Omega" xMin="25" yMin="-140" xMax="1941" yMax="1630">
      <contour>
        <pt x="1804" y="-122" on="1"/>
        <pt x="1747" y="-122" on="0"/>
        <pt x="1517" y="-106" on="0"/>
        <pt x="1459" y="-106" on="1"/>
        <pt x="1428" y="-106" on="0"/>
        <pt x="1306" y="-110" on="0"/>
        <pt x="1275" y="-110" on="1"/>
        <pt x="1206" y="-110" on="0"/>
        <pt x="1156" y="-44" on="1"/>
        <pt x="1111" y="14" on="0"/>
        <pt x="1111" y="74" on="1"/>
        <pt x="1111" y="136" on="0"/>
        <pt x="1209" y="252" on="1"/>
        <pt x="1283" y="336" on="0"/>
        <pt x="1357" y="421" on="1"/>
        <pt x="1529" y="656" on="0"/>
        <pt x="1529" y="1082" on="1"/>
        <pt x="1529" y="1233" on="0"/>
        <pt x="1401" y="1364" on="0"/>
        <pt x="1246" y="1364" on="1"/>
        <pt x="1003" y="1364" on="0"/>
        <pt x="781" y="1212" on="1"/>
        <pt x="542" y="1048" on="0"/>
        <pt x="542" y="835" on="1"/>
        <pt x="542" y="676" on="0"/>
        <pt x="597" y="525" on="1"/>
        <pt x="719" y="235" on="1"/>
        <pt x="724" y="223" on="0"/>
        <pt x="763" y="161" on="1"/>
        <pt x="791" y="117" on="0"/>
        <pt x="791" y="82" on="1"/>
        <pt x="791" y="-56" on="0"/>
        <pt x="668" y="-77" on="1"/>
        <pt x="293" y="-140" on="0"/>
        <pt x="161" y="-140" on="1"/>
        <pt x="101" y="-140" on="0"/>
        <pt x="25" y="-58" on="0"/>
        <pt x="25" y="-4" on="1"/>
        <pt x="25" y="97" on="0"/>
        <pt x="135" y="124" on="1"/>
        <pt x="228" y="147" on="0"/>
        <pt x="449" y="168" on="1"/>
        <pt x="336" y="425" on="0"/>
        <pt x="316" y="489" on="1"/>
        <pt x="263" y="649" on="0"/>
        <pt x="263" y="835" on="1"/>
        <pt x="263" y="1170" on="0"/>
        <pt x="592" y="1410" on="1"/>
        <pt x="894" y="1630" on="0"/>
        <pt x="1246" y="1630" on="1"/>
        <pt x="1565" y="1630" on="0"/>
        <pt x="1699" y="1445" on="1"/>
        <pt x="1807" y="1296" on="0"/>
        <pt x="1807" y="999" on="1"/>
        <pt x="1807" y="544" on="0"/>
        <pt x="1491" y="161" on="1"/>
        <pt x="1715" y="164" on="0"/>
        <pt x="1823" y="143" on="1"/>
        <pt x="1941" y="121" on="0"/>
        <pt x="1941" y="13" on="1"/>
        <pt x="1941" y="-42" on="0"/>
        <pt x="1864" y="-122" on="0"/>
      </contour>
    </TTGlyph>
    <TTGlyph name="Omegatonos" xMin="25" yMin="-140" xMax="1941" yMax="1630">
      <component glyphName="Omega" x="0" y="0" flags="0x4"/>
      <component glyphName="tonos" x="-400" y="0" flags="0x4"/>
    </TTGlyph>
    <TTGlyph name="Omicron" xMin="60" yMin="-61" xMax="1572" yMax="1515">
      <component glyphName="O" x="0" y="0" flags="0x204"/>
    </TTGlyph>
    <TTGlyph name="Omicrontonos" xMin="65" yMin="-61" xMax="1732" yMax="1562">
      <component glyphName="O" x="160" y="0" flags="0x4"/>
      <component glyphName="tonos" x="-360" y="0" flags="0x4"/>
    </TTGlyph>
    <TTGlyph name="Oslash" xMin="43" yMin="-90" xMax="1671" yMax="1542">
      <contour>
        <pt x="1599" y="1296" on="1"/>
        <pt x="1580" y="1275" on="0"/>
        <pt x="1530" y="1226" on="1"/>
        <pt x="1602" y="1087" on="0"/>
        <pt x="1602" y="874" on="1"/>
        <pt x="1602" y="527" on="0"/>
        <pt x="1402" y="251" on="1"/>
        <pt x="1175" y="-63" on="0"/>
        <pt x="816" y="-63" on="1"/>
        <pt x="564" y="-63" on="0"/>
        <pt x="369" y="66" on="1"/>
        <pt x="224" y="-90" on="0"/>
        <pt x="177" y="-90" on="1"/>
        <pt x="124" y="-90" on="0"/>
        <pt x="43" y="-15" on="0"/>
        <pt x="43" y="36" on="1"/>
        <pt x="43" y="81" on="0"/>
        <pt x="196" y="234" on="1"/>
        <pt x="90" y="387" on="0"/>
        <pt x="90" y="579" on="1"/>
        <pt x="90" y="924" on="0"/>
        <pt x="307" y="1205" on="1"/>
        <pt x="547" y="1516" on="0"/>
        <pt x="906" y="1516" on="1"/>
        <pt x="1195" y="1516" on="0"/>
        <pt x="1360" y="1412" on="1"/>
        <pt x="1496" y="1542" on="0"/>
        <pt x="1537" y="1542" on="1"/>
        <pt x="1589" y="1542" on="0"/>
        <pt x="1671" y="1472" on="0"/>
        <pt x="1671" y="1420" on="1"/>
        <pt x="1671" y="1376" on="0"/>
      </contour>
      <contour>
        <pt x="906" y="1244" on="1"/>
        <pt x="678" y="1244" on="0"/>
        <pt x="519" y="1021" on="1"/>
        <pt x="374" y="818" on="0"/>
        <pt x="374" y="579" on="1"/>
        <pt x="374" y="511" on="0"/>
        <pt x="399" y="448" on="1"/>
        <pt x="652" y="700" on="0"/>
        <pt x="1155" y="1208" on="1"/>
        <pt x="1069" y="1244" on="0"/>
      </contour>
      <contour>
        <pt x="1307" y="1010" on="1"/>
        <pt x="1206" y="916" on="0"/>
        <pt x="1059" y="764" on="1"/>
        <pt x="838" y="536" on="0"/>
        <pt x="816" y="514" on="1"/>
        <pt x="570" y="266" on="1"/>
        <pt x="679" y="209" on="0"/>
        <pt x="816" y="209" on="1"/>
        <pt x="1042" y="209" on="0"/>
        <pt x="1188" y="433" on="1"/>
        <pt x="1318" y="631" on="0"/>
        <pt x="1318" y="874" on="1"/>
        <pt x="1318" y="956" on="0"/>
      </contour>
    </TTGlyph>
    <TTGlyph name="Oslashacute" xMin="43" yMin="-90" xMax="1671" yMax="2115">
      <component glyphName="Oslash" x="0" y="0" flags="0x204"/>
      <component glyphName="acute" x="610" y="450" flags="0x4"/>
    </TTGlyph>
    <TTGlyph name="Otilde" xMin="116" yMin="-61" xMax="1628" yMax="2007">
      <component glyphName="O" x="56" y="0" flags="0x4"/>
      <component glyphName="tilde" x="413" y="453" flags="0x4"/>
    </TTGlyph>
    <TTGlyph name="P" xMin="60" yMin="-24" xMax="1045" yMax="1571">
      <contour>
        <pt x="413" y="558" on="1"/>
        <pt x="396" y="558" on="0"/>
        <pt x="329" y="565" on="1"/>
        <pt x="323" y="425" on="0"/>
        <pt x="323" y="105" on="1"/>
        <pt x="323" y="52" on="0"/>
        <pt x="249" y="-24" on="0"/>
        <pt x="192" y="-24" on="1"/>
        <pt x="135" y="-24" on="0"/>
        <pt x="60" y="52" on="0"/>
        <pt x="60" y="105" on="1"/>
        <pt x="60" y="384" on="1"/>
        <pt x="60" y="539" on="0"/>
        <pt x="80" y="843" on="1"/>
        <pt x="99" y="1152" on="0"/>
        <pt x="100" y="1304" on="1"/>
        <pt x="101" y="1564" on="0"/>
        <pt x="246" y="1553" on="1"/>
        <pt x="280" y="1562" on="0"/>
        <pt x="400" y="1571" on="0"/>
        <pt x="486" y="1571" on="1"/>
        <pt x="682" y="1571" on="0"/>
        <pt x="854" y="1444" on="1"/>
        <pt x="1045" y="1302" on="0"/>
        <pt x="1045" y="1098" on="1"/>
        <pt x="1045" y="842" on="0"/>
        <pt x="842" y="691" on="1"/>
        <pt x="662" y="558" on="0"/>
      </contour>
      <contour>
        <pt x="463" y="1313" on="1"/>
        <pt x="431" y="1313" on="0"/>
        <pt x="382" y="1312" on="0"/>
        <pt x="365" y="1310" on="1"/>
        <pt x="365" y="1263" on="0"/>
        <pt x="364" y="1169" on="1"/>
        <pt x="362" y="1058" on="0"/>
        <pt x="345" y="823" on="1"/>
        <pt x="396" y="815" on="0"/>
        <pt x="413" y="815" on="1"/>
        <pt x="569" y="815" on="0"/>
        <pt x="672" y="889" on="1"/>
        <pt x="782" y="968" on="0"/>
        <pt x="782" y="1098" on="1"/>
        <pt x="782" y="1183" on="0"/>
        <pt x="679" y="1249" on="1"/>
        <pt x="580" y="1313" on="0"/>
      </contour>
    </TTGlyph>
    <TTGlyph name="Phi" xMin="50" yMin="-36" xMax="1189" yMax="1494">
      <contour>
        <pt x="501" y="960" on="1"/>
        <pt x="249" y="960" on="0"/>
        <pt x="249" y="730" on="1"/>
        <pt x="249" y="669" on="0"/>
        <pt x="319" y="625" on="1"/>
        <pt x="386" y="583" on="0"/>
        <pt x="472" y="583" on="1"/>
        <pt x="496" y="582" on="1"/>
        <pt x="496" y="701" on="1"/>
        <pt x="496" y="831" on="0"/>
      </contour>
      <contour>
        <pt x="762" y="992" on="1"/>
        <pt x="754" y="990" on="0"/>
        <pt x="744" y="989" on="1"/>
        <pt x="742" y="884" on="0"/>
        <pt x="741" y="721" on="1"/>
        <pt x="741" y="586" on="1"/>
        <pt x="990" y="606" on="0"/>
        <pt x="990" y="790" on="1"/>
        <pt x="990" y="992" on="0"/>
      </contour>
      <contour>
        <pt x="753" y="1191" on="1"/>
        <pt x="943" y="1191" on="0"/>
        <pt x="1062" y="1089" on="1"/>
        <pt x="1189" y="981" on="0"/>
        <pt x="1189" y="790" on="1"/>
        <pt x="1189" y="422" on="0"/>
        <pt x="741" y="390" on="1"/>
        <pt x="740" y="239" on="1"/>
        <pt x="894" y="242" on="0"/>
        <pt x="1031" y="242" on="1"/>
        <pt x="1083" y="242" on="0"/>
        <pt x="1150" y="173" on="0"/>
        <pt x="1150" y="123" on="1"/>
        <pt x="1150" y="74" on="0"/>
        <pt x="1083" y="5" on="0"/>
        <pt x="1031" y="5" on="1"/>
        <pt x="975" y="5" on="0"/>
        <pt x="751" y="0" on="0"/>
        <pt x="695" y="0" on="1"/>
        <pt x="629" y="0" on="0"/>
        <pt x="366" y="-36" on="0"/>
        <pt x="299" y="-36" on="1"/>
        <pt x="248" y="-36" on="0"/>
        <pt x="180" y="33" on="0"/>
        <pt x="180" y="82" on="1"/>
        <pt x="180" y="132" on="0"/>
        <pt x="248" y="201" on="0"/>
        <pt x="299" y="201" on="1"/>
        <pt x="369" y="201" on="0"/>
        <pt x="499" y="219" on="1"/>
        <pt x="498" y="288" on="0"/>
        <pt x="497" y="384" on="1"/>
        <pt x="472" y="384" on="1"/>
        <pt x="304" y="384" on="0"/>
        <pt x="188" y="463" on="1"/>
        <pt x="50" y="556" on="0"/>
        <pt x="50" y="730" on="1"/>
        <pt x="50" y="945" on="0"/>
        <pt x="186" y="1047" on="1"/>
        <pt x="285" y="1121" on="0"/>
        <pt x="511" y="1161" on="1"/>
        <pt x="514" y="1208" on="0"/>
        <pt x="518" y="1255" on="1"/>
        <pt x="277" y="1248" on="0"/>
        <pt x="279" y="1248" on="1"/>
        <pt x="228" y="1248" on="0"/>
        <pt x="158" y="1317" on="0"/>
        <pt x="158" y="1368" on="1"/>
        <pt x="158" y="1475" on="0"/>
        <pt x="271" y="1486" on="1"/>
        <pt x="359" y="1494" on="0"/>
        <pt x="575" y="1494" on="1"/>
        <pt x="770" y="1494" on="0"/>
        <pt x="1078" y="1451" on="1"/>
        <pt x="1183" y="1436" on="0"/>
        <pt x="1183" y="1330" on="1"/>
        <pt x="1183" y="1274" on="0"/>
        <pt x="1142" y="1242" on="1"/>
        <pt x="1106" y="1214" on="0"/>
        <pt x="1060" y="1214" on="1"/>
        <pt x="1010" y="1214" on="0"/>
        <pt x="757" y="1246" on="1"/>
        <pt x="755" y="1218" on="0"/>
      </contour>
    </TTGlyph>
    <TTGlyph name="Pi" xMin="65" yMin="-61" xMax="1796" yMax="1567">
      <contour>
        <pt x="1796" y="1419" on="1"/>
        <pt x="1796" y="1275" on="0"/>
        <pt x="1583" y="1286" on="1"/>
        <pt x="1572" y="1141" on="0"/>
        <pt x="1572" y="889" on="1"/>
        <pt x="1572" y="837" on="0"/>
        <pt x="1593" y="420" on="0"/>
        <pt x="1593" y="262" on="1"/>
        <pt x="1593" y="230" on="0"/>
        <pt x="1611" y="104" on="0"/>
        <pt x="1611" y="72" on="1"/>
        <pt x="1611" y="15" on="0"/>
        <pt x="1530" y="-60" on="0"/>
        <pt x="1471" y="-60" on="1"/>
        <pt x="1349" y="-60" on="0"/>
        <pt x="1333" y="63" on="1"/>
        <pt x="1314" y="207" on="0"/>
        <pt x="1314" y="262" on="1"/>
        <pt x="1314" y="417" on="0"/>
        <pt x="1294" y="821" on="0"/>
        <pt x="1294" y="889" on="1"/>
        <pt x="1294" y="1151" on="0"/>
        <pt x="1304" y="1292" on="1"/>
        <pt x="1257" y="1285" on="0"/>
        <pt x="1071" y="1285" on="1"/>
        <pt x="824" y="1285" on="0"/>
        <pt x="590" y="1293" on="1"/>
        <pt x="594" y="1254" on="0"/>
        <pt x="600" y="1175" on="1"/>
        <pt x="616" y="685" on="0"/>
        <pt x="616" y="645" on="1"/>
        <pt x="616" y="598" on="0"/>
        <pt x="610" y="514" on="1"/>
        <pt x="603" y="422" on="0"/>
        <pt x="602" y="383" on="1"/>
        <pt x="601" y="344" on="0"/>
        <pt x="602" y="282" on="1"/>
        <pt x="603" y="199" on="0"/>
        <pt x="603" y="180" on="1"/>
        <pt x="603" y="65" on="0"/>
        <pt x="588" y="23" on="1"/>
        <pt x="559" y="-61" on="0"/>
        <pt x="461" y="-61" on="1"/>
        <pt x="402" y="-61" on="0"/>
        <pt x="321" y="13" on="0"/>
        <pt x="321" y="70" on="1"/>
        <pt x="321" y="308" on="0"/>
        <pt x="323" y="389" on="1"/>
        <pt x="324" y="427" on="0"/>
        <pt x="331" y="517" on="1"/>
        <pt x="337" y="599" on="0"/>
        <pt x="337" y="645" on="1"/>
        <pt x="337" y="681" on="0"/>
        <pt x="321" y="1168" on="1"/>
        <pt x="321" y="1171" on="0"/>
        <pt x="310" y="1298" on="1"/>
        <pt x="250" y="1297" on="0"/>
        <pt x="204" y="1297" on="1"/>
        <pt x="144" y="1297" on="0"/>
        <pt x="65" y="1373" on="0"/>
        <pt x="65" y="1430" on="1"/>
        <pt x="65" y="1567" on="0"/>
        <pt x="275" y="1567" on="1"/>
        <pt x="289" y="1567" on="0"/>
        <pt x="315" y="1567" on="1"/>
        <pt x="341" y="1566" on="0"/>
        <pt x="352" y="1566" on="1"/>
        <pt x="431" y="1566" on="0"/>
        <pt x="744" y="1554" on="0"/>
        <pt x="823" y="1554" on="1"/>
        <pt x="1656" y="1552" on="1"/>
        <pt x="1716" y="1552" on="0"/>
        <pt x="1796" y="1476" on="0"/>
      </contour>
    </TTGlyph>
    <TTGlyph name="Psi" xMin="72" yMin="-26" xMax="1413" yMax="1547">
      <contour>
        <pt x="854" y="472" on="1"/>
        <pt x="846" y="389" on="0"/>
        <pt x="846" y="107" on="1"/>
        <pt x="846" y="50" on="0"/>
        <pt x="767" y="-26" on="0"/>
        <pt x="707" y="-26" on="1"/>
        <pt x="647" y="-26" on="0"/>
        <pt x="568" y="50" on="0"/>
        <pt x="568" y="107" on="1"/>
        <pt x="568" y="399" on="1"/>
        <pt x="568" y="416" on="0"/>
        <pt x="573" y="458" on="1"/>
        <pt x="290" y="494" on="0"/>
        <pt x="170" y="681" on="1"/>
        <pt x="72" y="836" on="0"/>
        <pt x="72" y="1120" on="1"/>
        <pt x="72" y="1351" on="1"/>
        <pt x="72" y="1547" on="0"/>
        <pt x="215" y="1547" on="1"/>
        <pt x="273" y="1547" on="0"/>
        <pt x="355" y="1474" on="0"/>
        <pt x="355" y="1417" on="1"/>
        <pt x="355" y="1368" on="0"/>
        <pt x="349" y="1171" on="0"/>
        <pt x="349" y="1122" on="1"/>
        <pt x="349" y="912" on="0"/>
        <pt x="393" y="835" on="1"/>
        <pt x="441" y="750" on="0"/>
        <pt x="593" y="725" on="1"/>
        <pt x="599" y="808" on="0"/>
        <pt x="599" y="1140" on="1"/>
        <pt x="599" y="1335" on="0"/>
        <pt x="616" y="1425" on="1"/>
        <pt x="638" y="1540" on="0"/>
        <pt x="753" y="1540" on="1"/>
        <pt x="812" y="1540" on="0"/>
        <pt x="894" y="1468" on="0"/>
        <pt x="894" y="1410" on="1"/>
        <pt x="894" y="1361" on="0"/>
        <pt x="876" y="1166" on="0"/>
        <pt x="876" y="1117" on="1"/>
        <pt x="876" y="1080" on="0"/>
        <pt x="878" y="934" on="0"/>
        <pt x="878" y="897" on="1"/>
        <pt x="878" y="825" on="0"/>
        <pt x="874" y="754" on="1"/>
        <pt x="1134" y="879" on="0"/>
        <pt x="1134" y="1402" on="1"/>
        <pt x="1134" y="1458" on="0"/>
        <pt x="1214" y="1534" on="0"/>
        <pt x="1273" y="1534" on="1"/>
        <pt x="1333" y="1534" on="0"/>
        <pt x="1413" y="1458" on="0"/>
        <pt x="1413" y="1402" on="1"/>
        <pt x="1413" y="1047" on="0"/>
        <pt x="1311" y="835" on="1"/>
        <pt x="1177" y="555" on="0"/>
      </contour>
    </TTGlyph>
    <TTGlyph name="Q" xMin="37" yMin="-438" xMax="1790" yMax="1515">
      <contour>
        <pt x="1646" y="-438" on="1"/>
        <pt x="1573" y="-438" on="0"/>
        <pt x="1161" y="-69" on="1"/>
        <pt x="995" y="-129" on="0"/>
        <pt x="835" y="-129" on="1"/>
        <pt x="517" y="-129" on="0"/>
        <pt x="275" y="115" on="1"/>
        <pt x="37" y="356" on="0"/>
        <pt x="37" y="662" on="1"/>
        <pt x="37" y="1022" on="0"/>
        <pt x="316" y="1272" on="1"/>
        <pt x="587" y="1515" on="0"/>
        <pt x="958" y="1515" on="1"/>
        <pt x="1355" y="1515" on="0"/>
        <pt x="1558" y="1229" on="1"/>
        <pt x="1729" y="988" on="0"/>
        <pt x="1729" y="611" on="1"/>
        <pt x="1729" y="298" on="0"/>
        <pt x="1428" y="73" on="1"/>
        <pt x="1488" y="19" on="0"/>
        <pt x="1609" y="-88" on="1"/>
        <pt x="1723" y="-178" on="1"/>
        <pt x="1790" y="-240" on="0"/>
        <pt x="1790" y="-298" on="1"/>
        <pt x="1790" y="-353" on="0"/>
        <pt x="1749" y="-394" on="1"/>
        <pt x="1707" y="-438" on="0"/>
      </contour>
      <contour>
        <pt x="958" y="1239" on="1"/>
        <pt x="699" y="1239" on="0"/>
        <pt x="513" y="1073" on="1"/>
        <pt x="322" y="905" on="0"/>
        <pt x="322" y="662" on="1"/>
        <pt x="322" y="468" on="0"/>
        <pt x="639" y="147" on="0"/>
        <pt x="835" y="147" on="1"/>
        <pt x="861" y="147" on="0"/>
        <pt x="891" y="150" on="1"/>
        <pt x="744" y="291" on="0"/>
        <pt x="744" y="379" on="1"/>
        <pt x="744" y="439" on="0"/>
        <pt x="790" y="479" on="1"/>
        <pt x="833" y="516" on="0"/>
        <pt x="889" y="516" on="1"/>
        <pt x="957" y="516" on="0"/>
        <pt x="1006" y="455" on="1"/>
        <pt x="1094" y="345" on="0"/>
        <pt x="1202" y="257" on="1"/>
        <pt x="1443" y="404" on="0"/>
        <pt x="1443" y="611" on="1"/>
        <pt x="1443" y="887" on="0"/>
        <pt x="1329" y="1053" on="1"/>
        <pt x="1201" y="1239" on="0"/>
      </contour>
    </TTGlyph>
    <TTGlyph name="R" xMin="92" yMin="-35" xMax="1268" yMax="1543">
      <contour>
        <pt x="1126" y="-12" on="1"/>
        <pt x="1072" y="-12" on="0"/>
        <pt x="1027" y="30" on="1"/>
        <pt x="724" y="314" on="0"/>
        <pt x="361" y="424" on="1"/>
        <pt x="372" y="133" on="0"/>
        <pt x="372" y="101" on="1"/>
        <pt x="372" y="44" on="0"/>
        <pt x="292" y="-35" on="0"/>
        <pt x="232" y="-35" on="1"/>
        <pt x="172" y="-35" on="0"/>
        <pt x="92" y="44" on="0"/>
        <pt x="92" y="101" on="1"/>
        <pt x="92" y="176" on="0"/>
        <pt x="96" y="475" on="0"/>
        <pt x="96" y="550" on="1"/>
        <pt x="98" y="1357" on="1"/>
        <pt x="98" y="1422" on="0"/>
        <pt x="137" y="1475" on="1"/>
        <pt x="188" y="1543" on="0"/>
        <pt x="278" y="1536" on="1"/>
        <pt x="521" y="1518" on="0"/>
        <pt x="527" y="1517" on="1"/>
        <pt x="667" y="1500" on="0"/>
        <pt x="765" y="1450" on="1"/>
        <pt x="1192" y="1235" on="0"/>
        <pt x="1192" y="917" on="1"/>
        <pt x="1192" y="786" on="0"/>
        <pt x="1013" y="585" on="0"/>
        <pt x="834" y="516" on="1"/>
        <pt x="1099" y="368" on="0"/>
        <pt x="1233" y="214" on="1"/>
        <pt x="1268" y="174" on="0"/>
        <pt x="1268" y="125" on="1"/>
        <pt x="1268" y="69" on="0"/>
        <pt x="1184" y="-12" on="0"/>
      </contour>
      <contour>
        <pt x="485" y="1246" on="1"/>
        <pt x="477" y="1247" on="0"/>
        <pt x="368" y="1254" on="1"/>
        <pt x="368" y="723" on="1"/>
        <pt x="393" y="722" on="0"/>
        <pt x="412" y="722" on="1"/>
        <pt x="657" y="722" on="0"/>
        <pt x="775" y="783" on="1"/>
        <pt x="826" y="809" on="0"/>
        <pt x="911" y="895" on="0"/>
        <pt x="911" y="917" on="1"/>
        <pt x="911" y="1029" on="0"/>
        <pt x="769" y="1133" on="1"/>
        <pt x="634" y="1231" on="0"/>
      </contour>
    </TTGlyph>
    <TTGlyph name="Racute" xMin="92" yMin="-35" xMax="1268" yMax="2115">
      <component glyphName="R" x="0" y="0" flags="0x204"/>
      <component glyphName="acute" x="140" y="450" flags="0x4"/>
    </TTGlyph>
    <TTGlyph name="Rcaron" xMin="92" yMin="-35" xMax="1268" yMax="2077">
      <component glyphName="R" x="0" y="0" flags="0x204"/>
      <component glyphName="caron" x="0" y="450" flags="0x4"/>
    </TTGlyph>
    <TTGlyph name="Rcedilla" xMin="92" yMin="-445" xMax="1268" yMax="1543">
      <component glyphName="R" x="0" y="0" flags="0x204"/>
      <component glyphName="cedilla" x="70" y="0" flags="0x4"/>
    </TTGlyph>
    <TTGlyph name="Rho" xMin="60" yMin="-24" xMax="1045" yMax="1571">
      <component glyphName="P" x="0" y="0" flags="0x204"/>
    </TTGlyph>
    <TTGlyph name="S" xMin="48" yMin="-61" xMax="1377" yMax="1467">
      <contour>
        <pt x="571" y="-61" on="1"/>
        <pt x="317" y="-61" on="0"/>
        <pt x="171" y="52" on="1"/>
        <pt x="48" y="146" on="0"/>
        <pt x="48" y="269" on="1"/>
        <pt x="48" y="332" on="0"/>
        <pt x="124" y="415" on="0"/>
        <pt x="191" y="415" on="1"/>
        <pt x="281" y="415" on="0"/>
        <pt x="323" y="323" on="1"/>
        <pt x="380" y="200" on="0"/>
        <pt x="581" y="200" on="1"/>
        <pt x="753" y="200" on="0"/>
        <pt x="914" y="275" on="1"/>
        <pt x="1081" y="352" on="0"/>
        <pt x="1081" y="444" on="1"/>
        <pt x="1081" y="570" on="0"/>
        <pt x="977" y="610" on="1"/>
        <pt x="903" y="639" on="0"/>
        <pt x="680" y="644" on="1"/>
        <pt x="507" y="648" on="0"/>
        <pt x="370" y="709" on="1"/>
        <pt x="185" y="792" on="0"/>
        <pt x="188" y="947" on="1"/>
        <pt x="191" y="1142" on="0"/>
        <pt x="601" y="1467" on="0"/>
        <pt x="848" y="1467" on="1"/>
        <pt x="946" y="1467" on="0"/>
        <pt x="1090" y="1422" on="1"/>
        <pt x="1269" y="1366" on="0"/>
        <pt x="1269" y="1293" on="1"/>
        <pt x="1269" y="1241" on="0"/>
        <pt x="1233" y="1201" on="1"/>
        <pt x="1193" y="1156" on="0"/>
        <pt x="1130" y="1156" on="1"/>
        <pt x="1083" y="1156" on="0"/>
        <pt x="896" y="1196" on="0"/>
        <pt x="848" y="1196" on="1"/>
        <pt x="719" y="1195" on="0"/>
        <pt x="603" y="1134" on="1"/>
        <pt x="483" y="1072" on="0"/>
        <pt x="483" y="999" on="1"/>
        <pt x="483" y="961" on="0"/>
        <pt x="556" y="912" on="0"/>
        <pt x="629" y="902" on="1"/>
        <pt x="757" y="895" on="0"/>
        <pt x="884" y="888" on="1"/>
        <pt x="1106" y="871" on="0"/>
        <pt x="1235" y="763" on="1"/>
        <pt x="1377" y="643" on="0"/>
        <pt x="1377" y="431" on="1"/>
        <pt x="1377" y="173" on="0"/>
        <pt x="1083" y="40" on="1"/>
        <pt x="859" y="-61" on="0"/>
      </contour>
    </TTGlyph>
    <TTGlyph name="Sacute" xMin="48" yMin="-61" xMax="1377" yMax="2115">
      <component glyphName="S" x="0" y="0" flags="0x204"/>
      <component glyphName="acute" x="400" y="450" flags="0x4"/>
    </TTGlyph>
    <TTGlyph name="Scaron" xMin="104" yMin="-61" xMax="1433" yMax="2078">
      <component glyphName="S" x="56" y="0" flags="0x4"/>
      <component glyphName="caron" x="328" y="451" flags="0x4"/>
    </TTGlyph>
    <TTGlyph name="Scedilla" xMin="48" yMin="-445" xMax="1377" yMax="1467">
      <component glyphName="S" x="0" y="0" flags="0x204"/>
      <component glyphName="cedilla" x="40" y="0" flags="0x4"/>
    </TTGlyph>
    <TTGlyph name="Scircumflex" xMin="48" yMin="-61" xMax="1377" yMax="2140">
      <component glyphName="S" x="0" y="0" flags="0x204"/>
      <component glyphName="circumflex" x="170" y="450" flags="0x4"/>
    </TTGlyph>
    <TTGlyph name="Scommaaccent" xMin="48" yMin="-597" xMax="1377" yMax="1467">
      <component glyphName="S" x="0" y="0" flags="0x204"/>
      <component glyphName="uF004" x="283" y="-1790" flags="0x4"/>
    </TTGlyph>
    <TTGlyph name="Sigma" xMin="23" yMin="-34" xMax="1404" yMax="1526">
      <contour>
        <pt x="1404" y="100" on="1"/>
        <pt x="1404" y="43" on="0"/>
        <pt x="1324" y="-34" on="0"/>
        <pt x="1264" y="-34" on="1"/>
        <pt x="1186" y="-34" on="0"/>
        <pt x="943" y="-22" on="0"/>
        <pt x="865" y="-22" on="1"/>
        <pt x="761" y="-22" on="0"/>
        <pt x="390" y="-2" on="0"/>
        <pt x="287" y="-2" on="1"/>
        <pt x="266" y="-2" on="0"/>
        <pt x="184" y="-15" on="0"/>
        <pt x="166" y="-15" on="1"/>
        <pt x="109" y="-15" on="0"/>
        <pt x="23" y="66" on="0"/>
        <pt x="23" y="120" on="1"/>
        <pt x="23" y="175" on="0"/>
        <pt x="121" y="276" on="1"/>
        <pt x="192" y="349" on="0"/>
        <pt x="263" y="423" on="1"/>
        <pt x="367" y="558" on="0"/>
        <pt x="553" y="816" on="1"/>
        <pt x="546" y="823" on="0"/>
        <pt x="305" y="1062" on="1"/>
        <pt x="158" y="1208" on="0"/>
        <pt x="100" y="1283" on="1"/>
        <pt x="65" y="1329" on="0"/>
        <pt x="65" y="1377" on="1"/>
        <pt x="65" y="1458" on="0"/>
        <pt x="147" y="1498" on="1"/>
        <pt x="205" y="1526" on="0"/>
        <pt x="278" y="1526" on="1"/>
        <pt x="447" y="1526" on="0"/>
        <pt x="1032" y="1513" on="0"/>
        <pt x="1200" y="1513" on="1"/>
        <pt x="1259" y="1513" on="0"/>
        <pt x="1299" y="1472" on="1"/>
        <pt x="1336" y="1433" on="0"/>
        <pt x="1336" y="1378" on="1"/>
        <pt x="1336" y="1240" on="0"/>
        <pt x="1113" y="1240" on="1"/>
        <pt x="1040" y="1240" on="0"/>
        <pt x="817" y="1256" on="0"/>
        <pt x="744" y="1256" on="1"/>
        <pt x="701" y="1256" on="0"/>
        <pt x="601" y="1259" on="1"/>
        <pt x="493" y="1262" on="0"/>
        <pt x="459" y="1262" on="1"/>
        <pt x="566" y="1154" on="0"/>
        <pt x="823" y="906" on="1"/>
        <pt x="871" y="861" on="0"/>
        <pt x="871" y="809" on="1"/>
        <pt x="871" y="740" on="0"/>
        <pt x="484" y="256" on="1"/>
        <pt x="691" y="245" on="0"/>
        <pt x="865" y="245" on="1"/>
        <pt x="943" y="245" on="0"/>
        <pt x="1186" y="233" on="0"/>
        <pt x="1264" y="233" on="1"/>
        <pt x="1324" y="233" on="0"/>
        <pt x="1404" y="157" on="0"/>
      </contour>
    </TTGlyph>
    <TTGlyph name="T" xMin="10" yMin="-8" xMax="1437" yMax="1520">
      <contour>
        <pt x="1296" y="1199" on="1"/>
        <pt x="1218" y="1199" on="0"/>
        <pt x="1053" y="1210" on="1"/>
        <pt x="894" y="1221" on="0"/>
        <pt x="810" y="1220" on="1"/>
        <pt x="814" y="1106" on="0"/>
        <pt x="837" y="814" on="1"/>
        <pt x="858" y="556" on="0"/>
        <pt x="858" y="406" on="1"/>
        <pt x="858" y="372" on="0"/>
        <pt x="872" y="238" on="0"/>
        <pt x="872" y="204" on="1"/>
        <pt x="872" y="129" on="0"/>
        <pt x="840" y="69" on="1"/>
        <pt x="799" y="-8" on="0"/>
        <pt x="723" y="-8" on="1"/>
        <pt x="668" y="-8" on="0"/>
        <pt x="626" y="27" on="1"/>
        <pt x="579" y="66" on="0"/>
        <pt x="579" y="125" on="1"/>
        <pt x="579" y="139" on="0"/>
        <pt x="589" y="196" on="0"/>
        <pt x="589" y="211" on="1"/>
        <pt x="589" y="257" on="0"/>
        <pt x="576" y="443" on="0"/>
        <pt x="576" y="490" on="1"/>
        <pt x="576" y="624" on="0"/>
        <pt x="555" y="853" on="1"/>
        <pt x="531" y="1116" on="0"/>
        <pt x="527" y="1216" on="1"/>
        <pt x="475" y="1216" on="1"/>
        <pt x="252" y="1216" on="0"/>
        <pt x="121" y="1248" on="1"/>
        <pt x="10" y="1275" on="0"/>
        <pt x="10" y="1379" on="1"/>
        <pt x="10" y="1430" on="0"/>
        <pt x="46" y="1471" on="1"/>
        <pt x="88" y="1520" on="0"/>
        <pt x="156" y="1515" on="1"/>
        <pt x="191" y="1513" on="0"/>
        <pt x="315" y="1498" on="1"/>
        <pt x="414" y="1487" on="0"/>
        <pt x="475" y="1487" on="1"/>
        <pt x="536" y="1487" on="0"/>
        <pt x="779" y="1491" on="0"/>
        <pt x="840" y="1491" on="1"/>
        <pt x="916" y="1491" on="0"/>
        <pt x="1220" y="1470" on="0"/>
        <pt x="1296" y="1470" on="1"/>
        <pt x="1356" y="1470" on="0"/>
        <pt x="1437" y="1392" on="0"/>
        <pt x="1437" y="1335" on="1"/>
        <pt x="1437" y="1278" on="0"/>
        <pt x="1356" y="1199" on="0"/>
      </contour>
    </TTGlyph>
    <TTGlyph name="Tau" xMin="10" yMin="-8" xMax="1437" yMax="1520">
      <component glyphName="T" x="0" y="0" flags="0x204"/>
    </TTGlyph>
    <TTGlyph name="Tbar" xMin="10" yMin="-8" xMax="1437" yMax="1520">
      <contour>
        <pt x="1437" y="1335" on="1"/>
        <pt x="1437" y="1278" on="0"/>
        <pt x="1356" y="1199" on="0"/>
        <pt x="1296" y="1199" on="1"/>
        <pt x="1218" y="1199" on="0"/>
        <pt x="1053" y="1210" on="1"/>
        <pt x="894" y="1221" on="0"/>
        <pt x="810" y="1220" on="1"/>
        <pt x="814" y="1101" on="0"/>
        <pt x="832" y="880" on="1"/>
        <pt x="974" y="891" on="0"/>
        <pt x="1039" y="891" on="1"/>
        <pt x="1237" y="891" on="0"/>
        <pt x="1237" y="783" on="1"/>
        <pt x="1237" y="705" on="0"/>
        <pt x="1162" y="687" on="1"/>
        <pt x="1140" y="682" on="0"/>
        <pt x="1027" y="682" on="1"/>
        <pt x="964" y="682" on="0"/>
        <pt x="848" y="672" on="1"/>
        <pt x="858" y="521" on="0"/>
        <pt x="858" y="406" on="1"/>
        <pt x="858" y="372" on="0"/>
        <pt x="872" y="238" on="0"/>
        <pt x="872" y="204" on="1"/>
        <pt x="872" y="129" on="0"/>
        <pt x="840" y="69" on="1"/>
        <pt x="799" y="-8" on="0"/>
        <pt x="723" y="-8" on="1"/>
        <pt x="668" y="-8" on="0"/>
        <pt x="626" y="27" on="1"/>
        <pt x="579" y="66" on="0"/>
        <pt x="579" y="125" on="1"/>
        <pt x="579" y="139" on="0"/>
        <pt x="589" y="196" on="0"/>
        <pt x="589" y="211" on="1"/>
        <pt x="589" y="257" on="0"/>
        <pt x="576" y="443" on="0"/>
        <pt x="576" y="490" on="1"/>
        <pt x="576" y="568" on="0"/>
        <pt x="570" y="662" on="1"/>
        <pt x="538" y="663" on="0"/>
        <pt x="518" y="663" on="1"/>
        <pt x="332" y="663" on="1"/>
        <pt x="281" y="663" on="0"/>
        <pt x="246" y="689" on="1"/>
        <pt x="207" y="718" on="0"/>
        <pt x="207" y="768" on="1"/>
        <pt x="207" y="817" on="0"/>
        <pt x="246" y="846" on="1"/>
        <pt x="281" y="872" on="0"/>
        <pt x="332" y="872" on="1"/>
        <pt x="523" y="872" on="1"/>
        <pt x="536" y="872" on="0"/>
        <pt x="553" y="872" on="1"/>
        <pt x="542" y="987" on="0"/>
        <pt x="527" y="1216" on="1"/>
        <pt x="475" y="1216" on="1"/>
        <pt x="252" y="1216" on="0"/>
        <pt x="121" y="1248" on="1"/>
        <pt x="10" y="1275" on="0"/>
        <pt x="10" y="1379" on="1"/>
        <pt x="10" y="1430" on="0"/>
        <pt x="46" y="1471" on="1"/>
        <pt x="88" y="1520" on="0"/>
        <pt x="156" y="1515" on="1"/>
        <pt x="191" y="1513" on="0"/>
        <pt x="315" y="1498" on="1"/>
        <pt x="414" y="1487" on="0"/>
        <pt x="475" y="1487" on="1"/>
        <pt x="536" y="1487" on="0"/>
        <pt x="779" y="1491" on="0"/>
        <pt x="840" y="1491" on="1"/>
        <pt x="916" y="1491" on="0"/>
        <pt x="1220" y="1470" on="0"/>
        <pt x="1296" y="1470" on="1"/>
        <pt x="1356" y="1470" on="0"/>
        <pt x="1437" y="1392" on="0"/>
      </contour>
    </TTGlyph>
    <TTGlyph name="Tcaron" xMin="10" yMin="-8" xMax="1437" yMax="2077">
      <component glyphName="T" x="0" y="0" flags="0x204"/>
      <component glyphName="caron" x="70" y="450" flags="0x4"/>
    </TTGlyph>
    <TTGlyph name="Tcedilla" xMin="10" yMin="-368" xMax="1437" yMax="1520">
      <component glyphName="T" x="0" y="0" flags="0x204"/>
      <component glyphName="cedilla" x="167" y="77" flags="0x4"/>
    </TTGlyph>
    <TTGlyph name="Tcommaaccent" xMin="10" yMin="-597" xMax="1437" yMax="1520">
      <component glyphName="T" x="0" y="0" flags="0x204"/>
      <component glyphName="uF004" x="260" y="-1790" flags="0x4"/>
    </TTGlyph>
    <TTGlyph name="Theta" xMin="60" yMin="-61" xMax="1572" yMax="1515">
      <contour>
        <pt x="1572" y="874" on="1"/>
        <pt x="1572" y="534" on="0"/>
        <pt x="1376" y="258" on="1"/>
        <pt x="1150" y="-61" on="0"/>
        <pt x="786" y="-61" on="1"/>
        <pt x="490" y="-61" on="0"/>
        <pt x="282" y="109" on="1"/>
        <pt x="60" y="291" on="0"/>
        <pt x="60" y="580" on="1"/>
        <pt x="60" y="920" on="0"/>
        <pt x="273" y="1200" on="1"/>
        <pt x="512" y="1515" on="0"/>
        <pt x="875" y="1515" on="1"/>
        <pt x="1572" y="1515" on="0"/>
      </contour>
      <contour>
        <pt x="1288" y="874" on="1"/>
        <pt x="1288" y="1084" on="0"/>
        <pt x="1194" y="1166" on="1"/>
        <pt x="1104" y="1244" on="0"/>
        <pt x="875" y="1244" on="1"/>
        <pt x="652" y="1244" on="0"/>
        <pt x="493" y="1028" on="1"/>
        <pt x="344" y="826" on="0"/>
        <pt x="344" y="580" on="1"/>
        <pt x="344" y="414" on="0"/>
        <pt x="473" y="310" on="1"/>
        <pt x="597" y="210" on="0"/>
        <pt x="786" y="210" on="1"/>
        <pt x="1006" y="210" on="0"/>
        <pt x="1153" y="426" on="1"/>
        <pt x="1288" y="623" on="0"/>
      </contour>
      <contour>
        <pt x="1168" y="725" on="1"/>
        <pt x="1168" y="676" on="0"/>
        <pt x="1121" y="648" on="1"/>
        <pt x="1081" y="624" on="0"/>
        <pt x="1029" y="624" on="1"/>
        <pt x="986" y="624" on="0"/>
        <pt x="814" y="632" on="0"/>
        <pt x="771" y="632" on="1"/>
        <pt x="746" y="632" on="0"/>
        <pt x="643" y="624" on="0"/>
        <pt x="618" y="624" on="1"/>
        <pt x="565" y="624" on="0"/>
        <pt x="525" y="649" on="1"/>
        <pt x="479" y="678" on="0"/>
        <pt x="479" y="727" on="1"/>
        <pt x="479" y="840" on="0"/>
        <pt x="697" y="840" on="1"/>
        <pt x="753" y="840" on="0"/>
        <pt x="974" y="827" on="0"/>
        <pt x="1029" y="827" on="1"/>
        <pt x="1081" y="827" on="0"/>
        <pt x="1121" y="803" on="1"/>
        <pt x="1168" y="774" on="0"/>
      </contour>
    </TTGlyph>
    <TTGlyph name="Thorn" xMin="60" yMin="-24" xMax="1051" yMax="1552">
      <contour>
        <pt x="366" y="1361" on="1"/>
        <pt x="490" y="1367" on="1"/>
        <pt x="651" y="1375" on="0"/>
        <pt x="824" y="1273" on="1"/>
        <pt x="1051" y="1138" on="0"/>
        <pt x="1051" y="896" on="1"/>
        <pt x="1051" y="640" on="0"/>
        <pt x="848" y="489" on="1"/>
        <pt x="668" y="356" on="0"/>
        <pt x="419" y="356" on="1"/>
        <pt x="377" y="356" on="0"/>
        <pt x="324" y="365" on="1"/>
        <pt x="323" y="271" on="0"/>
        <pt x="323" y="105" on="1"/>
        <pt x="323" y="52" on="0"/>
        <pt x="249" y="-24" on="0"/>
        <pt x="192" y="-24" on="1"/>
        <pt x="135" y="-24" on="0"/>
        <pt x="60" y="52" on="0"/>
        <pt x="60" y="105" on="1"/>
        <pt x="60" y="384" on="1"/>
        <pt x="60" y="525" on="0"/>
        <pt x="79" y="779" on="1"/>
        <pt x="99" y="1054" on="0"/>
        <pt x="101" y="1173" on="1"/>
        <pt x="100" y="1214" on="0"/>
        <pt x="100" y="1303" on="1"/>
        <pt x="100" y="1412" on="0"/>
        <pt x="120" y="1464" on="1"/>
        <pt x="153" y="1552" on="0"/>
        <pt x="250" y="1551" on="1"/>
        <pt x="369" y="1550" on="0"/>
      </contour>
      <contour>
        <pt x="469" y="1111" on="1"/>
        <pt x="362" y="1111" on="1"/>
        <pt x="351" y="948" on="0"/>
        <pt x="332" y="623" on="1"/>
        <pt x="386" y="614" on="0"/>
        <pt x="419" y="614" on="1"/>
        <pt x="575" y="614" on="0"/>
        <pt x="678" y="688" on="1"/>
        <pt x="788" y="766" on="0"/>
        <pt x="788" y="896" on="1"/>
        <pt x="788" y="981" on="0"/>
        <pt x="685" y="1047" on="1"/>
        <pt x="586" y="1111" on="0"/>
      </contour>
    </TTGlyph>
    <TTGlyph name="U" xMin="78" yMin="-72" xMax="1412" yMax="1515">
      <contour>
        <pt x="1154" y="173" on="1"/>
        <pt x="1081" y="74" on="0"/>
        <pt x="978" y="8" on="1"/>
        <pt x="852" y="-72" on="0"/>
        <pt x="719" y="-72" on="1"/>
        <pt x="464" y="-72" on="0"/>
        <pt x="340" y="26" on="1"/>
        <pt x="78" y="233" on="0"/>
        <pt x="78" y="745" on="1"/>
        <pt x="78" y="794" on="0"/>
        <pt x="88" y="988" on="0"/>
        <pt x="88" y="1037" on="1"/>
        <pt x="88" y="1076" on="0"/>
        <pt x="92" y="1231" on="0"/>
        <pt x="92" y="1270" on="1"/>
        <pt x="92" y="1350" on="0"/>
        <pt x="121" y="1421" on="1"/>
        <pt x="160" y="1515" on="0"/>
        <pt x="230" y="1515" on="1"/>
        <pt x="285" y="1515" on="0"/>
        <pt x="327" y="1479" on="1"/>
        <pt x="373" y="1441" on="0"/>
        <pt x="373" y="1381" on="1"/>
        <pt x="373" y="1324" on="0"/>
        <pt x="370" y="1093" on="0"/>
        <pt x="370" y="1035" on="1"/>
        <pt x="370" y="987" on="0"/>
        <pt x="360" y="793" on="0"/>
        <pt x="360" y="745" on="1"/>
        <pt x="360" y="590" on="0"/>
        <pt x="396" y="457" on="1"/>
        <pt x="438" y="298" on="0"/>
        <pt x="519" y="235" on="1"/>
        <pt x="561" y="202" on="0"/>
        <pt x="719" y="200" on="1"/>
        <pt x="983" y="196" on="0"/>
        <pt x="1075" y="650" on="1"/>
        <pt x="1123" y="885" on="0"/>
        <pt x="1123" y="1310" on="1"/>
        <pt x="1123" y="1366" on="0"/>
        <pt x="1156" y="1418" on="1"/>
        <pt x="1201" y="1487" on="0"/>
        <pt x="1284" y="1487" on="1"/>
        <pt x="1352" y="1487" on="0"/>
        <pt x="1386" y="1437" on="1"/>
        <pt x="1412" y="1400" on="0"/>
        <pt x="1412" y="1355" on="1"/>
        <pt x="1412" y="960" on="0"/>
        <pt x="1375" y="739" on="1"/>
        <pt x="1319" y="398" on="0"/>
      </contour>
    </TTGlyph>
    <TTGlyph name="Uacute" xMin="78" yMin="-72" xMax="1412" yMax="2121">
      <component glyphName="U" x="0" y="0" flags="0x4"/>
      <component glyphName="acute" x="433" y="456" flags="0x4"/>
    </TTGlyph>
    <TTGlyph name="Ubreve" xMin="78" yMin="-72" xMax="1412" yMax="2039">
      <component glyphName="U" x="0" y="0" flags="0x204"/>
      <component glyphName="breve" x="160" y="450" flags="0x4"/>
    </TTGlyph>
    <TTGlyph name="Ucircumflex" xMin="78" yMin="-72" xMax="1412" yMax="2146">
      <component glyphName="U" x="0" y="0" flags="0x4"/>
      <component glyphName="circumflex" x="208" y="456" flags="0x4"/>
    </TTGlyph>
    <TTGlyph name="Udblacute" xMin="78" yMin="-72" xMax="1412" yMax="2045">
      <component glyphName="U" x="0" y="0" flags="0x204"/>
      <component glyphName="hungarumlaut" x="220" y="450" flags="0x4"/>
    </TTGlyph>
    <TTGlyph name="Udieresis" xMin="78" yMin="-72" xMax="1412" yMax="1888">
      <component glyphName="U" x="0" y="0" flags="0x14"/>
      <component glyphName="dieresis" x="181" y="453" flags="0x14"/>
    </TTGlyph>
    <TTGlyph name="Ugrave" xMin="78" yMin="-72" xMax="1412" yMax="2117">
      <component glyphName="U" x="0" y="0" flags="0x4"/>
      <component glyphName="grave" x="426" y="456" flags="0x4"/>
    </TTGlyph>
    <TTGlyph name="Umacron" xMin="78" yMin="-72" xMax="1412" yMax="1834">
      <component glyphName="U" x="0" y="0" flags="0x204"/>
      <component glyphName="macron" x="170" y="450" flags="0x4"/>
    </TTGlyph>
    <TTGlyph name="Uogonek" xMin="78" yMin="-424" xMax="1412" yMax="1515">
      <component glyphName="U" x="0" y="0" flags="0x204"/>
      <component glyphName="ogonek" x="300" y="-80" flags="0x4"/>
    </TTGlyph>
    <TTGlyph name="Upsilon" xMin="-11" yMin="-70" xMax="1265" yMax="1521">
      <component glyphName="Y" x="0" y="0" flags="0x204"/>
    </TTGlyph>
    <TTGlyph name="Upsilondieresis" xMin="-11" yMin="-70" xMax="1265" yMax="1890">
      <component glyphName="Y" x="0" y="0" flags="0x204"/>
      <component glyphName="dieresis" x="85" y="455" flags="0x4"/>
    </TTGlyph>
    <TTGlyph name="Upsilontonos" xMin="15" yMin="-70" xMax="1705" yMax="1562">
      <component glyphName="Y" x="440" y="0" flags="0x4"/>
      <component glyphName="tonos" x="-410" y="0" flags="0x4"/>
    </TTGlyph>
    <TTGlyph name="Uring" xMin="78" yMin="-72" xMax="1412" yMax="2208">
      <component glyphName="U" x="0" y="0" flags="0x204"/>
      <component glyphName="ring" x="160" y="450" flags="0x4"/>
    </TTGlyph>
    <TTGlyph name="Utilde" xMin="78" yMin="-72" xMax="1412" yMax="2004">
      <component glyphName="U" x="0" y="0" flags="0x204"/>
      <component glyphName="tilde" x="170" y="450" flags="0x4"/>
    </TTGlyph>
    <TTGlyph name="V" xMin="72" yMin="-80" xMax="1333" yMax="1534">
      <contour>
        <pt x="634" y="420" on="1"/>
        <pt x="785" y="800" on="0"/>
        <pt x="868" y="1025" on="1"/>
        <pt x="912" y="1144" on="0"/>
        <pt x="955" y="1264" on="1"/>
        <pt x="1014" y="1406" on="0"/>
        <pt x="1082" y="1483" on="1"/>
        <pt x="1127" y="1534" on="0"/>
        <pt x="1190" y="1534" on="1"/>
        <pt x="1247" y="1534" on="0"/>
        <pt x="1333" y="1455" on="0"/>
        <pt x="1333" y="1398" on="1"/>
        <pt x="1333" y="1358" on="0"/>
        <pt x="1306" y="1319" on="1"/>
        <pt x="1252" y="1241" on="0"/>
        <pt x="1207" y="1131" on="1"/>
        <pt x="1205" y="1127" on="0"/>
        <pt x="1133" y="933" on="1"/>
        <pt x="1043" y="702" on="0"/>
        <pt x="865" y="240" on="1"/>
        <pt x="819" y="119" on="0"/>
        <pt x="752" y="-2" on="1"/>
        <pt x="709" y="-80" on="0"/>
        <pt x="627" y="-80" on="1"/>
        <pt x="523" y="-80" on="0"/>
        <pt x="482" y="18" on="1"/>
        <pt x="360" y="309" on="0"/>
        <pt x="211" y="857" on="1"/>
        <pt x="170" y="992" on="0"/>
        <pt x="128" y="1127" on="1"/>
        <pt x="72" y="1315" on="0"/>
        <pt x="72" y="1388" on="1"/>
        <pt x="72" y="1447" on="0"/>
        <pt x="116" y="1486" on="1"/>
        <pt x="158" y="1522" on="0"/>
        <pt x="214" y="1522" on="1"/>
        <pt x="310" y="1522" on="0"/>
        <pt x="348" y="1422" on="1"/>
        <pt x="368" y="1335" on="0"/>
        <pt x="388" y="1249" on="1"/>
        <pt x="421" y="1141" on="0"/>
        <pt x="483" y="925" on="1"/>
        <pt x="561" y="639" on="0"/>
      </contour>
    </TTGlyph>
    <TTGlyph name="W" xMin="50" yMin="-96" xMax="2087" yMax="1526">
      <contour>
        <pt x="2052" y="1283" on="1"/>
        <pt x="2035" y="1242" on="0"/>
        <pt x="2012" y="1182" on="1"/>
        <pt x="1995" y="1124" on="0"/>
        <pt x="1957" y="1010" on="1"/>
        <pt x="1900" y="863" on="0"/>
        <pt x="1776" y="582" on="1"/>
        <pt x="1649" y="296" on="0"/>
        <pt x="1594" y="155" on="1"/>
        <pt x="1553" y="50" on="0"/>
        <pt x="1517" y="-13" on="1"/>
        <pt x="1470" y="-96" on="0"/>
        <pt x="1374" y="-96" on="1"/>
        <pt x="1317" y="-96" on="0"/>
        <pt x="1271" y="-65" on="1"/>
        <pt x="1217" y="-29" on="0"/>
        <pt x="1213" y="30" on="1"/>
        <pt x="1167" y="145" on="0"/>
        <pt x="1155" y="218" on="1"/>
        <pt x="1111" y="432" on="0"/>
        <pt x="1033" y="861" on="1"/>
        <pt x="968" y="660" on="0"/>
        <pt x="893" y="500" on="1"/>
        <pt x="781" y="260" on="0"/>
        <pt x="746" y="123" on="1"/>
        <pt x="755" y="101" on="0"/>
        <pt x="755" y="76" on="1"/>
        <pt x="755" y="14" on="0"/>
        <pt x="700" y="-25" on="1"/>
        <pt x="652" y="-58" on="0"/>
        <pt x="594" y="-58" on="1"/>
        <pt x="521" y="-58" on="0"/>
        <pt x="473" y="-21" on="1"/>
        <pt x="421" y="20" on="0"/>
        <pt x="419" y="91" on="1"/>
        <pt x="388" y="208" on="1"/>
        <pt x="355" y="364" on="0"/>
        <pt x="280" y="674" on="1"/>
        <pt x="214" y="911" on="0"/>
        <pt x="59" y="1349" on="1"/>
        <pt x="50" y="1374" on="0"/>
        <pt x="50" y="1399" on="1"/>
        <pt x="50" y="1459" on="0"/>
        <pt x="96" y="1494" on="1"/>
        <pt x="137" y="1526" on="0"/>
        <pt x="195" y="1526" on="1"/>
        <pt x="271" y="1526" on="0"/>
        <pt x="316" y="1462" on="1"/>
        <pt x="341" y="1427" on="0"/>
        <pt x="373" y="1335" on="1"/>
        <pt x="471" y="1053" on="0"/>
        <pt x="594" y="513" on="1"/>
        <pt x="674" y="708" on="0"/>
        <pt x="757" y="973" on="1"/>
        <pt x="824" y="1189" on="0"/>
        <pt x="866" y="1280" on="1"/>
        <pt x="966" y="1498" on="0"/>
        <pt x="1070" y="1498" on="1"/>
        <pt x="1168" y="1498" on="0"/>
        <pt x="1213" y="1391" on="1"/>
        <pt x="1235" y="1340" on="0"/>
        <pt x="1256" y="1206" on="1"/>
        <pt x="1262" y="1165" on="0"/>
        <pt x="1282" y="1005" on="1"/>
        <pt x="1303" y="833" on="0"/>
        <pt x="1408" y="379" on="1"/>
        <pt x="1514" y="627" on="0"/>
        <pt x="1693" y="1094" on="1"/>
        <pt x="1704" y="1122" on="0"/>
        <pt x="1745" y="1278" on="1"/>
        <pt x="1774" y="1390" on="0"/>
        <pt x="1818" y="1455" on="1"/>
        <pt x="1866" y="1525" on="0"/>
        <pt x="1946" y="1525" on="1"/>
        <pt x="2007" y="1525" on="0"/>
        <pt x="2087" y="1450" on="0"/>
        <pt x="2087" y="1391" on="1"/>
        <pt x="2087" y="1370" on="0"/>
      </contour>
    </TTGlyph>
    <TTGlyph name="Wacute" xMin="50" yMin="-96" xMax="2087" yMax="2115">
      <component glyphName="W" x="0" y="0" flags="0x204"/>
      <component glyphName="acute" x="720" y="450" flags="0x4"/>
    </TTGlyph>
    <TTGlyph name="Wcircumflex" xMin="50" yMin="-96" xMax="2087" yMax="2140">
      <component glyphName="W" x="0" y="0" flags="0x204"/>
      <component glyphName="circumflex" x="510" y="450" flags="0x4"/>
    </TTGlyph>
    <TTGlyph name="Wdieresis" xMin="50" yMin="-96" xMax="2087" yMax="1885">
      <component glyphName="W" x="0" y="0" flags="0x204"/>
      <component glyphName="dieresis" x="510" y="450" flags="0x4"/>
    </TTGlyph>
    <TTGlyph name="Wgrave" xMin="50" yMin="-96" xMax="2087" yMax="2111">
      <component glyphName="W" x="0" y="0" flags="0x204"/>
      <component glyphName="grave" x="630" y="450" flags="0x4"/>
    </TTGlyph>
    <TTGlyph name="X" xMin="11" yMin="-84" xMax="1430" yMax="1521">
      <contour>
        <pt x="1393" y="1295" on="1"/>
        <pt x="1261" y="1144" on="0"/>
        <pt x="1189" y="1043" on="1"/>
        <pt x="1113" y="932" on="0"/>
        <pt x="945" y="720" on="1"/>
        <pt x="1050" y="574" on="0"/>
        <pt x="1155" y="427" on="1"/>
        <pt x="1279" y="256" on="0"/>
        <pt x="1378" y="144" on="1"/>
        <pt x="1415" y="102" on="0"/>
        <pt x="1415" y="54" on="1"/>
        <pt x="1415" y="-2" on="0"/>
        <pt x="1330" y="-84" on="0"/>
        <pt x="1272" y="-84" on="1"/>
        <pt x="1173" y="-84" on="0"/>
        <pt x="1013" y="144" on="1"/>
        <pt x="970" y="210" on="0"/>
        <pt x="880" y="340" on="1"/>
        <pt x="838" y="398" on="0"/>
        <pt x="753" y="513" on="1"/>
        <pt x="630" y="374" on="0"/>
        <pt x="441" y="171" on="1"/>
        <pt x="381" y="103" on="0"/>
        <pt x="256" y="-27" on="1"/>
        <pt x="212" y="-69" on="0"/>
        <pt x="155" y="-69" on="1"/>
        <pt x="97" y="-69" on="0"/>
        <pt x="11" y="12" on="0"/>
        <pt x="11" y="68" on="1"/>
        <pt x="11" y="116" on="0"/>
        <pt x="46" y="156" on="1"/>
        <pt x="107" y="220" on="0"/>
        <pt x="228" y="349" on="1"/>
        <pt x="360" y="491" on="0"/>
        <pt x="581" y="739" on="1"/>
        <pt x="480" y="867" on="0"/>
        <pt x="368" y="995" on="1"/>
        <pt x="359" y="1005" on="0"/>
        <pt x="254" y="1141" on="1"/>
        <pt x="185" y="1230" on="0"/>
        <pt x="70" y="1321" on="0"/>
        <pt x="70" y="1383" on="1"/>
        <pt x="70" y="1436" on="0"/>
        <pt x="151" y="1521" on="0"/>
        <pt x="212" y="1521" on="1"/>
        <pt x="266" y="1521" on="0"/>
        <pt x="354" y="1445" on="1"/>
        <pt x="418" y="1389" on="0"/>
        <pt x="502" y="1276" on="0"/>
        <pt x="585" y="1170" on="1"/>
        <pt x="681" y="1061" on="0"/>
        <pt x="770" y="949" on="1"/>
        <pt x="896" y="1115" on="0"/>
        <pt x="1021" y="1281" on="1"/>
        <pt x="1215" y="1521" on="0"/>
        <pt x="1286" y="1521" on="1"/>
        <pt x="1344" y="1521" on="0"/>
        <pt x="1430" y="1440" on="0"/>
        <pt x="1430" y="1384" on="1"/>
        <pt x="1430" y="1337" on="0"/>
      </contour>
    </TTGlyph>
    <TTGlyph name="Xi" xMin="27" yMin="-65" xMax="1364" yMax="1547">
      <contour>
        <pt x="207" y="1547" on="1"/>
        <pt x="449" y="1547" on="1"/>
        <pt x="577" y="1547" on="0"/>
        <pt x="1093" y="1541" on="0"/>
        <pt x="1223" y="1541" on="1"/>
        <pt x="1281" y="1541" on="0"/>
        <pt x="1357" y="1466" on="0"/>
        <pt x="1357" y="1407" on="1"/>
        <pt x="1357" y="1348" on="0"/>
        <pt x="1281" y="1273" on="0"/>
        <pt x="1223" y="1273" on="1"/>
        <pt x="1053" y="1273" on="0"/>
        <pt x="376" y="1279" on="0"/>
        <pt x="207" y="1279" on="1"/>
        <pt x="148" y="1279" on="0"/>
        <pt x="73" y="1354" on="0"/>
        <pt x="73" y="1413" on="1"/>
        <pt x="73" y="1472" on="0"/>
        <pt x="148" y="1547" on="0"/>
      </contour>
      <contour>
        <pt x="1083" y="912" on="1"/>
        <pt x="1142" y="912" on="0"/>
        <pt x="1218" y="837" on="0"/>
        <pt x="1218" y="778" on="1"/>
        <pt x="1218" y="720" on="0"/>
        <pt x="1142" y="644" on="0"/>
        <pt x="1083" y="644" on="1"/>
        <pt x="871" y="644" on="0"/>
        <pt x="555" y="632" on="1"/>
        <pt x="285" y="622" on="0"/>
        <pt x="288" y="622" on="1"/>
        <pt x="226" y="622" on="0"/>
        <pt x="148" y="695" on="0"/>
        <pt x="148" y="756" on="1"/>
        <pt x="148" y="879" on="0"/>
        <pt x="278" y="890" on="1"/>
        <pt x="357" y="893" on="0"/>
        <pt x="515" y="899" on="1"/>
        <pt x="863" y="912" on="0"/>
      </contour>
      <contour>
        <pt x="1098" y="241" on="1"/>
        <pt x="1217" y="241" on="0"/>
        <pt x="1270" y="223" on="1"/>
        <pt x="1364" y="192" on="0"/>
        <pt x="1364" y="99" on="1"/>
        <pt x="1364" y="42" on="0"/>
        <pt x="1291" y="-38" on="0"/>
        <pt x="1234" y="-38" on="1"/>
        <pt x="1210" y="-38" on="0"/>
        <pt x="1113" y="-26" on="0"/>
        <pt x="1088" y="-26" on="1"/>
        <pt x="915" y="-26" on="0"/>
        <pt x="334" y="-65" on="0"/>
        <pt x="161" y="-65" on="1"/>
        <pt x="103" y="-65" on="0"/>
        <pt x="27" y="11" on="0"/>
        <pt x="27" y="70" on="1"/>
        <pt x="27" y="128" on="0"/>
        <pt x="103" y="204" on="0"/>
        <pt x="161" y="204" on="1"/>
        <pt x="336" y="204" on="0"/>
        <pt x="923" y="241" on="0"/>
      </contour>
    </TTGlyph>
    <TTGlyph name="Y" xMin="-11" yMin="-70" xMax="1265" yMax="1521">
      <contour>
        <pt x="1207" y="1234" on="1"/>
        <pt x="1156" y="1129" on="0"/>
        <pt x="1002" y="780" on="1"/>
        <pt x="874" y="488" on="0"/>
        <pt x="784" y="322" on="1"/>
        <pt x="628" y="34" on="0"/>
        <pt x="617" y="17" on="1"/>
        <pt x="558" y="-70" on="0"/>
        <pt x="481" y="-70" on="1"/>
        <pt x="426" y="-70" on="0"/>
        <pt x="384" y="-34" on="1"/>
        <pt x="338" y="6" on="0"/>
        <pt x="338" y="65" on="1"/>
        <pt x="338" y="114" on="0"/>
        <pt x="547" y="477" on="1"/>
        <pt x="470" y="588" on="0"/>
        <pt x="326" y="814" on="1"/>
        <pt x="218" y="980" on="0"/>
        <pt x="9" y="1315" on="1"/>
        <pt x="-11" y="1349" on="0"/>
        <pt x="-11" y="1386" on="1"/>
        <pt x="-11" y="1444" on="0"/>
        <pt x="34" y="1484" on="1"/>
        <pt x="76" y="1521" on="0"/>
        <pt x="132" y="1521" on="1"/>
        <pt x="198" y="1521" on="0"/>
        <pt x="252" y="1454" on="1"/>
        <pt x="327" y="1334" on="1"/>
        <pt x="334" y="1322" on="0"/>
        <pt x="499" y="1042" on="1"/>
        <pt x="603" y="863" on="0"/>
        <pt x="683" y="759" on="1"/>
        <pt x="759" y="912" on="0"/>
        <pt x="902" y="1222" on="1"/>
        <pt x="932" y="1291" on="0"/>
        <pt x="992" y="1431" on="1"/>
        <pt x="1030" y="1521" on="0"/>
        <pt x="1122" y="1521" on="1"/>
        <pt x="1177" y="1521" on="0"/>
        <pt x="1219" y="1485" on="1"/>
        <pt x="1265" y="1446" on="0"/>
        <pt x="1265" y="1387" on="1"/>
        <pt x="1265" y="1353" on="0"/>
      </contour>
    </TTGlyph>
    <TTGlyph name="Yacute" xMin="29" yMin="-70" xMax="1305" yMax="2206">
      <component glyphName="Y" x="40" y="0" flags="0x4"/>
      <component glyphName="acute" x="402" y="541" flags="0x4"/>
    </TTGlyph>
    <TTGlyph name="Ycircumflex" xMin="-11" yMin="-70" xMax="1265" yMax="2140">
      <component glyphName="Y" x="0" y="0" flags="0x204"/>
      <component glyphName="circumflex" x="40" y="450" flags="0x4"/>
    </TTGlyph>
    <TTGlyph name="Ydieresis" xMin="29" yMin="-70" xMax="1305" yMax="1890">
      <component glyphName="Y" x="40" y="0" flags="0x4"/>
      <component glyphName="dieresis" x="125" y="455" flags="0x4"/>
    </TTGlyph>
    <TTGlyph name="Ygrave" xMin="-11" yMin="-70" xMax="1265" yMax="2111">
      <component glyphName="Y" x="0" y="0" flags="0x204"/>
      <component glyphName="grave" x="260" y="450" flags="0x4"/>
    </TTGlyph>
    <TTGlyph name="Z" xMin="12" yMin="-51" xMax="1406" yMax="1509">
      <contour>
        <pt x="1274" y="1195" on="1"/>
        <pt x="1219" y="1161" on="0"/>
        <pt x="1139" y="1108" on="1"/>
        <pt x="970" y="983" on="0"/>
        <pt x="739" y="678" on="1"/>
        <pt x="562" y="440" on="0"/>
        <pt x="385" y="201" on="1"/>
        <pt x="381" y="196" on="1"/>
        <pt x="454" y="198" on="0"/>
        <pt x="733" y="210" on="1"/>
        <pt x="952" y="220" on="0"/>
        <pt x="1082" y="220" on="1"/>
        <pt x="1225" y="220" on="0"/>
        <pt x="1276" y="209" on="1"/>
        <pt x="1396" y="183" on="0"/>
        <pt x="1400" y="94" on="1"/>
        <pt x="1403" y="28" on="0"/>
        <pt x="1354" y="-10" on="1"/>
        <pt x="1312" y="-43" on="0"/>
        <pt x="1253" y="-43" on="1"/>
        <pt x="1224" y="-43" on="0"/>
        <pt x="1108" y="-36" on="0"/>
        <pt x="1079" y="-36" on="1"/>
        <pt x="927" y="-36" on="0"/>
        <pt x="318" y="-51" on="0"/>
        <pt x="166" y="-51" on="1"/>
        <pt x="101" y="-51" on="0"/>
        <pt x="59" y="-18" on="1"/>
        <pt x="12" y="18" on="0"/>
        <pt x="12" y="83" on="1"/>
        <pt x="12" y="155" on="0"/>
        <pt x="75" y="254" on="1"/>
        <pt x="95" y="285" on="0"/>
        <pt x="188" y="405" on="1"/>
        <pt x="352" y="624" on="0"/>
        <pt x="517" y="842" on="1"/>
        <pt x="713" y="1094" on="0"/>
        <pt x="884" y="1250" on="1"/>
        <pt x="728" y="1239" on="0"/>
        <pt x="646" y="1239" on="1"/>
        <pt x="242" y="1239" on="1"/>
        <pt x="231" y="1239" on="0"/>
        <pt x="189" y="1236" on="0"/>
        <pt x="178" y="1236" on="1"/>
        <pt x="119" y="1236" on="0"/>
        <pt x="78" y="1270" on="1"/>
        <pt x="32" y="1308" on="0"/>
        <pt x="32" y="1372" on="1"/>
        <pt x="32" y="1509" on="0"/>
        <pt x="235" y="1509" on="1"/>
        <pt x="304" y="1509" on="0"/>
        <pt x="578" y="1492" on="0"/>
        <pt x="647" y="1492" on="1"/>
        <pt x="724" y="1492" on="0"/>
        <pt x="1031" y="1500" on="0"/>
        <pt x="1108" y="1500" on="1"/>
        <pt x="1406" y="1500" on="0"/>
        <pt x="1406" y="1370" on="1"/>
        <pt x="1406" y="1287" on="0"/>
      </contour>
    </TTGlyph>
    <TTGlyph name="Zacute" xMin="12" yMin="-51" xMax="1406" yMax="2115">
      <component glyphName="Z" x="0" y="0" flags="0x204"/>
      <component glyphName="acute" x="360" y="450" flags="0x4"/>
    </TTGlyph>
    <TTGlyph name="Zcaron" xMin="12" yMin="-51" xMax="1406" yMax="2175">
      <component glyphName="Z" x="0" y="0" flags="0x4"/>
      <component glyphName="caron" x="155" y="548" flags="0x4"/>
    </TTGlyph>
    <TTGlyph name="Zdot" xMin="12" yMin="-51" xMax="1406" yMax="1894">
      <component glyphName="Z" x="0" y="0" flags="0x204"/>
      <component glyphName="dotaccent" x="310" y="450" flags="0x4"/>
    </TTGlyph>
    <TTGlyph name="Zeta" xMin="12" yMin="-51" xMax="1406" yMax="1509">
      <component glyphName="Z" x="0" y="0" flags="0x204"/>
    </TTGlyph>
    <TTGlyph name="a" xMin="56" yMin="-66" xMax="1099" yMax="1044">
      <contour>
        <pt x="965" y="-66" on="1"/>
        <pt x="919" y="-66" on="0"/>
        <pt x="819" y="34" on="1"/>
        <pt x="727" y="-10" on="0"/>
        <pt x="587" y="-55" on="0"/>
        <pt x="538" y="-55" on="1"/>
        <pt x="297" y="-55" on="0"/>
        <pt x="56" y="203" on="0"/>
        <pt x="56" y="460" on="1"/>
        <pt x="56" y="701" on="0"/>
        <pt x="412" y="1044" on="0"/>
        <pt x="660" y="1044" on="1"/>
        <pt x="755" y="1044" on="0"/>
        <pt x="880" y="990" on="1"/>
        <pt x="1031" y="925" on="0"/>
        <pt x="1031" y="839" on="1"/>
        <pt x="1031" y="803" on="0"/>
        <pt x="1008" y="776" on="1"/>
        <pt x="998" y="736" on="0"/>
        <pt x="987" y="615" on="0"/>
        <pt x="987" y="534" on="1"/>
        <pt x="987" y="343" on="0"/>
        <pt x="1014" y="259" on="1"/>
        <pt x="1017" y="250" on="0"/>
        <pt x="1060" y="155" on="1"/>
        <pt x="1099" y="69" on="0"/>
        <pt x="1099" y="57" on="1"/>
        <pt x="1099" y="4" on="0"/>
        <pt x="1018" y="-66" on="0"/>
      </contour>
      <contour>
        <pt x="717" y="620" on="1"/>
        <pt x="717" y="652" on="0"/>
        <pt x="726" y="735" on="0"/>
        <pt x="735" y="786" on="1"/>
        <pt x="715" y="796" on="0"/>
        <pt x="684" y="805" on="0"/>
        <pt x="673" y="805" on="1"/>
        <pt x="537" y="805" on="0"/>
        <pt x="333" y="592" on="0"/>
        <pt x="333" y="452" on="1"/>
        <pt x="333" y="318" on="0"/>
        <pt x="429" y="183" on="0"/>
        <pt x="525" y="183" on="1"/>
        <pt x="587" y="183" on="0"/>
        <pt x="698" y="224" on="0"/>
        <pt x="747" y="264" on="1"/>
        <pt x="717" y="502" on="0"/>
      </contour>
    </TTGlyph>
    <TTGlyph name="aacute" xMin="56" yMin="-66" xMax="1099" yMax="1665">
      <component glyphName="a" x="0" y="0" flags="0x4"/>
      <component glyphName="acute" x="264" y="0" flags="0x4"/>
    </TTGlyph>
    <TTGlyph name="abreve" xMin="56" yMin="-66" xMax="1100" yMax="1589">
      <component glyphName="a" x="0" y="0" flags="0x204"/>
      <component glyphName="breve" x="0" y="0" flags="0x4"/>
    </TTGlyph>
    <TTGlyph name="acircumflex" xMin="56" yMin="-66" xMax="1099" yMax="1698">
      <component glyphName="a" x="0" y="0" flags="0x4"/>
      <component glyphName="circumflex" x="-3" y="8" flags="0x4"/>
    </TTGlyph>
    <TTGlyph name="acute" xMin="173" yMin="1187" xMax="705" yMax="1665">
      <contour>
        <pt x="598" y="1427" on="0"/>
        <pt x="520" y="1341" on="1"/>
        <pt x="438" y="1251" on="0"/>
        <pt x="390" y="1216" on="1"/>
        <pt x="351" y="1187" on="0"/>
        <pt x="304" y="1187" on="1"/>
        <pt x="251" y="1187" on="0"/>
        <pt x="173" y="1255" on="0"/>
        <pt x="173" y="1300" on="1"/>
        <pt x="173" y="1337" on="0"/>
        <pt x="215" y="1381" on="1"/>
        <pt x="252" y="1415" on="0"/>
        <pt x="288" y="1449" on="1"/>
        <pt x="395" y="1566" on="0"/>
        <pt x="414" y="1583" on="1"/>
        <pt x="505" y="1665" on="0"/>
        <pt x="575" y="1665" on="1"/>
        <pt x="628" y="1665" on="0"/>
        <pt x="705" y="1595" on="0"/>
        <pt x="705" y="1551" on="1"/>
        <pt x="705" y="1500" on="0"/>
      </contour>
    </TTGlyph>
    <TTGlyph name="adieresis" xMin="56" yMin="-66" xMax="1099" yMax="1435">
      <component glyphName="a" x="0" y="0" flags="0x4"/>
      <component glyphName="dieresis" x="30" y="0" flags="0x4"/>
    </TTGlyph>
    <TTGlyph name="ae" xMin="27" yMin="-49" xMax="1833" yMax="1045">
      <contour>
        <pt x="786" y="23" on="1"/>
        <pt x="727" y="-13" on="0"/>
        <pt x="612" y="-49" on="0"/>
        <pt x="556" y="-49" on="1"/>
        <pt x="321" y="-49" on="0"/>
        <pt x="172" y="100" on="1"/>
        <pt x="27" y="244" on="0"/>
        <pt x="27" y="463" on="1"/>
        <pt x="27" y="699" on="0"/>
        <pt x="218" y="867" on="1"/>
        <pt x="405" y="1033" on="0"/>
        <pt x="658" y="1033" on="1"/>
        <pt x="767" y="1033" on="0"/>
        <pt x="913" y="985" on="1"/>
        <pt x="944" y="975" on="0"/>
        <pt x="962" y="927" on="1"/>
        <pt x="1097" y="1045" on="0"/>
        <pt x="1289" y="1045" on="1"/>
        <pt x="1457" y="1045" on="0"/>
        <pt x="1572" y="991" on="1"/>
        <pt x="1729" y="917" on="0"/>
        <pt x="1729" y="758" on="1"/>
        <pt x="1729" y="647" on="0"/>
        <pt x="1606" y="563" on="1"/>
        <pt x="1553" y="526" on="0"/>
        <pt x="1381" y="450" on="1"/>
        <pt x="1044" y="301" on="1"/>
        <pt x="1140" y="197" on="0"/>
        <pt x="1316" y="197" on="1"/>
        <pt x="1528" y="197" on="0"/>
        <pt x="1612" y="305" on="1"/>
        <pt x="1648" y="351" on="0"/>
        <pt x="1703" y="351" on="1"/>
        <pt x="1754" y="351" on="0"/>
        <pt x="1833" y="281" on="0"/>
        <pt x="1833" y="232" on="1"/>
        <pt x="1833" y="113" on="0"/>
        <pt x="1630" y="27" on="1"/>
        <pt x="1461" y="-46" on="0"/>
        <pt x="1316" y="-46" on="1"/>
        <pt x="1148" y="-46" on="0"/>
        <pt x="1025" y="17" on="1"/>
        <pt x="1006" y="-42" on="0"/>
        <pt x="910" y="-42" on="1"/>
        <pt x="817" y="-42" on="0"/>
      </contour>
      <contour>
        <pt x="1289" y="802" on="1"/>
        <pt x="1103" y="802" on="0"/>
        <pt x="1024" y="553" on="1"/>
        <pt x="1243" y="645" on="0"/>
        <pt x="1251" y="648" on="1"/>
        <pt x="1379" y="706" on="0"/>
        <pt x="1465" y="765" on="1"/>
        <pt x="1399" y="802" on="0"/>
      </contour>
      <contour>
        <pt x="728" y="391" on="1"/>
        <pt x="728" y="636" on="0"/>
        <pt x="747" y="784" on="1"/>
        <pt x="707" y="804" on="0"/>
        <pt x="693" y="807" on="0"/>
        <pt x="643" y="807" on="1"/>
        <pt x="504" y="807" on="0"/>
        <pt x="303" y="588" on="0"/>
        <pt x="303" y="451" on="1"/>
        <pt x="303" y="346" on="0"/>
        <pt x="380" y="263" on="1"/>
        <pt x="459" y="177" on="0"/>
        <pt x="564" y="177" on="1"/>
        <pt x="620" y="177" on="0"/>
        <pt x="711" y="212" on="0"/>
        <pt x="747" y="246" on="1"/>
        <pt x="728" y="352" on="0"/>
      </contour>
    </TTGlyph>
    <TTGlyph name="aeacute" xMin="27" yMin="-49" xMax="1833" yMax="1665">
      <component glyphName="ae" x="0" y="0" flags="0x204"/>
      <component glyphName="acute" x="620" y="0" flags="0x4"/>
    </TTGlyph>
    <TTGlyph name="afii00208" xMin="27" yMin="545" xMax="1748" yMax="747">
      <component glyphName="emdash" x="0" y="0" flags="0x4"/>
    </TTGlyph>
    <TTGlyph name="afii08941" xMin="72" yMin="-150" xMax="1499" yMax="1610">
      <contour>
        <pt x="940" y="592" on="1"/>
        <pt x="940" y="545" on="0"/>
        <pt x="870" y="488" on="0"/>
        <pt x="822" y="488" on="1"/>
        <pt x="804" y="488" on="0"/>
        <pt x="731" y="494" on="0"/>
        <pt x="712" y="494" on="1"/>
        <pt x="654" y="494" on="0"/>
        <pt x="605" y="487" on="1"/>
        <pt x="612" y="437" on="0"/>
        <pt x="612" y="392" on="1"/>
        <pt x="612" y="297" on="0"/>
        <pt x="587" y="210" on="1"/>
        <pt x="662" y="207" on="0"/>
        <pt x="805" y="151" on="1"/>
        <pt x="944" y="97" on="0"/>
        <pt x="1024" y="97" on="1"/>
        <pt x="1181" y="97" on="0"/>
        <pt x="1224" y="164" on="1"/>
        <pt x="1239" y="226" on="0"/>
        <pt x="1255" y="289" on="1"/>
        <pt x="1272" y="356" on="0"/>
        <pt x="1369" y="356" on="1"/>
        <pt x="1427" y="356" on="0"/>
        <pt x="1499" y="284" on="0"/>
        <pt x="1499" y="226" on="1"/>
        <pt x="1499" y="166" on="0"/>
        <pt x="1476" y="100" on="1"/>
        <pt x="1389" y="-150" on="0"/>
        <pt x="1024" y="-150" on="1"/>
        <pt x="939" y="-150" on="0"/>
        <pt x="633" y="-37" on="0"/>
        <pt x="550" y="-37" on="1"/>
        <pt x="489" y="-37" on="0"/>
        <pt x="319" y="-117" on="0"/>
        <pt x="291" y="-117" on="1"/>
        <pt x="240" y="-117" on="0"/>
        <pt x="164" y="-45" on="0"/>
        <pt x="164" y="5" on="1"/>
        <pt x="164" y="46" on="0"/>
        <pt x="213" y="97" on="1"/>
        <pt x="285" y="172" on="0"/>
        <pt x="305" y="203" on="1"/>
        <pt x="354" y="283" on="0"/>
        <pt x="354" y="392" on="1"/>
        <pt x="354" y="435" on="0"/>
        <pt x="346" y="487" on="1"/>
        <pt x="264" y="494" on="0"/>
        <pt x="182" y="500" on="1"/>
        <pt x="82" y="520" on="0"/>
        <pt x="82" y="601" on="1"/>
        <pt x="82" y="651" on="0"/>
        <pt x="121" y="680" on="1"/>
        <pt x="156" y="706" on="0"/>
        <pt x="207" y="706" on="1"/>
        <pt x="251" y="706" on="0"/>
        <pt x="298" y="702" on="1"/>
        <pt x="276" y="796" on="0"/>
        <pt x="268" y="861" on="1"/>
        <pt x="161" y="869" on="0"/>
        <pt x="142" y="875" on="1"/>
        <pt x="72" y="896" on="0"/>
        <pt x="72" y="969" on="1"/>
        <pt x="72" y="1073" on="0"/>
        <pt x="221" y="1073" on="1"/>
        <pt x="244" y="1073" on="0"/>
        <pt x="274" y="1070" on="1"/>
        <pt x="314" y="1317" on="0"/>
        <pt x="472" y="1461" on="1"/>
        <pt x="635" y="1610" on="0"/>
        <pt x="882" y="1610" on="1"/>
        <pt x="1058" y="1610" on="0"/>
        <pt x="1201" y="1536" on="1"/>
        <pt x="1377" y="1446" on="0"/>
        <pt x="1377" y="1287" on="1"/>
        <pt x="1377" y="1236" on="0"/>
        <pt x="1296" y="1166" on="0"/>
        <pt x="1244" y="1166" on="1"/>
        <pt x="1178" y="1166" on="0"/>
        <pt x="1144" y="1218" on="1"/>
        <pt x="1088" y="1303" on="0"/>
        <pt x="1072" y="1316" on="1"/>
        <pt x="1007" y="1368" on="0"/>
        <pt x="869" y="1368" on="1"/>
        <pt x="729" y="1368" on="0"/>
        <pt x="640" y="1280" on="1"/>
        <pt x="558" y="1199" on="0"/>
        <pt x="532" y="1057" on="1"/>
        <pt x="729" y="1072" on="0"/>
        <pt x="702" y="1072" on="1"/>
        <pt x="930" y="1072" on="0"/>
        <pt x="930" y="959" on="1"/>
        <pt x="930" y="912" on="0"/>
        <pt x="860" y="855" on="0"/>
        <pt x="812" y="855" on="1"/>
        <pt x="794" y="855" on="0"/>
        <pt x="721" y="862" on="0"/>
        <pt x="702" y="862" on="1"/>
        <pt x="668" y="862" on="0"/>
        <pt x="615" y="856" on="1"/>
        <pt x="546" y="848" on="0"/>
        <pt x="529" y="847" on="1"/>
        <pt x="537" y="791" on="0"/>
        <pt x="562" y="692" on="1"/>
        <pt x="679" y="704" on="0"/>
        <pt x="712" y="704" on="1"/>
        <pt x="940" y="704" on="0"/>
      </contour>
    </TTGlyph>
    <TTGlyph name="afii10017" xMin="91" yMin="-32" xMax="1392" yMax="1478">
      <component glyphName="A" x="0" y="0" flags="0x204"/>
    </TTGlyph>
    <TTGlyph name="afii10018" xMin="115" yMin="-14" xMax="1170" yMax="1522">
      <contour>
        <pt x="564" y="-14" on="1"/>
        <pt x="517" y="-14" on="0"/>
        <pt x="435" y="-10" on="1"/>
        <pt x="341" y="-6" on="0"/>
        <pt x="306" y="-5" on="1"/>
        <pt x="284" y="-11" on="0"/>
        <pt x="262" y="-11" on="1"/>
        <pt x="115" y="-11" on="0"/>
        <pt x="115" y="195" on="1"/>
        <pt x="115" y="222" on="0"/>
        <pt x="129" y="364" on="1"/>
        <pt x="148" y="552" on="0"/>
        <pt x="148" y="716" on="1"/>
        <pt x="148" y="812" on="0"/>
        <pt x="128" y="1192" on="0"/>
        <pt x="128" y="1288" on="1"/>
        <pt x="128" y="1410" on="0"/>
        <pt x="148" y="1448" on="1"/>
        <pt x="183" y="1515" on="0"/>
        <pt x="306" y="1515" on="1"/>
        <pt x="381" y="1515" on="0"/>
        <pt x="684" y="1522" on="0"/>
        <pt x="760" y="1522" on="1"/>
        <pt x="1012" y="1522" on="1"/>
        <pt x="1072" y="1522" on="0"/>
        <pt x="1151" y="1447" on="0"/>
        <pt x="1151" y="1390" on="1"/>
        <pt x="1151" y="1333" on="0"/>
        <pt x="1072" y="1258" on="0"/>
        <pt x="1012" y="1258" on="1"/>
        <pt x="903" y="1258" on="0"/>
        <pt x="412" y="1251" on="1"/>
        <pt x="417" y="1126" on="0"/>
        <pt x="427" y="978" on="1"/>
        <pt x="479" y="980" on="0"/>
        <pt x="513" y="980" on="1"/>
        <pt x="831" y="980" on="0"/>
        <pt x="981" y="885" on="1"/>
        <pt x="1170" y="767" on="0"/>
        <pt x="1170" y="470" on="1"/>
        <pt x="1170" y="218" on="0"/>
        <pt x="986" y="93" on="1"/>
        <pt x="829" y="-14" on="0"/>
      </contour>
      <contour>
        <pt x="556" y="718" on="1"/>
        <pt x="507" y="718" on="0"/>
        <pt x="431" y="713" on="1"/>
        <pt x="432" y="691" on="0"/>
        <pt x="432" y="667" on="1"/>
        <pt x="432" y="559" on="0"/>
        <pt x="409" y="253" on="1"/>
        <pt x="503" y="251" on="0"/>
        <pt x="564" y="251" on="1"/>
        <pt x="891" y="251" on="0"/>
        <pt x="891" y="470" on="1"/>
        <pt x="891" y="622" on="0"/>
        <pt x="807" y="674" on="1"/>
        <pt x="739" y="718" on="0"/>
      </contour>
    </TTGlyph>
    <TTGlyph name="afii10019" xMin="132" yMin="-48" xMax="1232" yMax="1571">
      <component glyphName="B" x="0" y="0" flags="0x204"/>
    </TTGlyph>
    <TTGlyph name="afii10020" xMin="61" yMin="-93" xMax="1129" yMax="1545">
      <component glyphName="Gamma" x="0" y="0" flags="0x204"/>
    </TTGlyph>
    <TTGlyph name="afii10021" xMin="50" yMin="-334" xMax="1530" yMax="1543">
      <contour>
        <pt x="1516" y="-112" on="1"/>
        <pt x="1516" y="-127" on="0"/>
        <pt x="1522" y="-186" on="0"/>
        <pt x="1522" y="-201" on="1"/>
        <pt x="1522" y="-258" on="0"/>
        <pt x="1442" y="-334" on="0"/>
        <pt x="1382" y="-334" on="1"/>
        <pt x="1291" y="-334" on="0"/>
        <pt x="1258" y="-259" on="1"/>
        <pt x="1237" y="-211" on="0"/>
        <pt x="1237" y="-112" on="1"/>
        <pt x="1237" y="-76" on="0"/>
        <pt x="1243" y="-14" on="1"/>
        <pt x="1120" y="-14" on="0"/>
        <pt x="788" y="-18" on="1"/>
        <pt x="461" y="-21" on="0"/>
        <pt x="334" y="-21" on="1"/>
        <pt x="331" y="-157" on="0"/>
        <pt x="331" y="-190" on="1"/>
        <pt x="331" y="-247" on="0"/>
        <pt x="252" y="-323" on="0"/>
        <pt x="192" y="-323" on="1"/>
        <pt x="132" y="-323" on="0"/>
        <pt x="53" y="-247" on="0"/>
        <pt x="53" y="-190" on="1"/>
        <pt x="53" y="-146" on="0"/>
        <pt x="57" y="30" on="0"/>
        <pt x="57" y="74" on="1"/>
        <pt x="50" y="104" on="0"/>
        <pt x="50" y="109" on="1"/>
        <pt x="50" y="211" on="0"/>
        <pt x="194" y="239" on="1"/>
        <pt x="392" y="661" on="0"/>
        <pt x="392" y="1171" on="1"/>
        <pt x="392" y="1208" on="0"/>
        <pt x="369" y="1351" on="0"/>
        <pt x="369" y="1384" on="1"/>
        <pt x="369" y="1516" on="0"/>
        <pt x="559" y="1518" on="1"/>
        <pt x="1067" y="1520" on="1"/>
        <pt x="1064" y="1520" on="0"/>
        <pt x="1222" y="1526" on="1"/>
        <pt x="1254" y="1543" on="0"/>
        <pt x="1292" y="1543" on="1"/>
        <pt x="1352" y="1543" on="0"/>
        <pt x="1432" y="1467" on="0"/>
        <pt x="1432" y="1410" on="1"/>
        <pt x="1432" y="1309" on="0"/>
        <pt x="1438" y="908" on="0"/>
        <pt x="1438" y="808" on="1"/>
        <pt x="1438" y="638" on="0"/>
        <pt x="1427" y="235" on="1"/>
        <pt x="1435" y="231" on="1"/>
        <pt x="1530" y="203" on="0"/>
        <pt x="1530" y="104" on="1"/>
        <pt x="1530" y="68" on="0"/>
        <pt x="1516" y="-76" on="0"/>
      </contour>
      <contour>
        <pt x="1154" y="1254" on="1"/>
        <pt x="1097" y="1253" on="0"/>
        <pt x="1004" y="1254" on="1"/>
        <pt x="888" y="1256" on="0"/>
        <pt x="854" y="1256" on="1"/>
        <pt x="790" y="1256" on="0"/>
        <pt x="671" y="1253" on="1"/>
        <pt x="671" y="1246" on="0"/>
        <pt x="671" y="1166" on="1"/>
        <pt x="671" y="965" on="0"/>
        <pt x="627" y="713" on="1"/>
        <pt x="578" y="437" on="0"/>
        <pt x="500" y="252" on="1"/>
        <pt x="570" y="252" on="0"/>
        <pt x="722" y="258" on="1"/>
        <pt x="867" y="263" on="0"/>
        <pt x="945" y="263" on="1"/>
        <pt x="1012" y="263" on="0"/>
        <pt x="1146" y="258" on="1"/>
        <pt x="1147" y="347" on="0"/>
        <pt x="1153" y="531" on="1"/>
        <pt x="1159" y="703" on="0"/>
        <pt x="1159" y="808" on="1"/>
        <pt x="1159" y="847" on="0"/>
      </contour>
    </TTGlyph>
    <TTGlyph name="afii10022" xMin="94" yMin="-99" xMax="1247" yMax="1605">
      <component glyphName="E" x="0" y="0" flags="0x204"/>
    </TTGlyph>
    <TTGlyph name="afii10023" xMin="94" yMin="-99" xMax="1247" yMax="2003">
      <component glyphName="E" x="0" y="0" flags="0x4"/>
      <component glyphName="dieresis" x="100" y="568" flags="0x4"/>
    </TTGlyph>
    <TTGlyph name="afii10024" xMin="-10" yMin="-16" xMax="1758" yMax="1538">
      <contour>
        <pt x="1616" y="-12" on="1"/>
        <pt x="1518" y="-12" on="0"/>
        <pt x="1482" y="91" on="1"/>
        <pt x="1443" y="202" on="0"/>
        <pt x="1288" y="444" on="1"/>
        <pt x="1112" y="718" on="0"/>
        <pt x="1042" y="720" on="1"/>
        <pt x="1029" y="721" on="0"/>
        <pt x="1011" y="721" on="1"/>
        <pt x="1011" y="667" on="0"/>
        <pt x="1010" y="542" on="1"/>
        <pt x="1009" y="425" on="0"/>
        <pt x="1009" y="364" on="1"/>
        <pt x="1009" y="348" on="0"/>
        <pt x="1014" y="250" on="0"/>
        <pt x="1014" y="221" on="1"/>
        <pt x="1014" y="-16" on="0"/>
        <pt x="865" y="-16" on="1"/>
        <pt x="806" y="-16" on="0"/>
        <pt x="725" y="56" on="0"/>
        <pt x="725" y="114" on="1"/>
        <pt x="725" y="185" on="0"/>
        <pt x="737" y="471" on="0"/>
        <pt x="737" y="542" on="1"/>
        <pt x="737" y="638" on="0"/>
        <pt x="736" y="721" on="1"/>
        <pt x="705" y="721" on="1"/>
        <pt x="635" y="721" on="0"/>
        <pt x="460" y="445" on="1"/>
        <pt x="304" y="202" on="0"/>
        <pt x="265" y="91" on="1"/>
        <pt x="229" y="-12" on="0"/>
        <pt x="132" y="-12" on="1"/>
        <pt x="75" y="-12" on="0"/>
        <pt x="34" y="24" on="1"/>
        <pt x="-10" y="61" on="0"/>
        <pt x="-10" y="117" on="1"/>
        <pt x="-10" y="242" on="0"/>
        <pt x="151" y="493" on="1"/>
        <pt x="309" y="739" on="0"/>
        <pt x="450" y="842" on="1"/>
        <pt x="354" y="916" on="0"/>
        <pt x="282" y="1084" on="1"/>
        <pt x="195" y="1286" on="0"/>
        <pt x="116" y="1286" on="1"/>
        <pt x="74" y="1286" on="0"/>
        <pt x="46" y="1325" on="1"/>
        <pt x="23" y="1358" on="0"/>
        <pt x="23" y="1398" on="1"/>
        <pt x="23" y="1446" on="0"/>
        <pt x="89" y="1479" on="1"/>
        <pt x="144" y="1507" on="0"/>
        <pt x="196" y="1507" on="1"/>
        <pt x="382" y="1507" on="0"/>
        <pt x="494" y="1262" on="1"/>
        <pt x="511" y="1203" on="0"/>
        <pt x="562" y="1090" on="1"/>
        <pt x="616" y="1006" on="0"/>
        <pt x="727" y="994" on="1"/>
        <pt x="717" y="1224" on="0"/>
        <pt x="717" y="1350" on="1"/>
        <pt x="717" y="1538" on="0"/>
        <pt x="860" y="1538" on="1"/>
        <pt x="920" y="1538" on="0"/>
        <pt x="999" y="1463" on="0"/>
        <pt x="999" y="1406" on="1"/>
        <pt x="999" y="1324" on="0"/>
        <pt x="1009" y="991" on="1"/>
        <pt x="1129" y="1002" on="0"/>
        <pt x="1181" y="1086" on="1"/>
        <pt x="1218" y="1174" on="0"/>
        <pt x="1255" y="1262" on="1"/>
        <pt x="1366" y="1506" on="0"/>
        <pt x="1552" y="1506" on="1"/>
        <pt x="1604" y="1506" on="0"/>
        <pt x="1659" y="1479" on="1"/>
        <pt x="1725" y="1446" on="0"/>
        <pt x="1725" y="1398" on="1"/>
        <pt x="1725" y="1358" on="0"/>
        <pt x="1701" y="1324" on="1"/>
        <pt x="1674" y="1286" on="0"/>
        <pt x="1632" y="1286" on="1"/>
        <pt x="1553" y="1286" on="0"/>
        <pt x="1466" y="1084" on="1"/>
        <pt x="1393" y="916" on="0"/>
        <pt x="1298" y="842" on="1"/>
        <pt x="1439" y="739" on="0"/>
        <pt x="1597" y="492" on="1"/>
        <pt x="1758" y="242" on="0"/>
        <pt x="1758" y="117" on="1"/>
        <pt x="1758" y="61" on="0"/>
        <pt x="1672" y="-12" on="0"/>
      </contour>
    </TTGlyph>
    <TTGlyph name="afii10025" xMin="26" yMin="-42" xMax="1161" yMax="1508">
      <contour>
        <pt x="531" y="-42" on="1"/>
        <pt x="353" y="-42" on="0"/>
        <pt x="209" y="22" on="1"/>
        <pt x="56" y="91" on="0"/>
        <pt x="30" y="196" on="1"/>
        <pt x="26" y="212" on="0"/>
        <pt x="26" y="228" on="1"/>
        <pt x="26" y="282" on="0"/>
        <pt x="109" y="357" on="0"/>
        <pt x="168" y="357" on="1"/>
        <pt x="262" y="357" on="0"/>
        <pt x="408" y="223" on="0"/>
        <pt x="531" y="223" on="1"/>
        <pt x="716" y="223" on="0"/>
        <pt x="793" y="266" on="1"/>
        <pt x="883" y="316" on="0"/>
        <pt x="883" y="447" on="1"/>
        <pt x="883" y="539" on="0"/>
        <pt x="809" y="594" on="1"/>
        <pt x="740" y="647" on="0"/>
        <pt x="635" y="647" on="1"/>
        <pt x="622" y="647" on="0"/>
        <pt x="572" y="644" on="0"/>
        <pt x="559" y="644" on="1"/>
        <pt x="503" y="644" on="0"/>
        <pt x="463" y="676" on="1"/>
        <pt x="419" y="711" on="0"/>
        <pt x="419" y="768" on="1"/>
        <pt x="419" y="819" on="0"/>
        <pt x="485" y="897" on="0"/>
        <pt x="538" y="907" on="1"/>
        <pt x="560" y="910" on="0"/>
        <pt x="606" y="915" on="1"/>
        <pt x="707" y="927" on="0"/>
        <pt x="857" y="1041" on="0"/>
        <pt x="857" y="1111" on="1"/>
        <pt x="857" y="1154" on="0"/>
        <pt x="727" y="1243" on="0"/>
        <pt x="676" y="1243" on="1"/>
        <pt x="525" y="1243" on="0"/>
        <pt x="429" y="1195" on="1"/>
        <pt x="396" y="1176" on="0"/>
        <pt x="363" y="1158" on="1"/>
        <pt x="324" y="1137" on="0"/>
        <pt x="291" y="1137" on="1"/>
        <pt x="236" y="1137" on="0"/>
        <pt x="190" y="1168" on="1"/>
        <pt x="137" y="1204" on="0"/>
        <pt x="137" y="1261" on="1"/>
        <pt x="137" y="1383" on="0"/>
        <pt x="309" y="1450" on="1"/>
        <pt x="457" y="1508" on="0"/>
        <pt x="676" y="1508" on="1"/>
        <pt x="847" y="1508" on="0"/>
        <pt x="984" y="1403" on="1"/>
        <pt x="1135" y="1286" on="0"/>
        <pt x="1135" y="1111" on="1"/>
        <pt x="1135" y="919" on="0"/>
        <pt x="994" y="792" on="1"/>
        <pt x="1161" y="661" on="0"/>
        <pt x="1161" y="447" on="1"/>
        <pt x="1161" y="186" on="0"/>
        <pt x="970" y="62" on="1"/>
        <pt x="810" y="-42" on="0"/>
      </contour>
    </TTGlyph>
    <TTGlyph name="afii10026" xMin="88" yMin="-52" xMax="1428" yMax="1548">
      <contour>
        <pt x="1140" y="985" on="1"/>
        <pt x="1034" y="887" on="0"/>
        <pt x="838" y="678" on="1"/>
        <pt x="687" y="494" on="0"/>
        <pt x="508" y="250" on="1"/>
        <pt x="458" y="180" on="0"/>
        <pt x="356" y="41" on="1"/>
        <pt x="306" y="-24" on="0"/>
        <pt x="239" y="-24" on="1"/>
        <pt x="172" y="-24" on="0"/>
        <pt x="88" y="59" on="0"/>
        <pt x="92" y="122" on="1"/>
        <pt x="127" y="697" on="0"/>
        <pt x="127" y="762" on="1"/>
        <pt x="127" y="1023" on="0"/>
        <pt x="116" y="1246" on="1"/>
        <pt x="115" y="1262" on="0"/>
        <pt x="110" y="1326" on="1"/>
        <pt x="106" y="1376" on="0"/>
        <pt x="106" y="1407" on="1"/>
        <pt x="106" y="1464" on="0"/>
        <pt x="185" y="1540" on="0"/>
        <pt x="245" y="1540" on="1"/>
        <pt x="305" y="1540" on="0"/>
        <pt x="384" y="1464" on="0"/>
        <pt x="384" y="1407" on="1"/>
        <pt x="384" y="1378" on="0"/>
        <pt x="389" y="1331" on="1"/>
        <pt x="394" y="1273" on="0"/>
        <pt x="395" y="1256" on="1"/>
        <pt x="401" y="1122" on="0"/>
        <pt x="401" y="923" on="1"/>
        <pt x="401" y="763" on="0"/>
        <pt x="394" y="608" on="1"/>
        <pt x="617" y="900" on="0"/>
        <pt x="919" y="1176" on="1"/>
        <pt x="970" y="1223" on="0"/>
        <pt x="1040" y="1313" on="1"/>
        <pt x="1125" y="1423" on="0"/>
        <pt x="1155" y="1456" on="1"/>
        <pt x="1183" y="1548" on="0"/>
        <pt x="1287" y="1548" on="1"/>
        <pt x="1347" y="1548" on="0"/>
        <pt x="1428" y="1476" on="0"/>
        <pt x="1428" y="1418" on="1"/>
        <pt x="1428" y="1356" on="0"/>
        <pt x="1418" y="1109" on="0"/>
        <pt x="1418" y="1048" on="1"/>
        <pt x="1418" y="978" on="0"/>
        <pt x="1414" y="697" on="0"/>
        <pt x="1414" y="627" on="1"/>
        <pt x="1414" y="536" on="0"/>
        <pt x="1399" y="172" on="0"/>
        <pt x="1399" y="80" on="1"/>
        <pt x="1399" y="24" on="0"/>
        <pt x="1319" y="-52" on="0"/>
        <pt x="1260" y="-52" on="1"/>
        <pt x="1200" y="-52" on="0"/>
        <pt x="1120" y="24" on="0"/>
        <pt x="1120" y="80" on="1"/>
        <pt x="1120" y="173" on="0"/>
        <pt x="1135" y="542" on="0"/>
        <pt x="1135" y="634" on="1"/>
        <pt x="1135" y="701" on="0"/>
        <pt x="1137" y="810" on="1"/>
        <pt x="1140" y="946" on="0"/>
      </contour>
    </TTGlyph>
    <TTGlyph name="afii10027" xMin="88" yMin="-52" xMax="1428" yMax="2039">
      <component glyphName="afii10026" x="0" y="0" flags="0x204"/>
      <component glyphName="breve" x="140" y="450" flags="0x4"/>
    </TTGlyph>
    <TTGlyph name="afii10028" xMin="121" yMin="-16" xMax="1252" yMax="1538">
      <contour>
        <pt x="1110" y="-12" on="1"/>
        <pt x="1012" y="-12" on="0"/>
        <pt x="976" y="91" on="1"/>
        <pt x="930" y="222" on="0"/>
        <pt x="786" y="430" on="1"/>
        <pt x="605" y="690" on="0"/>
        <pt x="487" y="690" on="1"/>
        <pt x="415" y="690" on="1"/>
        <pt x="415" y="640" on="0"/>
        <pt x="414" y="529" on="1"/>
        <pt x="413" y="425" on="0"/>
        <pt x="413" y="364" on="1"/>
        <pt x="413" y="348" on="0"/>
        <pt x="418" y="250" on="0"/>
        <pt x="418" y="221" on="1"/>
        <pt x="418" y="-16" on="0"/>
        <pt x="269" y="-16" on="1"/>
        <pt x="210" y="-16" on="0"/>
        <pt x="129" y="56" on="0"/>
        <pt x="129" y="114" on="1"/>
        <pt x="129" y="185" on="0"/>
        <pt x="141" y="471" on="0"/>
        <pt x="141" y="542" on="1"/>
        <pt x="141" y="677" on="0"/>
        <pt x="121" y="1215" on="0"/>
        <pt x="121" y="1350" on="1"/>
        <pt x="121" y="1538" on="0"/>
        <pt x="264" y="1538" on="1"/>
        <pt x="324" y="1538" on="0"/>
        <pt x="403" y="1463" on="0"/>
        <pt x="403" y="1406" on="1"/>
        <pt x="403" y="1304" on="0"/>
        <pt x="413" y="961" on="1"/>
        <pt x="549" y="979" on="0"/>
        <pt x="640" y="1122" on="1"/>
        <pt x="713" y="1248" on="0"/>
        <pt x="786" y="1375" on="1"/>
        <pt x="885" y="1506" on="0"/>
        <pt x="1046" y="1506" on="1"/>
        <pt x="1098" y="1506" on="0"/>
        <pt x="1153" y="1479" on="1"/>
        <pt x="1219" y="1446" on="0"/>
        <pt x="1219" y="1398" on="1"/>
        <pt x="1219" y="1358" on="0"/>
        <pt x="1195" y="1324" on="1"/>
        <pt x="1168" y="1286" on="0"/>
        <pt x="1126" y="1286" on="1"/>
        <pt x="1047" y="1286" on="0"/>
        <pt x="960" y="1084" on="1"/>
        <pt x="887" y="914" on="0"/>
        <pt x="750" y="838" on="1"/>
        <pt x="910" y="731" on="0"/>
        <pt x="1252" y="242" on="0"/>
        <pt x="1252" y="117" on="1"/>
        <pt x="1252" y="61" on="0"/>
        <pt x="1166" y="-12" on="0"/>
      </contour>
    </TTGlyph>
    <TTGlyph name="afii10029" xMin="5" yMin="-22" xMax="1395" yMax="1525">
      <contour>
        <pt x="1240" y="-22" on="1"/>
        <pt x="1102" y="-22" on="0"/>
        <pt x="1102" y="185" on="1"/>
        <pt x="1102" y="273" on="0"/>
        <pt x="1108" y="628" on="0"/>
        <pt x="1108" y="716" on="1"/>
        <pt x="1108" y="811" on="0"/>
        <pt x="1103" y="983" on="1"/>
        <pt x="1098" y="1168" on="0"/>
        <pt x="1098" y="1249" on="1"/>
        <pt x="1048" y="1249" on="0"/>
        <pt x="1018" y="1249" on="1"/>
        <pt x="949" y="1249" on="0"/>
        <pt x="673" y="1258" on="0"/>
        <pt x="604" y="1258" on="1"/>
        <pt x="579" y="1258" on="0"/>
        <pt x="548" y="1257" on="1"/>
        <pt x="560" y="1129" on="0"/>
        <pt x="560" y="970" on="1"/>
        <pt x="560" y="880" on="0"/>
        <pt x="549" y="519" on="0"/>
        <pt x="549" y="429" on="1"/>
        <pt x="549" y="211" on="0"/>
        <pt x="470" y="107" on="1"/>
        <pt x="375" y="-19" on="0"/>
        <pt x="144" y="-19" on="1"/>
        <pt x="85" y="-19" on="0"/>
        <pt x="5" y="57" on="0"/>
        <pt x="5" y="114" on="1"/>
        <pt x="5" y="194" on="0"/>
        <pt x="55" y="221" on="1"/>
        <pt x="76" y="232" on="0"/>
        <pt x="171" y="247" on="1"/>
        <pt x="217" y="255" on="0"/>
        <pt x="237" y="280" on="1"/>
        <pt x="271" y="322" on="0"/>
        <pt x="271" y="429" on="1"/>
        <pt x="271" y="519" on="0"/>
        <pt x="282" y="880" on="0"/>
        <pt x="282" y="970" on="1"/>
        <pt x="282" y="1175" on="0"/>
        <pt x="260" y="1327" on="1"/>
        <pt x="243" y="1357" on="0"/>
        <pt x="243" y="1392" on="1"/>
        <pt x="243" y="1447" on="0"/>
        <pt x="321" y="1525" on="0"/>
        <pt x="380" y="1525" on="1"/>
        <pt x="417" y="1525" on="0"/>
        <pt x="566" y="1516" on="0"/>
        <pt x="604" y="1516" on="1"/>
        <pt x="1236" y="1516" on="1"/>
        <pt x="1294" y="1516" on="0"/>
        <pt x="1379" y="1438" on="0"/>
        <pt x="1379" y="1382" on="1"/>
        <pt x="1379" y="1186" on="0"/>
        <pt x="1395" y="398" on="0"/>
        <pt x="1395" y="202" on="1"/>
        <pt x="1395" y="-22" on="0"/>
      </contour>
    </TTGlyph>
    <TTGlyph name="afii10030" xMin="72" yMin="-83" xMax="1771" yMax="1534">
      <component glyphName="M" x="0" y="0" flags="0x204"/>
    </TTGlyph>
    <TTGlyph name="afii10031" xMin="112" yMin="-83" xMax="1505" yMax="1554">
      <component glyphName="H" x="0" y="0" flags="0x204"/>
    </TTGlyph>
    <TTGlyph name="afii10032" xMin="60" yMin="-61" xMax="1572" yMax="1515">
      <component glyphName="O" x="0" y="0" flags="0x204"/>
    </TTGlyph>
    <TTGlyph name="afii10033" xMin="65" yMin="-61" xMax="1796" yMax="1567">
      <component glyphName="Pi" x="0" y="0" flags="0x204"/>
    </TTGlyph>
    <TTGlyph name="afii10034" xMin="60" yMin="-24" xMax="1045" yMax="1571">
      <component glyphName="P" x="0" y="0" flags="0x204"/>
    </TTGlyph>
    <TTGlyph name="afii10035" xMin="50" yMin="-24" xMax="1243" yMax="1523">
      <component glyphName="C" x="0" y="0" flags="0x204"/>
    </TTGlyph>
    <TTGlyph name="afii10036" xMin="10" yMin="-8" xMax="1437" yMax="1520">
      <component glyphName="T" x="0" y="0" flags="0x204"/>
    </TTGlyph>
    <TTGlyph name="afii10037" xMin="19" yMin="-38" xMax="1295" yMax="1521">
      <contour>
        <pt x="1243" y="1245" on="1"/>
        <pt x="1218" y="1206" on="0"/>
        <pt x="1175" y="1127" on="1"/>
        <pt x="969" y="661" on="0"/>
        <pt x="815" y="325" on="1"/>
        <pt x="649" y="-38" on="0"/>
        <pt x="232" y="-38" on="1"/>
        <pt x="172" y="-38" on="0"/>
        <pt x="92" y="38" on="0"/>
        <pt x="92" y="95" on="1"/>
        <pt x="92" y="173" on="0"/>
        <pt x="149" y="203" on="1"/>
        <pt x="181" y="220" on="0"/>
        <pt x="274" y="230" on="1"/>
        <pt x="401" y="244" on="0"/>
        <pt x="464" y="309" on="1"/>
        <pt x="485" y="330" on="0"/>
        <pt x="576" y="479" on="1"/>
        <pt x="415" y="678" on="0"/>
        <pt x="356" y="814" on="1"/>
        <pt x="311" y="916" on="0"/>
        <pt x="204" y="1069" on="1"/>
        <pt x="75" y="1252" on="0"/>
        <pt x="39" y="1316" on="1"/>
        <pt x="19" y="1352" on="0"/>
        <pt x="19" y="1386" on="1"/>
        <pt x="19" y="1441" on="0"/>
        <pt x="104" y="1521" on="0"/>
        <pt x="162" y="1521" on="1"/>
        <pt x="228" y="1521" on="0"/>
        <pt x="281" y="1457" on="1"/>
        <pt x="319" y="1399" on="0"/>
        <pt x="358" y="1341" on="1"/>
        <pt x="461" y="1193" on="0"/>
        <pt x="499" y="1134" on="1"/>
        <pt x="574" y="1015" on="0"/>
        <pt x="618" y="914" on="1"/>
        <pt x="647" y="846" on="0"/>
        <pt x="713" y="760" on="1"/>
        <pt x="779" y="917" on="0"/>
        <pt x="914" y="1229" on="1"/>
        <pt x="952" y="1296" on="0"/>
        <pt x="1023" y="1432" on="1"/>
        <pt x="1064" y="1520" on="0"/>
        <pt x="1152" y="1520" on="1"/>
        <pt x="1210" y="1520" on="0"/>
        <pt x="1295" y="1443" on="0"/>
        <pt x="1295" y="1387" on="1"/>
        <pt x="1295" y="1334" on="0"/>
      </contour>
    </TTGlyph>
    <TTGlyph name="afii10038" xMin="50" yMin="-36" xMax="1189" yMax="1494">
      <component glyphName="Phi" x="0" y="0" flags="0x204"/>
    </TTGlyph>
    <TTGlyph name="afii10039" xMin="11" yMin="-84" xMax="1430" yMax="1521">
      <component glyphName="X" x="0" y="0" flags="0x204"/>
    </TTGlyph>
    <TTGlyph name="afii10040" xMin="83" yMin="-296" xMax="1576" yMax="1536">
      <contour>
        <pt x="1383" y="239" on="1"/>
        <pt x="1480" y="233" on="0"/>
        <pt x="1523" y="190" on="1"/>
        <pt x="1571" y="143" on="0"/>
        <pt x="1571" y="37" on="1"/>
        <pt x="1571" y="4" on="0"/>
        <pt x="1576" y="-129" on="0"/>
        <pt x="1576" y="-162" on="1"/>
        <pt x="1576" y="-220" on="0"/>
        <pt x="1496" y="-296" on="0"/>
        <pt x="1436" y="-296" on="1"/>
        <pt x="1297" y="-296" on="0"/>
        <pt x="1297" y="-130" on="1"/>
        <pt x="1297" y="-120" on="0"/>
        <pt x="1297" y="-99" on="1"/>
        <pt x="1298" y="-78" on="0"/>
        <pt x="1298" y="-69" on="1"/>
        <pt x="1298" y="-46" on="0"/>
        <pt x="1297" y="-27" on="1"/>
        <pt x="1200" y="-28" on="0"/>
        <pt x="1076" y="-23" on="1"/>
        <pt x="800" y="-11" on="0"/>
        <pt x="342" y="-11" on="1"/>
        <pt x="323" y="-11" on="0"/>
        <pt x="246" y="-18" on="0"/>
        <pt x="227" y="-18" on="1"/>
        <pt x="85" y="-18" on="0"/>
        <pt x="85" y="88" on="1"/>
        <pt x="85" y="107" on="0"/>
        <pt x="96" y="149" on="1"/>
        <pt x="109" y="196" on="0"/>
        <pt x="109" y="273" on="1"/>
        <pt x="109" y="369" on="0"/>
        <pt x="111" y="754" on="0"/>
        <pt x="111" y="850" on="1"/>
        <pt x="111" y="942" on="0"/>
        <pt x="83" y="1307" on="0"/>
        <pt x="83" y="1398" on="1"/>
        <pt x="83" y="1457" on="0"/>
        <pt x="160" y="1536" on="0"/>
        <pt x="223" y="1536" on="1"/>
        <pt x="350" y="1536" on="0"/>
        <pt x="362" y="1409" on="1"/>
        <pt x="387" y="1147" on="0"/>
        <pt x="387" y="538" on="1"/>
        <pt x="387" y="238" on="0"/>
        <pt x="388" y="256" on="1"/>
        <pt x="439" y="256" on="0"/>
        <pt x="569" y="258" on="1"/>
        <pt x="684" y="260" on="0"/>
        <pt x="750" y="260" on="1"/>
        <pt x="976" y="260" on="0"/>
        <pt x="1105" y="244" on="1"/>
        <pt x="1106" y="264" on="0"/>
        <pt x="1111" y="345" on="1"/>
        <pt x="1115" y="407" on="0"/>
        <pt x="1115" y="447" on="1"/>
        <pt x="1115" y="581" on="0"/>
        <pt x="1095" y="1171" on="0"/>
        <pt x="1095" y="1307" on="1"/>
        <pt x="1095" y="1425" on="0"/>
        <pt x="1172" y="1522" on="0"/>
        <pt x="1263" y="1522" on="1"/>
        <pt x="1321" y="1522" on="0"/>
        <pt x="1359" y="1479" on="1"/>
        <pt x="1394" y="1439" on="0"/>
        <pt x="1394" y="1386" on="1"/>
        <pt x="1394" y="1327" on="0"/>
        <pt x="1368" y="1054" on="0"/>
        <pt x="1368" y="982" on="1"/>
        <pt x="1368" y="689" on="0"/>
      </contour>
    </TTGlyph>
    <TTGlyph name="afii10041" xMin="65" yMin="-30" xMax="1162" yMax="1544">
      <contour>
        <pt x="1154" y="103" on="1"/>
        <pt x="1154" y="45" on="0"/>
        <pt x="1075" y="-30" on="0"/>
        <pt x="1015" y="-30" on="1"/>
        <pt x="955" y="-30" on="0"/>
        <pt x="876" y="45" on="0"/>
        <pt x="876" y="103" on="1"/>
        <pt x="876" y="283" on="0"/>
        <pt x="881" y="487" on="1"/>
        <pt x="793" y="464" on="0"/>
        <pt x="733" y="464" on="1"/>
        <pt x="398" y="464" on="0"/>
        <pt x="242" y="581" on="1"/>
        <pt x="65" y="714" on="0"/>
        <pt x="65" y="1031" on="1"/>
        <pt x="65" y="1081" on="0"/>
        <pt x="87" y="1263" on="0"/>
        <pt x="87" y="1314" on="1"/>
        <pt x="87" y="1331" on="0"/>
        <pt x="77" y="1399" on="0"/>
        <pt x="77" y="1415" on="1"/>
        <pt x="77" y="1472" on="0"/>
        <pt x="121" y="1509" on="1"/>
        <pt x="162" y="1544" on="0"/>
        <pt x="219" y="1544" on="1"/>
        <pt x="366" y="1544" on="0"/>
        <pt x="366" y="1316" on="1"/>
        <pt x="366" y="1265" on="0"/>
        <pt x="344" y="1082" on="0"/>
        <pt x="344" y="1031" on="1"/>
        <pt x="344" y="845" on="0"/>
        <pt x="492" y="729" on="0"/>
        <pt x="733" y="729" on="1"/>
        <pt x="809" y="729" on="0"/>
        <pt x="891" y="783" on="1"/>
        <pt x="896" y="906" on="0"/>
        <pt x="896" y="963" on="1"/>
        <pt x="896" y="1046" on="0"/>
        <pt x="882" y="1319" on="0"/>
        <pt x="882" y="1402" on="1"/>
        <pt x="882" y="1459" on="0"/>
        <pt x="961" y="1535" on="0"/>
        <pt x="1021" y="1535" on="1"/>
        <pt x="1081" y="1535" on="0"/>
        <pt x="1161" y="1459" on="0"/>
        <pt x="1161" y="1402" on="1"/>
        <pt x="1161" y="1324" on="0"/>
        <pt x="1161" y="1195" on="1"/>
        <pt x="1162" y="1067" on="0"/>
        <pt x="1162" y="988" on="1"/>
        <pt x="1162" y="841" on="0"/>
        <pt x="1154" y="250" on="0"/>
      </contour>
    </TTGlyph>
    <TTGlyph name="afii10042" xMin="59" yMin="-16" xMax="1776" yMax="1536">
      <contour>
        <pt x="1631" y="-16" on="1"/>
        <pt x="1412" y="-16" on="0"/>
        <pt x="536" y="0" on="0"/>
        <pt x="318" y="0" on="1"/>
        <pt x="298" y="0" on="0"/>
        <pt x="222" y="-6" on="0"/>
        <pt x="203" y="-6" on="1"/>
        <pt x="61" y="-6" on="0"/>
        <pt x="61" y="99" on="1"/>
        <pt x="61" y="117" on="0"/>
        <pt x="68" y="146" on="1"/>
        <pt x="77" y="183" on="0"/>
        <pt x="79" y="192" on="1"/>
        <pt x="85" y="230" on="0"/>
        <pt x="85" y="283" on="1"/>
        <pt x="85" y="378" on="0"/>
        <pt x="87" y="759" on="0"/>
        <pt x="87" y="855" on="1"/>
        <pt x="87" y="946" on="0"/>
        <pt x="59" y="1308" on="0"/>
        <pt x="59" y="1399" on="1"/>
        <pt x="59" y="1457" on="0"/>
        <pt x="136" y="1536" on="0"/>
        <pt x="199" y="1536" on="1"/>
        <pt x="320" y="1536" on="0"/>
        <pt x="337" y="1412" on="1"/>
        <pt x="363" y="1226" on="0"/>
        <pt x="363" y="677" on="1"/>
        <pt x="363" y="249" on="0"/>
        <pt x="363" y="265" on="1"/>
        <pt x="501" y="259" on="0"/>
        <pt x="778" y="250" on="1"/>
        <pt x="779" y="273" on="0"/>
        <pt x="785" y="352" on="1"/>
        <pt x="791" y="416" on="0"/>
        <pt x="791" y="455" on="1"/>
        <pt x="791" y="597" on="0"/>
        <pt x="771" y="1166" on="0"/>
        <pt x="771" y="1309" on="1"/>
        <pt x="771" y="1406" on="0"/>
        <pt x="794" y="1450" on="1"/>
        <pt x="831" y="1522" on="0"/>
        <pt x="939" y="1522" on="1"/>
        <pt x="998" y="1522" on="0"/>
        <pt x="1035" y="1478" on="1"/>
        <pt x="1070" y="1438" on="0"/>
        <pt x="1070" y="1387" on="1"/>
        <pt x="1070" y="1320" on="0"/>
        <pt x="1044" y="1053" on="0"/>
        <pt x="1044" y="986" on="1"/>
        <pt x="1044" y="879" on="0"/>
        <pt x="1065" y="452" on="0"/>
        <pt x="1065" y="345" on="1"/>
        <pt x="1065" y="295" on="0"/>
        <pt x="1063" y="250" on="1"/>
        <pt x="1111" y="250" on="0"/>
        <pt x="1431" y="247" on="0"/>
        <pt x="1480" y="247" on="1"/>
        <pt x="1481" y="271" on="0"/>
        <pt x="1486" y="351" on="1"/>
        <pt x="1491" y="415" on="0"/>
        <pt x="1491" y="455" on="1"/>
        <pt x="1491" y="597" on="0"/>
        <pt x="1471" y="1166" on="0"/>
        <pt x="1471" y="1309" on="1"/>
        <pt x="1471" y="1406" on="0"/>
        <pt x="1494" y="1450" on="1"/>
        <pt x="1531" y="1522" on="0"/>
        <pt x="1639" y="1522" on="1"/>
        <pt x="1698" y="1522" on="0"/>
        <pt x="1735" y="1478" on="1"/>
        <pt x="1770" y="1438" on="0"/>
        <pt x="1770" y="1387" on="1"/>
        <pt x="1770" y="1320" on="0"/>
        <pt x="1744" y="1053" on="0"/>
        <pt x="1744" y="986" on="1"/>
        <pt x="1744" y="443" on="0"/>
        <pt x="1759" y="240" on="1"/>
        <pt x="1760" y="222" on="0"/>
        <pt x="1768" y="180" on="1"/>
        <pt x="1776" y="143" on="0"/>
        <pt x="1776" y="120" on="1"/>
        <pt x="1776" y="-16" on="0"/>
      </contour>
    </TTGlyph>
    <TTGlyph name="afii10043" xMin="59" yMin="-296" xMax="1951" yMax="1536">
      <contour>
        <pt x="1758" y="239" on="1"/>
        <pt x="1855" y="233" on="0"/>
        <pt x="1899" y="190" on="1"/>
        <pt x="1947" y="143" on="0"/>
        <pt x="1947" y="37" on="1"/>
        <pt x="1947" y="4" on="0"/>
        <pt x="1951" y="-129" on="0"/>
        <pt x="1951" y="-162" on="1"/>
        <pt x="1951" y="-220" on="0"/>
        <pt x="1872" y="-296" on="0"/>
        <pt x="1812" y="-296" on="1"/>
        <pt x="1672" y="-296" on="0"/>
        <pt x="1672" y="-130" on="1"/>
        <pt x="1672" y="-120" on="0"/>
        <pt x="1674" y="-78" on="0"/>
        <pt x="1674" y="-69" on="1"/>
        <pt x="1674" y="-46" on="0"/>
        <pt x="1673" y="-27" on="1"/>
        <pt x="1634" y="-27" on="0"/>
        <pt x="1563" y="-25" on="1"/>
        <pt x="1487" y="-23" on="0"/>
        <pt x="1454" y="-23" on="1"/>
        <pt x="1337" y="-23" on="0"/>
        <pt x="870" y="-16" on="0"/>
        <pt x="754" y="-16" on="1"/>
        <pt x="681" y="-16" on="0"/>
        <pt x="390" y="-11" on="0"/>
        <pt x="318" y="-11" on="1"/>
        <pt x="298" y="-11" on="0"/>
        <pt x="222" y="-18" on="0"/>
        <pt x="203" y="-18" on="1"/>
        <pt x="61" y="-18" on="0"/>
        <pt x="61" y="88" on="1"/>
        <pt x="61" y="107" on="0"/>
        <pt x="72" y="149" on="1"/>
        <pt x="85" y="196" on="0"/>
        <pt x="85" y="273" on="1"/>
        <pt x="85" y="369" on="0"/>
        <pt x="87" y="754" on="0"/>
        <pt x="87" y="850" on="1"/>
        <pt x="87" y="942" on="0"/>
        <pt x="59" y="1307" on="0"/>
        <pt x="59" y="1398" on="1"/>
        <pt x="59" y="1457" on="0"/>
        <pt x="136" y="1536" on="0"/>
        <pt x="199" y="1536" on="1"/>
        <pt x="325" y="1536" on="0"/>
        <pt x="337" y="1409" on="1"/>
        <pt x="363" y="1147" on="0"/>
        <pt x="363" y="538" on="1"/>
        <pt x="363" y="238" on="0"/>
        <pt x="363" y="256" on="1"/>
        <pt x="487" y="249" on="0"/>
        <pt x="778" y="240" on="1"/>
        <pt x="779" y="264" on="0"/>
        <pt x="785" y="343" on="1"/>
        <pt x="791" y="407" on="0"/>
        <pt x="791" y="447" on="1"/>
        <pt x="791" y="581" on="0"/>
        <pt x="771" y="1171" on="0"/>
        <pt x="771" y="1307" on="1"/>
        <pt x="771" y="1425" on="0"/>
        <pt x="848" y="1522" on="0"/>
        <pt x="939" y="1522" on="1"/>
        <pt x="997" y="1522" on="0"/>
        <pt x="1035" y="1479" on="1"/>
        <pt x="1070" y="1439" on="0"/>
        <pt x="1070" y="1386" on="1"/>
        <pt x="1070" y="1327" on="0"/>
        <pt x="1044" y="1054" on="0"/>
        <pt x="1044" y="982" on="1"/>
        <pt x="1044" y="878" on="0"/>
        <pt x="1065" y="437" on="0"/>
        <pt x="1065" y="330" on="1"/>
        <pt x="1065" y="283" on="0"/>
        <pt x="1063" y="240" on="1"/>
        <pt x="1130" y="240" on="0"/>
        <pt x="1412" y="238" on="0"/>
        <pt x="1480" y="238" on="1"/>
        <pt x="1481" y="262" on="0"/>
        <pt x="1486" y="342" on="1"/>
        <pt x="1491" y="407" on="0"/>
        <pt x="1491" y="447" on="1"/>
        <pt x="1491" y="581" on="0"/>
        <pt x="1471" y="1171" on="0"/>
        <pt x="1471" y="1307" on="1"/>
        <pt x="1471" y="1425" on="0"/>
        <pt x="1548" y="1522" on="0"/>
        <pt x="1639" y="1522" on="1"/>
        <pt x="1697" y="1522" on="0"/>
        <pt x="1735" y="1479" on="1"/>
        <pt x="1770" y="1439" on="0"/>
        <pt x="1770" y="1386" on="1"/>
        <pt x="1770" y="1327" on="0"/>
        <pt x="1744" y="1054" on="0"/>
        <pt x="1744" y="982" on="1"/>
        <pt x="1744" y="689" on="0"/>
      </contour>
    </TTGlyph>
    <TTGlyph name="afii10044" xMin="-2" yMin="-14" xMax="1488" yMax="1517">
      <contour>
        <pt x="883" y="-14" on="1"/>
        <pt x="834" y="-14" on="0"/>
        <pt x="753" y="-10" on="1"/>
        <pt x="658" y="-6" on="0"/>
        <pt x="624" y="-5" on="1"/>
        <pt x="602" y="-11" on="0"/>
        <pt x="580" y="-11" on="1"/>
        <pt x="433" y="-11" on="0"/>
        <pt x="433" y="195" on="1"/>
        <pt x="433" y="225" on="0"/>
        <pt x="447" y="364" on="1"/>
        <pt x="466" y="549" on="0"/>
        <pt x="466" y="716" on="1"/>
        <pt x="466" y="817" on="0"/>
        <pt x="456" y="984" on="1"/>
        <pt x="444" y="1187" on="0"/>
        <pt x="442" y="1251" on="1"/>
        <pt x="170" y="1247" on="0"/>
        <pt x="137" y="1247" on="1"/>
        <pt x="77" y="1247" on="0"/>
        <pt x="-2" y="1322" on="0"/>
        <pt x="-2" y="1379" on="1"/>
        <pt x="-2" y="1436" on="0"/>
        <pt x="77" y="1511" on="0"/>
        <pt x="137" y="1511" on="1"/>
        <pt x="214" y="1511" on="0"/>
        <pt x="520" y="1517" on="0"/>
        <pt x="597" y="1517" on="1"/>
        <pt x="729" y="1517" on="0"/>
        <pt x="729" y="1349" on="1"/>
        <pt x="729" y="1210" on="0"/>
        <pt x="745" y="978" on="1"/>
        <pt x="796" y="980" on="0"/>
        <pt x="831" y="980" on="1"/>
        <pt x="1148" y="980" on="0"/>
        <pt x="1298" y="886" on="1"/>
        <pt x="1488" y="767" on="0"/>
        <pt x="1488" y="470" on="1"/>
        <pt x="1488" y="218" on="0"/>
        <pt x="1305" y="93" on="1"/>
        <pt x="1148" y="-14" on="0"/>
      </contour>
      <contour>
        <pt x="874" y="717" on="1"/>
        <pt x="825" y="717" on="0"/>
        <pt x="749" y="713" on="1"/>
        <pt x="750" y="691" on="0"/>
        <pt x="750" y="667" on="1"/>
        <pt x="750" y="558" on="0"/>
        <pt x="727" y="253" on="1"/>
        <pt x="821" y="251" on="0"/>
        <pt x="883" y="251" on="1"/>
        <pt x="1209" y="251" on="0"/>
        <pt x="1209" y="470" on="1"/>
        <pt x="1209" y="622" on="0"/>
        <pt x="1125" y="674" on="1"/>
        <pt x="1056" y="717" on="0"/>
      </contour>
    </TTGlyph>
    <TTGlyph name="afii10045" xMin="115" yMin="-36" xMax="2148" yMax="1514">
      <component glyphName="afii10046" x="0" y="0" flags="0x4"/>
      <component glyphName="I" x="1048" y="0" flags="0x4"/>
    </TTGlyph>
    <TTGlyph name="afii10046" xMin="115" yMin="-14" xMax="1170" yMax="1514">
      <contour>
        <pt x="564" y="-14" on="1"/>
        <pt x="517" y="-14" on="0"/>
        <pt x="435" y="-10" on="1"/>
        <pt x="341" y="-6" on="0"/>
        <pt x="306" y="-5" on="1"/>
        <pt x="284" y="-11" on="0"/>
        <pt x="262" y="-11" on="1"/>
        <pt x="115" y="-11" on="0"/>
        <pt x="115" y="195" on="1"/>
        <pt x="115" y="222" on="0"/>
        <pt x="129" y="364" on="1"/>
        <pt x="148" y="552" on="0"/>
        <pt x="148" y="716" on="1"/>
        <pt x="148" y="829" on="0"/>
        <pt x="123" y="1240" on="0"/>
        <pt x="123" y="1353" on="1"/>
        <pt x="123" y="1514" on="0"/>
        <pt x="263" y="1514" on="1"/>
        <pt x="333" y="1514" on="0"/>
        <pt x="374" y="1471" on="1"/>
        <pt x="411" y="1432" on="0"/>
        <pt x="411" y="1373" on="1"/>
        <pt x="411" y="1229" on="0"/>
        <pt x="427" y="977" on="1"/>
        <pt x="479" y="979" on="0"/>
        <pt x="513" y="979" on="1"/>
        <pt x="831" y="979" on="0"/>
        <pt x="981" y="885" on="1"/>
        <pt x="1170" y="767" on="0"/>
        <pt x="1170" y="470" on="1"/>
        <pt x="1170" y="218" on="0"/>
        <pt x="986" y="93" on="1"/>
        <pt x="829" y="-14" on="0"/>
      </contour>
      <contour>
        <pt x="556" y="717" on="1"/>
        <pt x="507" y="717" on="0"/>
        <pt x="431" y="712" on="1"/>
        <pt x="432" y="691" on="0"/>
        <pt x="432" y="667" on="1"/>
        <pt x="432" y="558" on="0"/>
        <pt x="409" y="253" on="1"/>
        <pt x="503" y="251" on="0"/>
        <pt x="564" y="251" on="1"/>
        <pt x="891" y="251" on="0"/>
        <pt x="891" y="470" on="1"/>
        <pt x="891" y="622" on="0"/>
        <pt x="807" y="674" on="1"/>
        <pt x="739" y="717" on="0"/>
      </contour>
    </TTGlyph>
    <TTGlyph name="afii10047" xMin="47" yMin="-13" xMax="1275" yMax="1500">
      <contour>
        <pt x="622" y="-13" on="1"/>
        <pt x="317" y="-13" on="0"/>
        <pt x="111" y="117" on="1"/>
        <pt x="47" y="158" on="0"/>
        <pt x="47" y="223" on="1"/>
        <pt x="47" y="277" on="0"/>
        <pt x="130" y="362" on="0"/>
        <pt x="186" y="362" on="1"/>
        <pt x="227" y="362" on="0"/>
        <pt x="266" y="338" on="1"/>
        <pt x="402" y="251" on="0"/>
        <pt x="622" y="251" on="1"/>
        <pt x="740" y="251" on="0"/>
        <pt x="852" y="368" on="1"/>
        <pt x="957" y="478" on="0"/>
        <pt x="988" y="612" on="1"/>
        <pt x="808" y="618" on="0"/>
        <pt x="712" y="618" on="1"/>
        <pt x="611" y="618" on="0"/>
        <pt x="562" y="601" on="1"/>
        <pt x="536" y="592" on="0"/>
        <pt x="510" y="592" on="1"/>
        <pt x="452" y="592" on="0"/>
        <pt x="413" y="636" on="1"/>
        <pt x="376" y="676" on="0"/>
        <pt x="376" y="730" on="1"/>
        <pt x="376" y="819" on="0"/>
        <pt x="563" y="883" on="0"/>
        <pt x="712" y="883" on="1"/>
        <pt x="749" y="883" on="0"/>
        <pt x="971" y="877" on="1"/>
        <pt x="928" y="1038" on="0"/>
        <pt x="827" y="1132" on="1"/>
        <pt x="715" y="1235" on="0"/>
        <pt x="552" y="1235" on="1"/>
        <pt x="391" y="1235" on="0"/>
        <pt x="310" y="1176" on="1"/>
        <pt x="269" y="1146" on="0"/>
        <pt x="224" y="1146" on="1"/>
        <pt x="167" y="1146" on="0"/>
        <pt x="83" y="1230" on="0"/>
        <pt x="83" y="1284" on="1"/>
        <pt x="83" y="1344" on="0"/>
        <pt x="139" y="1385" on="1"/>
        <pt x="296" y="1500" on="0"/>
        <pt x="552" y="1500" on="1"/>
        <pt x="893" y="1500" on="0"/>
        <pt x="1095" y="1241" on="1"/>
        <pt x="1275" y="1009" on="0"/>
        <pt x="1275" y="681" on="1"/>
        <pt x="1275" y="436" on="0"/>
        <pt x="1085" y="218" on="1"/>
        <pt x="883" y="-13" on="0"/>
      </contour>
    </TTGlyph>
    <TTGlyph name="afii10048" xMin="40" yMin="-61" xMax="2268" yMax="1537">
      <contour>
        <pt x="756" y="547" on="1"/>
        <pt x="594" y="548" on="0"/>
        <pt x="595" y="548" on="1"/>
        <pt x="512" y="538" on="0"/>
        <pt x="344" y="517" on="1"/>
        <pt x="344" y="484" on="0"/>
        <pt x="344" y="451" on="1"/>
        <pt x="344" y="376" on="0"/>
        <pt x="323" y="79" on="1"/>
        <pt x="319" y="20" on="0"/>
        <pt x="277" y="-14" on="1"/>
        <pt x="239" y="-44" on="0"/>
        <pt x="185" y="-44" on="1"/>
        <pt x="126" y="-44" on="0"/>
        <pt x="85" y="-9" on="1"/>
        <pt x="40" y="31" on="0"/>
        <pt x="45" y="97" on="1"/>
        <pt x="65" y="385" on="0"/>
        <pt x="65" y="451" on="1"/>
        <pt x="65" y="657" on="0"/>
        <pt x="77" y="930" on="1"/>
        <pt x="97" y="1389" on="0"/>
        <pt x="97" y="1409" on="1"/>
        <pt x="100" y="1470" on="0"/>
        <pt x="142" y="1505" on="1"/>
        <pt x="181" y="1537" on="0"/>
        <pt x="236" y="1537" on="1"/>
        <pt x="294" y="1537" on="0"/>
        <pt x="334" y="1503" on="1"/>
        <pt x="378" y="1464" on="0"/>
        <pt x="376" y="1400" on="1"/>
        <pt x="366" y="1193" on="0"/>
        <pt x="350" y="785" on="1"/>
        <pt x="432" y="798" on="0"/>
        <pt x="583" y="813" on="1"/>
        <pt x="651" y="811" on="0"/>
        <pt x="784" y="811" on="1"/>
        <pt x="855" y="1099" on="0"/>
        <pt x="1050" y="1294" on="1"/>
        <pt x="1272" y="1516" on="0"/>
        <pt x="1571" y="1516" on="1"/>
        <pt x="2268" y="1516" on="0"/>
        <pt x="2268" y="875" on="1"/>
        <pt x="2268" y="534" on="0"/>
        <pt x="2072" y="258" on="1"/>
        <pt x="1846" y="-61" on="0"/>
        <pt x="1482" y="-61" on="1"/>
        <pt x="1194" y="-61" on="0"/>
        <pt x="988" y="100" on="1"/>
        <pt x="769" y="272" on="0"/>
      </contour>
      <contour>
        <pt x="1571" y="1244" on="1"/>
        <pt x="1348" y="1244" on="0"/>
        <pt x="1189" y="1028" on="1"/>
        <pt x="1040" y="826" on="0"/>
        <pt x="1040" y="580" on="1"/>
        <pt x="1040" y="414" on="0"/>
        <pt x="1169" y="310" on="1"/>
        <pt x="1293" y="210" on="0"/>
        <pt x="1482" y="210" on="1"/>
        <pt x="1702" y="210" on="0"/>
        <pt x="1849" y="426" on="1"/>
        <pt x="1984" y="624" on="0"/>
        <pt x="1984" y="875" on="1"/>
        <pt x="1984" y="1085" on="0"/>
        <pt x="1890" y="1166" on="1"/>
        <pt x="1800" y="1244" on="0"/>
      </contour>
    </TTGlyph>
    <TTGlyph name="afii10049" xMin="-14" yMin="-37" xMax="1214" yMax="1543">
      <contour>
        <pt x="1073" y="-35" on="1"/>
        <pt x="1013" y="-35" on="0"/>
        <pt x="933" y="44" on="0"/>
        <pt x="933" y="101" on="1"/>
        <pt x="933" y="155" on="0"/>
        <pt x="925" y="371" on="0"/>
        <pt x="925" y="424" on="1"/>
        <pt x="551" y="308" on="0"/>
        <pt x="227" y="5" on="1"/>
        <pt x="183" y="-37" on="0"/>
        <pt x="128" y="-37" on="1"/>
        <pt x="70" y="-37" on="0"/>
        <pt x="-14" y="45" on="0"/>
        <pt x="-14" y="100" on="1"/>
        <pt x="-14" y="148" on="0"/>
        <pt x="21" y="189" on="1"/>
        <pt x="159" y="347" on="0"/>
        <pt x="470" y="522" on="1"/>
        <pt x="93" y="661" on="0"/>
        <pt x="93" y="917" on="1"/>
        <pt x="93" y="1234" on="0"/>
        <pt x="520" y="1450" on="1"/>
        <pt x="618" y="1499" on="0"/>
        <pt x="758" y="1517" on="1"/>
        <pt x="769" y="1518" on="0"/>
        <pt x="1007" y="1536" on="1"/>
        <pt x="1097" y="1543" on="0"/>
        <pt x="1148" y="1475" on="1"/>
        <pt x="1187" y="1422" on="0"/>
        <pt x="1187" y="1357" on="1"/>
        <pt x="1187" y="1221" on="0"/>
        <pt x="1208" y="683" on="0"/>
        <pt x="1208" y="549" on="1"/>
        <pt x="1208" y="474" on="0"/>
        <pt x="1214" y="176" on="0"/>
        <pt x="1214" y="101" on="1"/>
        <pt x="1214" y="44" on="0"/>
        <pt x="1133" y="-35" on="0"/>
      </contour>
      <contour>
        <pt x="904" y="1254" on="1"/>
        <pt x="869" y="1252" on="0"/>
        <pt x="800" y="1246" on="1"/>
        <pt x="651" y="1231" on="0"/>
        <pt x="516" y="1132" on="1"/>
        <pt x="374" y="1029" on="0"/>
        <pt x="374" y="917" on="1"/>
        <pt x="374" y="895" on="0"/>
        <pt x="460" y="809" on="0"/>
        <pt x="510" y="783" on="1"/>
        <pt x="628" y="722" on="0"/>
        <pt x="874" y="722" on="1"/>
        <pt x="888" y="722" on="0"/>
        <pt x="920" y="723" on="1"/>
        <pt x="919" y="773" on="0"/>
        <pt x="910" y="977" on="1"/>
        <pt x="903" y="1143" on="0"/>
      </contour>
    </TTGlyph>
    <TTGlyph name="afii10050" xMin="142" yMin="-8" xMax="1229" yMax="1777">
      <contour>
        <pt x="400" y="1499" on="1"/>
        <pt x="484" y="1499" on="0"/>
        <pt x="913" y="1485" on="1"/>
        <pt x="903" y="1566" on="0"/>
        <pt x="903" y="1643" on="1"/>
        <pt x="903" y="1702" on="0"/>
        <pt x="984" y="1777" on="0"/>
        <pt x="1042" y="1777" on="1"/>
        <pt x="1101" y="1777" on="0"/>
        <pt x="1182" y="1702" on="0"/>
        <pt x="1182" y="1643" on="1"/>
        <pt x="1182" y="1548" on="0"/>
        <pt x="1206" y="1421" on="1"/>
        <pt x="1229" y="1387" on="0"/>
        <pt x="1229" y="1345" on="1"/>
        <pt x="1229" y="1287" on="0"/>
        <pt x="1146" y="1208" on="0"/>
        <pt x="1088" y="1208" on="1"/>
        <pt x="986" y="1208" on="0"/>
        <pt x="777" y="1219" on="1"/>
        <pt x="579" y="1230" on="0"/>
        <pt x="465" y="1230" on="1"/>
        <pt x="442" y="1229" on="1"/>
        <pt x="446" y="1115" on="0"/>
        <pt x="469" y="820" on="1"/>
        <pt x="490" y="560" on="0"/>
        <pt x="490" y="410" on="1"/>
        <pt x="490" y="375" on="0"/>
        <pt x="504" y="239" on="0"/>
        <pt x="504" y="205" on="1"/>
        <pt x="504" y="126" on="0"/>
        <pt x="470" y="65" on="1"/>
        <pt x="429" y="-8" on="0"/>
        <pt x="355" y="-8" on="1"/>
        <pt x="298" y="-8" on="0"/>
        <pt x="211" y="69" on="0"/>
        <pt x="211" y="126" on="1"/>
        <pt x="211" y="141" on="0"/>
        <pt x="222" y="198" on="0"/>
        <pt x="222" y="212" on="1"/>
        <pt x="222" y="259" on="0"/>
        <pt x="208" y="447" on="0"/>
        <pt x="208" y="494" on="1"/>
        <pt x="208" y="644" on="0"/>
        <pt x="142" y="1239" on="0"/>
        <pt x="142" y="1389" on="1"/>
        <pt x="142" y="1449" on="0"/>
        <pt x="225" y="1526" on="0"/>
        <pt x="285" y="1526" on="1"/>
        <pt x="352" y="1526" on="0"/>
      </contour>
    </TTGlyph>
    <TTGlyph name="afii10051" xMin="2" yMin="-279" xMax="1682" yMax="1515">
      <contour>
        <pt x="1162" y="-279" on="1"/>
        <pt x="1112" y="-279" on="0"/>
        <pt x="1034" y="-213" on="0"/>
        <pt x="1034" y="-164" on="1"/>
        <pt x="1034" y="-83" on="0"/>
        <pt x="1170" y="-12" on="1"/>
        <pt x="1404" y="109" on="0"/>
        <pt x="1404" y="415" on="1"/>
        <pt x="1404" y="730" on="0"/>
        <pt x="1094" y="730" on="1"/>
        <pt x="1007" y="730" on="0"/>
        <pt x="834" y="666" on="1"/>
        <pt x="850" y="461" on="0"/>
        <pt x="850" y="398" on="1"/>
        <pt x="850" y="364" on="0"/>
        <pt x="864" y="228" on="0"/>
        <pt x="864" y="194" on="1"/>
        <pt x="864" y="114" on="0"/>
        <pt x="830" y="53" on="1"/>
        <pt x="789" y="-20" on="0"/>
        <pt x="715" y="-20" on="1"/>
        <pt x="658" y="-20" on="0"/>
        <pt x="571" y="58" on="0"/>
        <pt x="571" y="115" on="1"/>
        <pt x="571" y="129" on="0"/>
        <pt x="582" y="186" on="0"/>
        <pt x="582" y="201" on="1"/>
        <pt x="582" y="248" on="0"/>
        <pt x="568" y="436" on="0"/>
        <pt x="568" y="483" on="1"/>
        <pt x="568" y="622" on="0"/>
        <pt x="547" y="859" on="1"/>
        <pt x="523" y="1133" on="0"/>
        <pt x="519" y="1234" on="1"/>
        <pt x="420" y="1233" on="1"/>
        <pt x="2" y="1229" on="0"/>
        <pt x="2" y="1377" on="1"/>
        <pt x="2" y="1437" on="0"/>
        <pt x="85" y="1515" on="0"/>
        <pt x="145" y="1515" on="1"/>
        <pt x="199" y="1515" on="0"/>
        <pt x="413" y="1486" on="0"/>
        <pt x="467" y="1486" on="1"/>
        <pt x="528" y="1486" on="0"/>
        <pt x="771" y="1491" on="0"/>
        <pt x="832" y="1491" on="1"/>
        <pt x="908" y="1491" on="0"/>
        <pt x="1212" y="1470" on="0"/>
        <pt x="1288" y="1470" on="1"/>
        <pt x="1345" y="1470" on="0"/>
        <pt x="1429" y="1391" on="0"/>
        <pt x="1429" y="1333" on="1"/>
        <pt x="1429" y="1277" on="0"/>
        <pt x="1386" y="1245" on="1"/>
        <pt x="1346" y="1217" on="0"/>
        <pt x="1288" y="1217" on="1"/>
        <pt x="1219" y="1217" on="0"/>
        <pt x="940" y="1239" on="0"/>
        <pt x="868" y="1239" on="1"/>
        <pt x="802" y="1238" on="1"/>
        <pt x="804" y="1142" on="0"/>
        <pt x="812" y="951" on="1"/>
        <pt x="967" y="997" on="0"/>
        <pt x="1094" y="997" on="1"/>
        <pt x="1374" y="997" on="0"/>
        <pt x="1682" y="694" on="0"/>
        <pt x="1682" y="415" on="1"/>
        <pt x="1682" y="178" on="0"/>
        <pt x="1543" y="-37" on="1"/>
        <pt x="1386" y="-279" on="0"/>
      </contour>
    </TTGlyph>
    <TTGlyph name="afii10052" xMin="61" yMin="-93" xMax="1129" yMax="2115">
      <component glyphName="Gamma" x="0" y="0" flags="0x204"/>
      <component glyphName="acute" x="300" y="450" flags="0x4"/>
    </TTGlyph>
    <TTGlyph name="afii10053" xMin="50" yMin="-24" xMax="1243" yMax="1523">
      <contour>
        <pt x="1104" y="1065" on="1"/>
        <pt x="1047" y="1065" on="0"/>
        <pt x="1011" y="1101" on="1"/>
        <pt x="990" y="1122" on="0"/>
        <pt x="966" y="1169" on="1"/>
        <pt x="946" y="1211" on="0"/>
        <pt x="924" y="1221" on="0"/>
        <pt x="852" y="1221" on="1"/>
        <pt x="705" y="1221" on="0"/>
        <pt x="568" y="1096" on="1"/>
        <pt x="443" y="982" on="0"/>
        <pt x="404" y="847" on="1"/>
        <pt x="540" y="866" on="0"/>
        <pt x="806" y="909" on="1"/>
        <pt x="822" y="912" on="0"/>
        <pt x="837" y="912" on="1"/>
        <pt x="896" y="912" on="0"/>
        <pt x="973" y="831" on="0"/>
        <pt x="973" y="777" on="1"/>
        <pt x="973" y="677" on="0"/>
        <pt x="863" y="650" on="1"/>
        <pt x="793" y="633" on="0"/>
        <pt x="333" y="567" on="1"/>
        <pt x="330" y="539" on="0"/>
        <pt x="330" y="512" on="1"/>
        <pt x="330" y="406" on="0"/>
        <pt x="401" y="328" on="1"/>
        <pt x="474" y="247" on="0"/>
        <pt x="578" y="247" on="1"/>
        <pt x="674" y="247" on="0"/>
        <pt x="777" y="299" on="1"/>
        <pt x="814" y="318" on="0"/>
        <pt x="932" y="397" on="1"/>
        <pt x="1011" y="449" on="0"/>
        <pt x="1049" y="449" on="1"/>
        <pt x="1108" y="449" on="0"/>
        <pt x="1190" y="366" on="0"/>
        <pt x="1190" y="311" on="1"/>
        <pt x="1190" y="254" on="0"/>
        <pt x="1139" y="209" on="1"/>
        <pt x="873" y="-24" on="0"/>
        <pt x="578" y="-24" on="1"/>
        <pt x="353" y="-24" on="0"/>
        <pt x="198" y="140" on="1"/>
        <pt x="50" y="298" on="0"/>
        <pt x="50" y="512" on="1"/>
        <pt x="50" y="891" on="0"/>
        <pt x="259" y="1177" on="1"/>
        <pt x="489" y="1492" on="0"/>
        <pt x="852" y="1492" on="1"/>
        <pt x="937" y="1492" on="0"/>
        <pt x="994" y="1479" on="1"/>
        <pt x="1040" y="1523" on="0"/>
        <pt x="1100" y="1523" on="1"/>
        <pt x="1197" y="1523" on="0"/>
        <pt x="1227" y="1403" on="1"/>
        <pt x="1243" y="1343" on="0"/>
        <pt x="1243" y="1210" on="1"/>
        <pt x="1243" y="1153" on="0"/>
        <pt x="1208" y="1112" on="1"/>
        <pt x="1169" y="1065" on="0"/>
      </contour>
    </TTGlyph>
    <TTGlyph name="afii10054" xMin="48" yMin="-61" xMax="1377" yMax="1467">
      <component glyphName="S" x="0" y="0" flags="0x204"/>
    </TTGlyph>
    <TTGlyph name="afii10055" xMin="35" yMin="-36" xMax="1100" yMax="1494">
      <component glyphName="I" x="0" y="0" flags="0x204"/>
    </TTGlyph>
    <TTGlyph name="afii10056" xMin="35" yMin="-36" xMax="1100" yMax="1905">
      <component glyphName="I" x="0" y="0" flags="0x204"/>
      <component glyphName="dieresis" x="2" y="470" flags="0x4"/>
    </TTGlyph>
    <TTGlyph name="afii10057" xMin="54" yMin="-120" xMax="1336" yMax="1515">
      <component glyphName="J" x="0" y="0" flags="0x204"/>
    </TTGlyph>
</ttFont>
